<?xml version="1.0" encoding="UTF-8"?>
<svg xmlns="http://www.w3.org/2000/svg" xmlns:xlink="http://www.w3.org/1999/xlink" width="377.36pt" height="52.84918pt" viewBox="0 0 377.36 52.84918" version="1.1">
<defs>
<clipPath id="clip1">
  <path d="M 32 28 L 49 28 L 49 52.847656 L 32 52.847656 Z M 32 28 "/>
</clipPath>
<clipPath id="clip2">
  <path d="M 36 28 L 53 28 L 53 52.847656 L 36 52.847656 Z M 36 28 "/>
</clipPath>
<clipPath id="clip3">
  <path d="M 102 28 L 118 28 L 118 52.847656 L 102 52.847656 Z M 102 28 "/>
</clipPath>
<clipPath id="clip4">
  <path d="M 106 28 L 122 28 L 122 52.847656 L 106 52.847656 Z M 106 28 "/>
</clipPath>
<clipPath id="clip5">
  <path d="M 175 28 L 191 28 L 191 52.847656 L 175 52.847656 Z M 175 28 "/>
</clipPath>
<clipPath id="clip6">
  <path d="M 256 28 L 272 28 L 272 52.847656 L 256 52.847656 Z M 256 28 "/>
</clipPath>
<clipPath id="clip7">
  <path d="M 260 28 L 276 28 L 276 52.847656 L 260 52.847656 Z M 260 28 "/>
</clipPath>
<clipPath id="clip8">
  <path d="M 353 0 L 377.359375 0 L 377.359375 25 L 353 25 Z M 353 0 "/>
</clipPath>
<clipPath id="clip9">
  <path d="M 325 28 L 341 28 L 341 52.847656 L 325 52.847656 Z M 325 28 "/>
</clipPath>
<clipPath id="clip10">
  <path d="M 329 28 L 345 28 L 345 52.847656 L 329 52.847656 Z M 329 28 "/>
</clipPath>
</defs>
<g id="surface1">
<path style=" stroke:none;fill-rule:nonzero;fill:rgb(0%,0%,0%);fill-opacity:1;" d="M 20.148438 2.527344 C 20.148438 1.703125 19.480469 1.035156 18.652344 1.035156 C 17.828125 1.035156 17.160156 1.703125 17.160156 2.527344 C 17.160156 3.355469 17.828125 4.023438 18.652344 4.023438 C 19.480469 4.023438 20.148438 3.355469 20.148438 2.527344 Z M 20.148438 2.527344 "/>
<path style="fill:none;stroke-width:0.3985;stroke-linecap:butt;stroke-linejoin:miter;stroke:rgb(0%,0%,0%);stroke-opacity:1;stroke-miterlimit:10;" d="M 31.888344 63.781546 L 15.946938 47.836234 " transform="matrix(1,0,0,-1,-13.236,66.30889)"/>
<path style=" stroke:none;fill-rule:nonzero;fill:rgb(0%,0%,0%);fill-opacity:1;" d="M 4.203125 18.472656 C 4.203125 17.648438 3.535156 16.980469 2.710938 16.980469 C 1.882812 16.980469 1.214844 17.648438 1.214844 18.472656 C 1.214844 19.300781 1.882812 19.96875 2.710938 19.96875 C 3.535156 19.96875 4.203125 19.300781 4.203125 18.472656 Z M 4.203125 18.472656 "/>
<path style="fill:none;stroke-width:0.3985;stroke-linecap:butt;stroke-linejoin:miter;stroke:rgb(0%,0%,0%);stroke-opacity:1;stroke-miterlimit:10;" d="M 31.888344 63.781546 L 47.833656 47.836234 " transform="matrix(1,0,0,-1,-13.236,66.30889)"/>
<path style=" stroke:none;fill-rule:nonzero;fill:rgb(0%,0%,0%);fill-opacity:1;" d="M 36.09375 18.472656 C 36.09375 17.648438 35.425781 16.980469 34.597656 16.980469 C 33.773438 16.980469 33.105469 17.648438 33.105469 18.472656 C 33.105469 19.300781 33.773438 19.96875 34.597656 19.96875 C 35.425781 19.96875 36.09375 19.300781 36.09375 18.472656 Z M 36.09375 18.472656 "/>
<path style="fill:none;stroke-width:0.3985;stroke-linecap:butt;stroke-linejoin:miter;stroke:rgb(0%,0%,0%);stroke-opacity:1;stroke-miterlimit:10;" d="M 47.833656 47.836234 L 39.861 31.890921 " transform="matrix(1,0,0,-1,-13.236,66.30889)"/>
<path style=" stroke:none;fill-rule:nonzero;fill:rgb(0%,0%,0%);fill-opacity:1;" d="M 28.121094 34.417969 C 28.121094 33.59375 27.453125 32.925781 26.625 32.925781 C 25.800781 32.925781 25.132812 33.59375 25.132812 34.417969 C 25.132812 35.242188 25.800781 35.914062 26.625 35.914062 C 27.453125 35.914062 28.121094 35.242188 28.121094 34.417969 Z M 28.121094 34.417969 "/>
<path style="fill:none;stroke-width:0.3985;stroke-linecap:butt;stroke-linejoin:miter;stroke:rgb(0%,0%,0%);stroke-opacity:1;stroke-miterlimit:10;" d="M 47.833656 47.836234 L 55.806313 31.890921 " transform="matrix(1,0,0,-1,-13.236,66.30889)"/>
<path style=" stroke:none;fill-rule:nonzero;fill:rgb(0%,0%,0%);fill-opacity:1;" d="M 44.066406 34.417969 C 44.066406 33.59375 43.398438 32.925781 42.570312 32.925781 C 41.746094 32.925781 41.078125 33.59375 41.078125 34.417969 C 41.078125 35.242188 41.746094 35.914062 42.570312 35.914062 C 43.398438 35.914062 44.066406 35.242188 44.066406 34.417969 Z M 44.066406 34.417969 "/>
<g clip-path="url(#clip1)" clip-rule="nonzero">
<path style="fill:none;stroke-width:0.3985;stroke-linecap:butt;stroke-linejoin:miter;stroke:rgb(0%,0%,0%);stroke-opacity:1;stroke-miterlimit:10;" d="M 55.806313 31.890921 L 51.821938 15.945609 " transform="matrix(1,0,0,-1,-13.236,66.30889)"/>
</g>
<path style=" stroke:none;fill-rule:nonzero;fill:rgb(0%,0%,0%);fill-opacity:1;" d="M 40.078125 50.363281 C 40.078125 49.539062 39.410156 48.871094 38.585938 48.871094 C 37.761719 48.871094 37.089844 49.539062 37.089844 50.363281 C 37.089844 51.1875 37.761719 51.859375 38.585938 51.859375 C 39.410156 51.859375 40.078125 51.1875 40.078125 50.363281 Z M 40.078125 50.363281 "/>
<g clip-path="url(#clip2)" clip-rule="nonzero">
<path style="fill:none;stroke-width:0.3985;stroke-linecap:butt;stroke-linejoin:miter;stroke:rgb(0%,0%,0%);stroke-opacity:1;stroke-miterlimit:10;" d="M 55.806313 31.890921 L 59.794594 15.945609 " transform="matrix(1,0,0,-1,-13.236,66.30889)"/>
</g>
<path style=" stroke:none;fill-rule:nonzero;fill:rgb(0%,0%,0%);fill-opacity:1;" d="M 48.050781 50.363281 C 48.050781 49.539062 47.382812 48.871094 46.558594 48.871094 C 45.734375 48.871094 45.0625 49.539062 45.0625 50.363281 C 45.0625 51.1875 45.734375 51.859375 46.558594 51.859375 C 47.382812 51.859375 48.050781 51.1875 48.050781 50.363281 Z M 48.050781 50.363281 "/>
<path style=" stroke:none;fill-rule:nonzero;fill:rgb(0%,0%,0%);fill-opacity:1;" d="M 105.1875 2.527344 C 105.1875 1.703125 104.519531 1.035156 103.695312 1.035156 C 102.871094 1.035156 102.199219 1.703125 102.199219 2.527344 C 102.199219 3.355469 102.871094 4.023438 103.695312 4.023438 C 104.519531 4.023438 105.1875 3.355469 105.1875 2.527344 Z M 105.1875 2.527344 "/>
<path style="fill:none;stroke-width:0.3985;stroke-linecap:butt;stroke-linejoin:miter;stroke:rgb(0%,0%,0%);stroke-opacity:1;stroke-miterlimit:10;" d="M 116.931313 63.781546 L 100.986 47.836234 " transform="matrix(1,0,0,-1,-13.236,66.30889)"/>
<path style=" stroke:none;fill-rule:nonzero;fill:rgb(0%,0%,0%);fill-opacity:1;" d="M 89.242188 18.472656 C 89.242188 17.648438 88.574219 16.980469 87.75 16.980469 C 86.925781 16.980469 86.253906 17.648438 86.253906 18.472656 C 86.253906 19.300781 86.925781 19.96875 87.75 19.96875 C 88.574219 19.96875 89.242188 19.300781 89.242188 18.472656 Z M 89.242188 18.472656 "/>
<path style="fill:none;stroke-width:0.3985;stroke-linecap:butt;stroke-linejoin:miter;stroke:rgb(0%,0%,0%);stroke-opacity:1;stroke-miterlimit:10;" d="M 116.931313 63.781546 L 132.876625 47.836234 " transform="matrix(1,0,0,-1,-13.236,66.30889)"/>
<path style=" stroke:none;fill-rule:nonzero;fill:rgb(0%,0%,0%);fill-opacity:1;" d="M 121.132812 18.472656 C 121.132812 17.648438 120.464844 16.980469 119.640625 16.980469 C 118.8125 16.980469 118.144531 17.648438 118.144531 18.472656 C 118.144531 19.300781 118.8125 19.96875 119.640625 19.96875 C 120.464844 19.96875 121.132812 19.300781 121.132812 18.472656 Z M 121.132812 18.472656 "/>
<path style="fill:none;stroke-width:0.3985;stroke-linecap:butt;stroke-linejoin:miter;stroke:rgb(0%,0%,0%);stroke-opacity:1;stroke-miterlimit:10;" d="M 132.876625 47.836234 L 124.903969 31.890921 " transform="matrix(1,0,0,-1,-13.236,66.30889)"/>
<path style=" stroke:none;fill-rule:nonzero;fill:rgb(0%,0%,0%);fill-opacity:1;" d="M 113.160156 34.417969 C 113.160156 33.59375 112.492188 32.925781 111.667969 32.925781 C 110.839844 32.925781 110.171875 33.59375 110.171875 34.417969 C 110.171875 35.242188 110.839844 35.914062 111.667969 35.914062 C 112.492188 35.914062 113.160156 35.242188 113.160156 34.417969 Z M 113.160156 34.417969 "/>
<path style="fill:none;stroke-width:0.3985;stroke-linecap:butt;stroke-linejoin:miter;stroke:rgb(0%,0%,0%);stroke-opacity:1;stroke-miterlimit:10;" d="M 132.876625 47.836234 L 140.849281 31.890921 " transform="matrix(1,0,0,-1,-13.236,66.30889)"/>
<path style=" stroke:none;fill-rule:nonzero;fill:rgb(0%,0%,0%);fill-opacity:1;" d="M 129.105469 34.417969 C 129.105469 33.59375 128.4375 32.925781 127.613281 32.925781 C 126.785156 32.925781 126.117188 33.59375 126.117188 34.417969 C 126.117188 35.242188 126.785156 35.914062 127.613281 35.914062 C 128.4375 35.914062 129.105469 35.242188 129.105469 34.417969 Z M 129.105469 34.417969 "/>
<g clip-path="url(#clip3)" clip-rule="nonzero">
<path style="fill:none;stroke-width:0.3985;stroke-linecap:butt;stroke-linejoin:miter;stroke:rgb(0%,0%,0%);stroke-opacity:1;stroke-miterlimit:10;" d="M 124.903969 31.890921 L 120.915688 15.945609 " transform="matrix(1,0,0,-1,-13.236,66.30889)"/>
</g>
<path style=" stroke:none;fill-rule:nonzero;fill:rgb(0%,0%,0%);fill-opacity:1;" d="M 109.175781 50.363281 C 109.175781 49.539062 108.507812 48.871094 107.679688 48.871094 C 106.855469 48.871094 106.1875 49.539062 106.1875 50.363281 C 106.1875 51.1875 106.855469 51.859375 107.679688 51.859375 C 108.507812 51.859375 109.175781 51.1875 109.175781 50.363281 Z M 109.175781 50.363281 "/>
<g clip-path="url(#clip4)" clip-rule="nonzero">
<path style="fill:none;stroke-width:0.3985;stroke-linecap:butt;stroke-linejoin:miter;stroke:rgb(0%,0%,0%);stroke-opacity:1;stroke-miterlimit:10;" d="M 124.903969 31.890921 L 128.888344 15.945609 " transform="matrix(1,0,0,-1,-13.236,66.30889)"/>
</g>
<path style=" stroke:none;fill-rule:nonzero;fill:rgb(0%,0%,0%);fill-opacity:1;" d="M 117.148438 50.363281 C 117.148438 49.539062 116.480469 48.871094 115.652344 48.871094 C 114.828125 48.871094 114.160156 49.539062 114.160156 50.363281 C 114.160156 51.1875 114.828125 51.859375 115.652344 51.859375 C 116.480469 51.859375 117.148438 51.1875 117.148438 50.363281 Z M 117.148438 50.363281 "/>
<path style=" stroke:none;fill-rule:nonzero;fill:rgb(0%,0%,0%);fill-opacity:1;" d="M 190.230469 2.527344 C 190.230469 1.703125 189.558594 1.035156 188.734375 1.035156 C 187.910156 1.035156 187.242188 1.703125 187.242188 2.527344 C 187.242188 3.355469 187.910156 4.023438 188.734375 4.023438 C 189.558594 4.023438 190.230469 3.355469 190.230469 2.527344 Z M 190.230469 2.527344 "/>
<path style="fill:none;stroke-width:0.3985;stroke-linecap:butt;stroke-linejoin:miter;stroke:rgb(0%,0%,0%);stroke-opacity:1;stroke-miterlimit:10;" d="M 201.970375 63.781546 L 186.025062 47.836234 " transform="matrix(1,0,0,-1,-13.236,66.30889)"/>
<path style=" stroke:none;fill-rule:nonzero;fill:rgb(0%,0%,0%);fill-opacity:1;" d="M 174.285156 18.472656 C 174.285156 17.648438 173.617188 16.980469 172.789062 16.980469 C 171.964844 16.980469 171.296875 17.648438 171.296875 18.472656 C 171.296875 19.300781 171.964844 19.96875 172.789062 19.96875 C 173.617188 19.96875 174.285156 19.300781 174.285156 18.472656 Z M 174.285156 18.472656 "/>
<path style="fill:none;stroke-width:0.3985;stroke-linecap:butt;stroke-linejoin:miter;stroke:rgb(0%,0%,0%);stroke-opacity:1;stroke-miterlimit:10;" d="M 201.970375 63.781546 L 217.915687 47.836234 " transform="matrix(1,0,0,-1,-13.236,66.30889)"/>
<path style=" stroke:none;fill-rule:nonzero;fill:rgb(0%,0%,0%);fill-opacity:1;" d="M 206.175781 18.472656 C 206.175781 17.648438 205.503906 16.980469 204.679688 16.980469 C 203.855469 16.980469 203.1875 17.648438 203.1875 18.472656 C 203.1875 19.300781 203.855469 19.96875 204.679688 19.96875 C 205.503906 19.96875 206.175781 19.300781 206.175781 18.472656 Z M 206.175781 18.472656 "/>
<path style="fill:none;stroke-width:0.3985;stroke-linecap:butt;stroke-linejoin:miter;stroke:rgb(0%,0%,0%);stroke-opacity:1;stroke-miterlimit:10;" d="M 186.025062 47.836234 L 178.052406 31.890921 " transform="matrix(1,0,0,-1,-13.236,66.30889)"/>
<path style=" stroke:none;fill-rule:nonzero;fill:rgb(0%,0%,0%);fill-opacity:1;" d="M 166.3125 34.417969 C 166.3125 33.59375 165.644531 32.925781 164.816406 32.925781 C 163.992188 32.925781 163.324219 33.59375 163.324219 34.417969 C 163.324219 35.242188 163.992188 35.914062 164.816406 35.914062 C 165.644531 35.914062 166.3125 35.242188 166.3125 34.417969 Z M 166.3125 34.417969 "/>
<path style="fill:none;stroke-width:0.3985;stroke-linecap:butt;stroke-linejoin:miter;stroke:rgb(0%,0%,0%);stroke-opacity:1;stroke-miterlimit:10;" d="M 186.025062 47.836234 L 193.997719 31.890921 " transform="matrix(1,0,0,-1,-13.236,66.30889)"/>
<path style=" stroke:none;fill-rule:nonzero;fill:rgb(0%,0%,0%);fill-opacity:1;" d="M 182.257812 34.417969 C 182.257812 33.59375 181.585938 32.925781 180.761719 32.925781 C 179.9375 32.925781 179.269531 33.59375 179.269531 34.417969 C 179.269531 35.242188 179.9375 35.914062 180.761719 35.914062 C 181.585938 35.914062 182.257812 35.242188 182.257812 34.417969 Z M 182.257812 34.417969 "/>
<path style="fill:none;stroke-width:0.3985;stroke-linecap:butt;stroke-linejoin:miter;stroke:rgb(0%,0%,0%);stroke-opacity:1;stroke-miterlimit:10;" d="M 217.915687 47.836234 L 209.943031 31.890921 " transform="matrix(1,0,0,-1,-13.236,66.30889)"/>
<path style=" stroke:none;fill-rule:nonzero;fill:rgb(0%,0%,0%);fill-opacity:1;" d="M 198.203125 34.417969 C 198.203125 33.59375 197.53125 32.925781 196.707031 32.925781 C 195.882812 32.925781 195.214844 33.59375 195.214844 34.417969 C 195.214844 35.242188 195.882812 35.914062 196.707031 35.914062 C 197.53125 35.914062 198.203125 35.242188 198.203125 34.417969 Z M 198.203125 34.417969 "/>
<path style="fill:none;stroke-width:0.3985;stroke-linecap:butt;stroke-linejoin:miter;stroke:rgb(0%,0%,0%);stroke-opacity:1;stroke-miterlimit:10;" d="M 217.915687 47.836234 L 225.888344 31.890921 " transform="matrix(1,0,0,-1,-13.236,66.30889)"/>
<path style=" stroke:none;fill-rule:nonzero;fill:rgb(0%,0%,0%);fill-opacity:1;" d="M 214.148438 34.417969 C 214.148438 33.59375 213.476562 32.925781 212.652344 32.925781 C 211.828125 32.925781 211.160156 33.59375 211.160156 34.417969 C 211.160156 35.242188 211.828125 35.914062 212.652344 35.914062 C 213.476562 35.914062 214.148438 35.242188 214.148438 34.417969 Z M 214.148438 34.417969 "/>
<g clip-path="url(#clip5)" clip-rule="nonzero">
<path style="fill:none;stroke-width:0.3985;stroke-linecap:butt;stroke-linejoin:miter;stroke:rgb(100%,100%,100%);stroke-opacity:1;stroke-miterlimit:10;" d="M 193.997719 31.890921 L 197.986 15.945609 " transform="matrix(1,0,0,-1,-13.236,66.30889)"/>
</g>
<path style=" stroke:none;fill-rule:nonzero;fill:rgb(0%,0%,0%);fill-opacity:1;" d="M 275.269531 2.527344 C 275.269531 1.703125 274.601562 1.035156 273.777344 1.035156 C 272.949219 1.035156 272.28125 1.703125 272.28125 2.527344 C 272.28125 3.355469 272.949219 4.023438 273.777344 4.023438 C 274.601562 4.023438 275.269531 3.355469 275.269531 2.527344 Z M 275.269531 2.527344 "/>
<path style="fill:none;stroke-width:0.3985;stroke-linecap:butt;stroke-linejoin:miter;stroke:rgb(0%,0%,0%);stroke-opacity:1;stroke-miterlimit:10;" d="M 287.013344 63.781546 L 271.068031 47.836234 " transform="matrix(1,0,0,-1,-13.236,66.30889)"/>
<path style=" stroke:none;fill-rule:nonzero;fill:rgb(0%,0%,0%);fill-opacity:1;" d="M 259.324219 18.472656 C 259.324219 17.648438 258.65625 16.980469 257.832031 16.980469 C 257.003906 16.980469 256.335938 17.648438 256.335938 18.472656 C 256.335938 19.300781 257.003906 19.96875 257.832031 19.96875 C 258.65625 19.96875 259.324219 19.300781 259.324219 18.472656 Z M 259.324219 18.472656 "/>
<path style="fill:none;stroke-width:0.3985;stroke-linecap:butt;stroke-linejoin:miter;stroke:rgb(0%,0%,0%);stroke-opacity:1;stroke-miterlimit:10;" d="M 287.013344 63.781546 L 302.95475 47.836234 " transform="matrix(1,0,0,-1,-13.236,66.30889)"/>
<path style=" stroke:none;fill-rule:nonzero;fill:rgb(0%,0%,0%);fill-opacity:1;" d="M 291.214844 18.472656 C 291.214844 17.648438 290.546875 16.980469 289.71875 16.980469 C 288.894531 16.980469 288.226562 17.648438 288.226562 18.472656 C 288.226562 19.300781 288.894531 19.96875 289.71875 19.96875 C 290.546875 19.96875 291.214844 19.300781 291.214844 18.472656 Z M 291.214844 18.472656 "/>
<path style="fill:none;stroke-width:0.3985;stroke-linecap:butt;stroke-linejoin:miter;stroke:rgb(0%,0%,0%);stroke-opacity:1;stroke-miterlimit:10;" d="M 271.068031 47.836234 L 263.095375 31.890921 " transform="matrix(1,0,0,-1,-13.236,66.30889)"/>
<path style=" stroke:none;fill-rule:nonzero;fill:rgb(0%,0%,0%);fill-opacity:1;" d="M 251.351562 34.417969 C 251.351562 33.59375 250.683594 32.925781 249.859375 32.925781 C 249.03125 32.925781 248.363281 33.59375 248.363281 34.417969 C 248.363281 35.242188 249.03125 35.914062 249.859375 35.914062 C 250.683594 35.914062 251.351562 35.242188 251.351562 34.417969 Z M 251.351562 34.417969 "/>
<path style="fill:none;stroke-width:0.3985;stroke-linecap:butt;stroke-linejoin:miter;stroke:rgb(0%,0%,0%);stroke-opacity:1;stroke-miterlimit:10;" d="M 271.068031 47.836234 L 279.040687 31.890921 " transform="matrix(1,0,0,-1,-13.236,66.30889)"/>
<path style=" stroke:none;fill-rule:nonzero;fill:rgb(0%,0%,0%);fill-opacity:1;" d="M 267.296875 34.417969 C 267.296875 33.59375 266.628906 32.925781 265.804688 32.925781 C 264.976562 32.925781 264.308594 33.59375 264.308594 34.417969 C 264.308594 35.242188 264.976562 35.914062 265.804688 35.914062 C 266.628906 35.914062 267.296875 35.242188 267.296875 34.417969 Z M 267.296875 34.417969 "/>
<g clip-path="url(#clip6)" clip-rule="nonzero">
<path style="fill:none;stroke-width:0.3985;stroke-linecap:butt;stroke-linejoin:miter;stroke:rgb(0%,0%,0%);stroke-opacity:1;stroke-miterlimit:10;" d="M 279.040687 31.890921 L 275.052406 15.945609 " transform="matrix(1,0,0,-1,-13.236,66.30889)"/>
</g>
<path style=" stroke:none;fill-rule:nonzero;fill:rgb(0%,0%,0%);fill-opacity:1;" d="M 263.3125 50.363281 C 263.3125 49.539062 262.640625 48.871094 261.816406 48.871094 C 260.992188 48.871094 260.320312 49.539062 260.320312 50.363281 C 260.320312 51.1875 260.992188 51.859375 261.816406 51.859375 C 262.640625 51.859375 263.3125 51.1875 263.3125 50.363281 Z M 263.3125 50.363281 "/>
<g clip-path="url(#clip7)" clip-rule="nonzero">
<path style="fill:none;stroke-width:0.3985;stroke-linecap:butt;stroke-linejoin:miter;stroke:rgb(0%,0%,0%);stroke-opacity:1;stroke-miterlimit:10;" d="M 279.040687 31.890921 L 283.025062 15.945609 " transform="matrix(1,0,0,-1,-13.236,66.30889)"/>
</g>
<path style=" stroke:none;fill-rule:nonzero;fill:rgb(0%,0%,0%);fill-opacity:1;" d="M 271.285156 50.363281 C 271.285156 49.539062 270.613281 48.871094 269.789062 48.871094 C 268.964844 48.871094 268.292969 49.539062 268.292969 50.363281 C 268.292969 51.1875 268.964844 51.859375 269.789062 51.859375 C 270.613281 51.859375 271.285156 51.1875 271.285156 50.363281 Z M 271.285156 50.363281 "/>
<path style=" stroke:none;fill-rule:nonzero;fill:rgb(0%,0%,0%);fill-opacity:1;" d="M 360.308594 2.527344 C 360.308594 1.703125 359.640625 1.035156 358.816406 1.035156 C 357.992188 1.035156 357.320312 1.703125 357.320312 2.527344 C 357.320312 3.355469 357.992188 4.023438 358.816406 4.023438 C 359.640625 4.023438 360.308594 3.355469 360.308594 2.527344 Z M 360.308594 2.527344 "/>
<path style="fill:none;stroke-width:0.3985;stroke-linecap:butt;stroke-linejoin:miter;stroke:rgb(0%,0%,0%);stroke-opacity:1;stroke-miterlimit:10;" d="M 372.052406 63.781546 L 356.107094 47.836234 " transform="matrix(1,0,0,-1,-13.236,66.30889)"/>
<path style=" stroke:none;fill-rule:nonzero;fill:rgb(0%,0%,0%);fill-opacity:1;" d="M 344.363281 18.472656 C 344.363281 17.648438 343.695312 16.980469 342.871094 16.980469 C 342.046875 16.980469 341.375 17.648438 341.375 18.472656 C 341.375 19.300781 342.046875 19.96875 342.871094 19.96875 C 343.695312 19.96875 344.363281 19.300781 344.363281 18.472656 Z M 344.363281 18.472656 "/>
<g clip-path="url(#clip8)" clip-rule="nonzero">
<path style="fill:none;stroke-width:0.3985;stroke-linecap:butt;stroke-linejoin:miter;stroke:rgb(0%,0%,0%);stroke-opacity:1;stroke-miterlimit:10;" d="M 372.052406 63.781546 L 387.997719 47.836234 " transform="matrix(1,0,0,-1,-13.236,66.30889)"/>
</g>
<path style=" stroke:none;fill-rule:nonzero;fill:rgb(0%,0%,0%);fill-opacity:1;" d="M 376.253906 18.472656 C 376.253906 17.648438 375.585938 16.980469 374.761719 16.980469 C 373.9375 16.980469 373.265625 17.648438 373.265625 18.472656 C 373.265625 19.300781 373.9375 19.96875 374.761719 19.96875 C 375.585938 19.96875 376.253906 19.300781 376.253906 18.472656 Z M 376.253906 18.472656 "/>
<path style="fill:none;stroke-width:0.3985;stroke-linecap:butt;stroke-linejoin:miter;stroke:rgb(0%,0%,0%);stroke-opacity:1;stroke-miterlimit:10;" d="M 356.107094 47.836234 L 348.134437 31.890921 " transform="matrix(1,0,0,-1,-13.236,66.30889)"/>
<path style=" stroke:none;fill-rule:nonzero;fill:rgb(0%,0%,0%);fill-opacity:1;" d="M 336.394531 34.417969 C 336.394531 33.59375 335.722656 32.925781 334.898438 32.925781 C 334.074219 32.925781 333.402344 33.59375 333.402344 34.417969 C 333.402344 35.242188 334.074219 35.914062 334.898438 35.914062 C 335.722656 35.914062 336.394531 35.242188 336.394531 34.417969 Z M 336.394531 34.417969 "/>
<path style="fill:none;stroke-width:0.3985;stroke-linecap:butt;stroke-linejoin:miter;stroke:rgb(0%,0%,0%);stroke-opacity:1;stroke-miterlimit:10;" d="M 356.107094 47.836234 L 364.07975 31.890921 " transform="matrix(1,0,0,-1,-13.236,66.30889)"/>
<path style=" stroke:none;fill-rule:nonzero;fill:rgb(0%,0%,0%);fill-opacity:1;" d="M 352.335938 34.417969 C 352.335938 33.59375 351.667969 32.925781 350.84375 32.925781 C 350.019531 32.925781 349.347656 33.59375 349.347656 34.417969 C 349.347656 35.242188 350.019531 35.914062 350.84375 35.914062 C 351.667969 35.914062 352.335938 35.242188 352.335938 34.417969 Z M 352.335938 34.417969 "/>
<g clip-path="url(#clip9)" clip-rule="nonzero">
<path style="fill:none;stroke-width:0.3985;stroke-linecap:butt;stroke-linejoin:miter;stroke:rgb(0%,0%,0%);stroke-opacity:1;stroke-miterlimit:10;" d="M 348.134437 31.890921 L 344.146156 15.945609 " transform="matrix(1,0,0,-1,-13.236,66.30889)"/>
</g>
<path style=" stroke:none;fill-rule:nonzero;fill:rgb(0%,0%,0%);fill-opacity:1;" d="M 332.40625 50.363281 C 332.40625 49.539062 331.738281 48.871094 330.910156 48.871094 C 330.085938 48.871094 329.417969 49.539062 329.417969 50.363281 C 329.417969 51.1875 330.085938 51.859375 330.910156 51.859375 C 331.738281 51.859375 332.40625 51.1875 332.40625 50.363281 Z M 332.40625 50.363281 "/>
<g clip-path="url(#clip10)" clip-rule="nonzero">
<path style="fill:none;stroke-width:0.3985;stroke-linecap:butt;stroke-linejoin:miter;stroke:rgb(0%,0%,0%);stroke-opacity:1;stroke-miterlimit:10;" d="M 348.134437 31.890921 L 352.118812 15.945609 " transform="matrix(1,0,0,-1,-13.236,66.30889)"/>
</g>
<path style=" stroke:none;fill-rule:nonzero;fill:rgb(0%,0%,0%);fill-opacity:1;" d="M 340.378906 50.363281 C 340.378906 49.539062 339.710938 48.871094 338.882812 48.871094 C 338.058594 48.871094 337.390625 49.539062 337.390625 50.363281 C 337.390625 51.1875 338.058594 51.859375 338.882812 51.859375 C 339.710938 51.859375 340.378906 51.1875 340.378906 50.363281 Z M 340.378906 50.363281 "/>
</g>
</svg>
