<?xml version="1.0" encoding="UTF-8"?>
<svg xmlns="http://www.w3.org/2000/svg" xmlns:xlink="http://www.w3.org/1999/xlink" width="374.96pt" height="89.30709pt" viewBox="0 0 374.96 89.30709" version="1.1">
<defs>
<clipPath id="clip1">
  <path d="M 364 23 L 374.960938 23 L 374.960938 40 L 364 40 Z M 364 23 "/>
</clipPath>
<clipPath id="clip2">
  <path d="M 337 0 L 374.960938 0 L 374.960938 38 L 337 38 Z M 337 0 "/>
</clipPath>
</defs>
<g id="surface1">
<path style="fill-rule:nonzero;fill:rgb(0%,0%,0%);fill-opacity:1;stroke-width:0.3985;stroke-linecap:butt;stroke-linejoin:miter;stroke:rgb(0%,0%,0%);stroke-opacity:1;stroke-miterlimit:10;" d="M 1.993438 28.346327 C 1.993438 29.44789 1.098906 30.338515 0.00125 30.338515 C -1.100312 30.338515 -1.990937 29.44789 -1.990937 28.346327 C -1.990937 27.244765 -1.100312 26.35414 0.00125 26.35414 C 1.098906 26.35414 1.993438 27.244765 1.993438 28.346327 Z M 1.993438 28.346327 " transform="matrix(1,0,0,-1,3.28,31.57289)"/>
<path style="fill-rule:nonzero;fill:rgb(0%,0%,0%);fill-opacity:1;stroke-width:0.3985;stroke-linecap:butt;stroke-linejoin:miter;stroke:rgb(0%,0%,0%);stroke-opacity:1;stroke-miterlimit:10;" d="M 87.0325 28.346327 C 87.0325 29.44789 86.141875 30.338515 85.040312 30.338515 C 83.93875 30.338515 83.048125 29.44789 83.048125 28.346327 C 83.048125 27.244765 83.93875 26.35414 85.040312 26.35414 C 86.141875 26.35414 87.0325 27.244765 87.0325 28.346327 Z M 87.0325 28.346327 " transform="matrix(1,0,0,-1,3.28,31.57289)"/>
<path style="fill-rule:nonzero;fill:rgb(0%,0%,0%);fill-opacity:1;stroke-width:0.3985;stroke-linecap:butt;stroke-linejoin:miter;stroke:rgb(0%,0%,0%);stroke-opacity:1;stroke-miterlimit:10;" d="M 72.860625 -0.00132875 C 72.860625 1.100234 71.966094 1.990859 70.868437 1.990859 C 69.766875 1.990859 68.87625 1.100234 68.87625 -0.00132875 C 68.87625 -1.098985 69.766875 -1.993516 70.868437 -1.993516 C 71.966094 -1.993516 72.860625 -1.098985 72.860625 -0.00132875 Z M 72.860625 -0.00132875 " transform="matrix(1,0,0,-1,3.28,31.57289)"/>
<path style="fill:none;stroke-width:0.3985;stroke-linecap:butt;stroke-linejoin:miter;stroke:rgb(0%,0%,0%);stroke-opacity:1;stroke-miterlimit:10;" d="M 85.040312 28.346327 L 70.868437 -0.00132875 " transform="matrix(1,0,0,-1,3.28,31.57289)"/>
<path style="fill-rule:nonzero;fill:rgb(0%,0%,0%);fill-opacity:1;stroke-width:0.3985;stroke-linecap:butt;stroke-linejoin:miter;stroke:rgb(0%,0%,0%);stroke-opacity:1;stroke-miterlimit:10;" d="M 115.380156 28.346327 C 115.380156 29.44789 114.489531 30.338515 113.387969 30.338515 C 112.286406 30.338515 111.395781 29.44789 111.395781 28.346327 C 111.395781 27.244765 112.286406 26.35414 113.387969 26.35414 C 114.489531 26.35414 115.380156 27.244765 115.380156 28.346327 Z M 115.380156 28.346327 " transform="matrix(1,0,0,-1,3.28,31.57289)"/>
<path style="fill-rule:nonzero;fill:rgb(0%,0%,0%);fill-opacity:1;stroke-width:0.3985;stroke-linecap:butt;stroke-linejoin:miter;stroke:rgb(0%,0%,0%);stroke-opacity:1;stroke-miterlimit:10;" d="M 130.97 -0.00132875 C 130.97 1.100234 130.079375 1.990859 128.977812 1.990859 C 127.87625 1.990859 126.985625 1.100234 126.985625 -0.00132875 C 126.985625 -1.098985 127.87625 -1.993516 128.977812 -1.993516 C 130.079375 -1.993516 130.97 -1.098985 130.97 -0.00132875 Z M 130.97 -0.00132875 " transform="matrix(1,0,0,-1,3.28,31.57289)"/>
<path style="fill:none;stroke-width:0.3985;stroke-linecap:butt;stroke-linejoin:miter;stroke:rgb(0%,0%,0%);stroke-opacity:1;stroke-miterlimit:10;" d="M 113.387969 28.346327 L 128.977812 -0.00132875 " transform="matrix(1,0,0,-1,3.28,31.57289)"/>
<path style="fill-rule:nonzero;fill:rgb(0%,0%,0%);fill-opacity:1;stroke-width:0.3985;stroke-linecap:butt;stroke-linejoin:miter;stroke:rgb(0%,0%,0%);stroke-opacity:1;stroke-miterlimit:10;" d="M 228.766875 28.346327 C 228.766875 29.44789 227.87625 30.338515 226.774687 30.338515 C 225.673125 30.338515 224.7825 29.44789 224.7825 28.346327 C 224.7825 27.244765 225.673125 26.35414 226.774687 26.35414 C 227.87625 26.35414 228.766875 27.244765 228.766875 28.346327 Z M 228.766875 28.346327 " transform="matrix(1,0,0,-1,3.28,31.57289)"/>
<path style="fill-rule:nonzero;fill:rgb(0%,0%,0%);fill-opacity:1;stroke-width:0.3985;stroke-linecap:butt;stroke-linejoin:miter;stroke:rgb(0%,0%,0%);stroke-opacity:1;stroke-miterlimit:10;" d="M 214.595 -0.00132875 C 214.595 1.100234 213.700469 1.990859 212.602812 1.990859 C 211.50125 1.990859 210.606719 1.100234 210.606719 -0.00132875 C 210.606719 -1.098985 211.50125 -1.993516 212.602812 -1.993516 C 213.700469 -1.993516 214.595 -1.098985 214.595 -0.00132875 Z M 214.595 -0.00132875 " transform="matrix(1,0,0,-1,3.28,31.57289)"/>
<path style="fill-rule:nonzero;fill:rgb(0%,0%,0%);fill-opacity:1;stroke-width:0.3985;stroke-linecap:butt;stroke-linejoin:miter;stroke:rgb(0%,0%,0%);stroke-opacity:1;stroke-miterlimit:10;" d="M 200.419219 -28.345079 C 200.419219 -27.247423 199.528594 -26.352891 198.427031 -26.352891 C 197.325469 -26.352891 196.434844 -27.247423 196.434844 -28.345079 C 196.434844 -29.446641 197.325469 -30.341173 198.427031 -30.341173 C 199.528594 -30.341173 200.419219 -29.446641 200.419219 -28.345079 Z M 200.419219 -28.345079 " transform="matrix(1,0,0,-1,3.28,31.57289)"/>
<path style="fill:none;stroke-width:0.3985;stroke-linecap:butt;stroke-linejoin:miter;stroke:rgb(0%,0%,0%);stroke-opacity:1;stroke-miterlimit:10;" d="M 226.774687 28.346327 L 212.602812 -0.00132875 L 198.427031 -28.345079 " transform="matrix(1,0,0,-1,3.28,31.57289)"/>
<path style="fill-rule:nonzero;fill:rgb(0%,0%,0%);fill-opacity:1;stroke-width:0.3985;stroke-linecap:butt;stroke-linejoin:miter;stroke:rgb(0%,0%,0%);stroke-opacity:1;stroke-miterlimit:10;" d="M 257.114531 28.346327 C 257.114531 29.44789 256.22 30.338515 255.122344 30.338515 C 254.020781 30.338515 253.130156 29.44789 253.130156 28.346327 C 253.130156 27.244765 254.020781 26.35414 255.122344 26.35414 C 256.22 26.35414 257.114531 27.244765 257.114531 28.346327 Z M 257.114531 28.346327 " transform="matrix(1,0,0,-1,3.28,31.57289)"/>
<path style="fill-rule:nonzero;fill:rgb(0%,0%,0%);fill-opacity:1;stroke-width:0.3985;stroke-linecap:butt;stroke-linejoin:miter;stroke:rgb(0%,0%,0%);stroke-opacity:1;stroke-miterlimit:10;" d="M 242.93875 -0.00132875 C 242.93875 1.100234 242.048125 1.990859 240.946562 1.990859 C 239.848906 1.990859 238.954375 1.100234 238.954375 -0.00132875 C 238.954375 -1.098985 239.848906 -1.993516 240.946562 -1.993516 C 242.048125 -1.993516 242.93875 -1.098985 242.93875 -0.00132875 Z M 242.93875 -0.00132875 " transform="matrix(1,0,0,-1,3.28,31.57289)"/>
<path style="fill-rule:nonzero;fill:rgb(0%,0%,0%);fill-opacity:1;stroke-width:0.3985;stroke-linecap:butt;stroke-linejoin:miter;stroke:rgb(0%,0%,0%);stroke-opacity:1;stroke-miterlimit:10;" d="M 250.028594 -28.345079 C 250.028594 -27.247423 249.134062 -26.352891 248.036406 -26.352891 C 246.934844 -26.352891 246.040312 -27.247423 246.040312 -28.345079 C 246.040312 -29.446641 246.934844 -30.341173 248.036406 -30.341173 C 249.134062 -30.341173 250.028594 -29.446641 250.028594 -28.345079 Z M 250.028594 -28.345079 " transform="matrix(1,0,0,-1,3.28,31.57289)"/>
<path style="fill:none;stroke-width:0.3985;stroke-linecap:butt;stroke-linejoin:miter;stroke:rgb(0%,0%,0%);stroke-opacity:1;stroke-miterlimit:10;" d="M 255.122344 28.346327 L 240.946562 -0.00132875 L 248.036406 -28.345079 " transform="matrix(1,0,0,-1,3.28,31.57289)"/>
<path style="fill-rule:nonzero;fill:rgb(0%,0%,0%);fill-opacity:1;stroke-width:0.3985;stroke-linecap:butt;stroke-linejoin:miter;stroke:rgb(0%,0%,0%);stroke-opacity:1;stroke-miterlimit:10;" d="M 285.462188 28.346327 C 285.462188 29.44789 284.567656 30.338515 283.47 30.338515 C 282.368438 30.338515 281.473906 29.44789 281.473906 28.346327 C 281.473906 27.244765 282.368438 26.35414 283.47 26.35414 C 284.567656 26.35414 285.462188 27.244765 285.462188 28.346327 Z M 285.462188 28.346327 " transform="matrix(1,0,0,-1,3.28,31.57289)"/>
<path style="fill-rule:nonzero;fill:rgb(0%,0%,0%);fill-opacity:1;stroke-width:0.3985;stroke-linecap:butt;stroke-linejoin:miter;stroke:rgb(0%,0%,0%);stroke-opacity:1;stroke-miterlimit:10;" d="M 299.634063 -0.00132875 C 299.634063 1.100234 298.743438 1.990859 297.641875 1.990859 C 296.540313 1.990859 295.649688 1.100234 295.649688 -0.00132875 C 295.649688 -1.098985 296.540313 -1.993516 297.641875 -1.993516 C 298.743438 -1.993516 299.634063 -1.098985 299.634063 -0.00132875 Z M 299.634063 -0.00132875 " transform="matrix(1,0,0,-1,3.28,31.57289)"/>
<path style="fill-rule:nonzero;fill:rgb(0%,0%,0%);fill-opacity:1;stroke-width:0.3985;stroke-linecap:butt;stroke-linejoin:miter;stroke:rgb(0%,0%,0%);stroke-opacity:1;stroke-miterlimit:10;" d="M 292.548125 -28.345079 C 292.548125 -27.247423 291.653594 -26.352891 290.555938 -26.352891 C 289.454375 -26.352891 288.56375 -27.247423 288.56375 -28.345079 C 288.56375 -29.446641 289.454375 -30.341173 290.555938 -30.341173 C 291.653594 -30.341173 292.548125 -29.446641 292.548125 -28.345079 Z M 292.548125 -28.345079 " transform="matrix(1,0,0,-1,3.28,31.57289)"/>
<path style="fill:none;stroke-width:0.3985;stroke-linecap:butt;stroke-linejoin:miter;stroke:rgb(0%,0%,0%);stroke-opacity:1;stroke-miterlimit:10;" d="M 283.47 28.346327 L 297.641875 -0.00132875 L 290.555938 -28.345079 " transform="matrix(1,0,0,-1,3.28,31.57289)"/>
<path style="fill-rule:nonzero;fill:rgb(0%,0%,0%);fill-opacity:1;stroke-width:0.3985;stroke-linecap:butt;stroke-linejoin:miter;stroke:rgb(0%,0%,0%);stroke-opacity:1;stroke-miterlimit:10;" d="M 313.805938 28.346327 C 313.805938 29.44789 312.915313 30.338515 311.81375 30.338515 C 310.716094 30.338515 309.821563 29.44789 309.821563 28.346327 C 309.821563 27.244765 310.716094 26.35414 311.81375 26.35414 C 312.915313 26.35414 313.805938 27.244765 313.805938 28.346327 Z M 313.805938 28.346327 " transform="matrix(1,0,0,-1,3.28,31.57289)"/>
<path style="fill-rule:nonzero;fill:rgb(0%,0%,0%);fill-opacity:1;stroke-width:0.3985;stroke-linecap:butt;stroke-linejoin:miter;stroke:rgb(0%,0%,0%);stroke-opacity:1;stroke-miterlimit:10;" d="M 327.981719 -0.00132875 C 327.981719 1.100234 327.087188 1.990859 325.989531 1.990859 C 324.887969 1.990859 323.997344 1.100234 323.997344 -0.00132875 C 323.997344 -1.098985 324.887969 -1.993516 325.989531 -1.993516 C 327.087188 -1.993516 327.981719 -1.098985 327.981719 -0.00132875 Z M 327.981719 -0.00132875 " transform="matrix(1,0,0,-1,3.28,31.57289)"/>
<path style="fill-rule:nonzero;fill:rgb(0%,0%,0%);fill-opacity:1;stroke-width:0.3985;stroke-linecap:butt;stroke-linejoin:miter;stroke:rgb(0%,0%,0%);stroke-opacity:1;stroke-miterlimit:10;" d="M 335.067656 -28.345079 C 335.067656 -27.247423 334.177031 -26.352891 333.075469 -26.352891 C 331.973906 -26.352891 331.083281 -27.247423 331.083281 -28.345079 C 331.083281 -29.446641 331.973906 -30.341173 333.075469 -30.341173 C 334.177031 -30.341173 335.067656 -29.446641 335.067656 -28.345079 Z M 335.067656 -28.345079 " transform="matrix(1,0,0,-1,3.28,31.57289)"/>
<path style="fill:none;stroke-width:0.3985;stroke-linecap:butt;stroke-linejoin:miter;stroke:rgb(0%,0%,0%);stroke-opacity:1;stroke-miterlimit:10;" d="M 311.81375 28.346327 L 325.989531 -0.00132875 L 333.075469 -28.345079 " transform="matrix(1,0,0,-1,3.28,31.57289)"/>
<path style="fill-rule:nonzero;fill:rgb(0%,0%,0%);fill-opacity:1;stroke-width:0.3985;stroke-linecap:butt;stroke-linejoin:miter;stroke:rgb(0%,0%,0%);stroke-opacity:1;stroke-miterlimit:10;" d="M 356.329375 28.346327 C 356.329375 29.44789 355.434844 30.338515 354.333281 30.338515 C 353.235625 30.338515 352.341094 29.44789 352.341094 28.346327 C 352.341094 27.244765 353.235625 26.35414 354.333281 26.35414 C 355.434844 26.35414 356.329375 27.244765 356.329375 28.346327 Z M 356.329375 28.346327 " transform="matrix(1,0,0,-1,3.28,31.57289)"/>
<path style="fill-rule:nonzero;fill:rgb(0%,0%,0%);fill-opacity:1;stroke-width:0.3985;stroke-linecap:butt;stroke-linejoin:miter;stroke:rgb(0%,0%,0%);stroke-opacity:1;stroke-miterlimit:10;" d="M 342.153594 -0.00132875 C 342.153594 1.100234 341.262969 1.990859 340.161406 1.990859 C 339.059844 1.990859 338.169219 1.100234 338.169219 -0.00132875 C 338.169219 -1.098985 339.059844 -1.993516 340.161406 -1.993516 C 341.262969 -1.993516 342.153594 -1.098985 342.153594 -0.00132875 Z M 342.153594 -0.00132875 " transform="matrix(1,0,0,-1,3.28,31.57289)"/>
<path style=" stroke:none;fill-rule:nonzero;fill:rgb(0%,0%,0%);fill-opacity:1;" d="M 373.78125 31.574219 C 373.78125 30.472656 372.890625 29.582031 371.789062 29.582031 C 370.6875 29.582031 369.796875 30.472656 369.796875 31.574219 C 369.796875 32.671875 370.6875 33.566406 371.789062 33.566406 C 372.890625 33.566406 373.78125 32.671875 373.78125 31.574219 Z M 373.78125 31.574219 "/>
<g clip-path="url(#clip1)" clip-rule="nonzero">
<path style="fill:none;stroke-width:0.3985;stroke-linecap:butt;stroke-linejoin:miter;stroke:rgb(0%,0%,0%);stroke-opacity:1;stroke-miterlimit:10;" d="M 370.50125 -0.00132875 C 370.50125 1.100234 369.610625 1.990859 368.509063 1.990859 C 367.4075 1.990859 366.516875 1.100234 366.516875 -0.00132875 C 366.516875 -1.098985 367.4075 -1.993516 368.509063 -1.993516 C 369.610625 -1.993516 370.50125 -1.098985 370.50125 -0.00132875 Z M 370.50125 -0.00132875 " transform="matrix(1,0,0,-1,3.28,31.57289)"/>
</g>
<g clip-path="url(#clip2)" clip-rule="nonzero">
<path style="fill:none;stroke-width:0.3985;stroke-linecap:butt;stroke-linejoin:miter;stroke:rgb(0%,0%,0%);stroke-opacity:1;stroke-miterlimit:10;" d="M 340.161406 -0.00132875 L 354.333281 28.346327 L 368.509063 -0.00132875 " transform="matrix(1,0,0,-1,3.28,31.57289)"/>
</g>
<path style="fill:none;stroke-width:0.3985;stroke-linecap:butt;stroke-linejoin:miter;stroke:rgb(0%,0%,0%);stroke-opacity:1;stroke-miterlimit:10;" d="M 113.387969 -56.692735 L 127.559844 -56.692735 " transform="matrix(1,0,0,-1,3.28,31.57289)"/>
</g>
</svg>
