<?xml version="1.0" encoding="UTF-8"?>
<svg xmlns="http://www.w3.org/2000/svg" xmlns:xlink="http://www.w3.org/1999/xlink" width="263.12pt" height="33.66081pt" viewBox="0 0 263.12 33.66081" version="1.1">
<defs>
<clipPath id="clip1">
  <path d="M 0 15 L 19 15 L 19 33.660156 L 0 33.660156 Z M 0 15 "/>
</clipPath>
<clipPath id="clip2">
  <path d="M 6 15 L 30 15 L 30 33.660156 L 6 33.660156 Z M 6 15 "/>
</clipPath>
<clipPath id="clip3">
  <path d="M 18 15 L 41 15 L 41 33.660156 L 18 33.660156 Z M 18 15 "/>
</clipPath>
<clipPath id="clip4">
  <path d="M 52 15 L 75 15 L 75 33.660156 L 52 33.660156 Z M 52 15 "/>
</clipPath>
<clipPath id="clip5">
  <path d="M 63 15 L 87 15 L 87 33.660156 L 63 33.660156 Z M 63 15 "/>
</clipPath>
<clipPath id="clip6">
  <path d="M 74 15 L 98 15 L 98 33.660156 L 74 33.660156 Z M 74 15 "/>
</clipPath>
<clipPath id="clip7">
  <path d="M 108 15 L 132 15 L 132 33.660156 L 108 33.660156 Z M 108 15 "/>
</clipPath>
<clipPath id="clip8">
  <path d="M 120 15 L 143 15 L 143 33.660156 L 120 33.660156 Z M 120 15 "/>
</clipPath>
<clipPath id="clip9">
  <path d="M 131 15 L 155 15 L 155 33.660156 L 131 33.660156 Z M 131 15 "/>
</clipPath>
<clipPath id="clip10">
  <path d="M 165 15 L 189 15 L 189 33.660156 L 165 33.660156 Z M 165 15 "/>
</clipPath>
<clipPath id="clip11">
  <path d="M 176 15 L 200 15 L 200 33.660156 L 176 33.660156 Z M 176 15 "/>
</clipPath>
<clipPath id="clip12">
  <path d="M 188 15 L 211 15 L 211 33.660156 L 188 33.660156 Z M 188 15 "/>
</clipPath>
<clipPath id="clip13">
  <path d="M 222 15 L 245 15 L 245 33.660156 L 222 33.660156 Z M 222 15 "/>
</clipPath>
<clipPath id="clip14">
  <path d="M 233 15 L 257 15 L 257 33.660156 L 233 33.660156 Z M 233 15 "/>
</clipPath>
<clipPath id="clip15">
  <path d="M 244 15 L 263.121094 15 L 263.121094 33.660156 L 244 33.660156 Z M 244 15 "/>
</clipPath>
</defs>
<g id="surface1">
<g clip-path="url(#clip1)" clip-rule="nonzero">
<path style="fill:none;stroke-width:0.3985;stroke-linecap:butt;stroke-linejoin:miter;stroke:rgb(0%,0%,0%);stroke-opacity:1;stroke-miterlimit:10;" d="M 5.667938 -0.00107875 C 5.667938 3.131734 3.132781 5.670796 -0.00003125 5.670796 C -3.132844 5.670796 -5.668 3.131734 -5.668 -0.00107875 C -5.668 -3.129985 -3.132844 -5.669048 -0.00003125 -5.669048 C 3.132781 -5.669048 5.667938 -3.129985 5.667938 -0.00107875 Z M 5.667938 -0.00107875 " transform="matrix(1,0,0,-1,6.793,26.54189)"/>
</g>
<g clip-path="url(#clip2)" clip-rule="nonzero">
<path style="fill:none;stroke-width:0.3985;stroke-linecap:butt;stroke-linejoin:miter;stroke:rgb(0%,0%,0%);stroke-opacity:1;stroke-miterlimit:10;" d="M 17.007781 -0.00107875 C 17.007781 3.131734 14.468719 5.670796 11.339813 5.670796 C 8.207 5.670796 5.667938 3.131734 5.667938 -0.00107875 C 5.667938 -3.129985 8.207 -5.669048 11.339813 -5.669048 C 14.468719 -5.669048 17.007781 -3.129985 17.007781 -0.00107875 Z M 17.007781 -0.00107875 " transform="matrix(1,0,0,-1,6.793,26.54189)"/>
</g>
<g clip-path="url(#clip3)" clip-rule="nonzero">
<path style="fill:none;stroke-width:0.3985;stroke-linecap:butt;stroke-linejoin:miter;stroke:rgb(0%,0%,0%);stroke-opacity:1;stroke-miterlimit:10;" d="M 28.347625 -0.00107875 C 28.347625 3.131734 25.808563 5.670796 22.67575 5.670796 C 19.546844 5.670796 17.007781 3.131734 17.007781 -0.00107875 C 17.007781 -3.129985 19.546844 -5.669048 22.67575 -5.669048 C 25.808563 -5.669048 28.347625 -3.129985 28.347625 -0.00107875 Z M 28.347625 -0.00107875 " transform="matrix(1,0,0,-1,6.793,26.54189)"/>
</g>
<g clip-path="url(#clip4)" clip-rule="nonzero">
<path style="fill:none;stroke-width:0.3985;stroke-linecap:butt;stroke-linejoin:miter;stroke:rgb(0%,0%,0%);stroke-opacity:1;stroke-miterlimit:10;" d="M 62.36325 -0.00107875 C 62.36325 3.131734 59.824188 5.670796 56.691375 5.670796 C 53.562469 5.670796 51.023406 3.131734 51.023406 -0.00107875 C 51.023406 -3.129985 53.562469 -5.669048 56.691375 -5.669048 C 59.824188 -5.669048 62.36325 -3.129985 62.36325 -0.00107875 Z M 62.36325 -0.00107875 " transform="matrix(1,0,0,-1,6.793,26.54189)"/>
</g>
<g clip-path="url(#clip5)" clip-rule="nonzero">
<path style="fill:none;stroke-width:0.3985;stroke-linecap:butt;stroke-linejoin:miter;stroke:rgb(0%,0%,0%);stroke-opacity:1;stroke-miterlimit:10;" d="M 73.699188 -0.00107875 C 73.699188 3.131734 71.164031 5.670796 68.031219 5.670796 C 64.898406 5.670796 62.36325 3.131734 62.36325 -0.00107875 C 62.36325 -3.129985 64.898406 -5.669048 68.031219 -5.669048 C 71.164031 -5.669048 73.699188 -3.129985 73.699188 -0.00107875 Z M 73.699188 -0.00107875 " transform="matrix(1,0,0,-1,6.793,26.54189)"/>
</g>
<g clip-path="url(#clip6)" clip-rule="nonzero">
<path style="fill:none;stroke-width:0.3985;stroke-linecap:butt;stroke-linejoin:miter;stroke:rgb(0%,0%,0%);stroke-opacity:1;stroke-miterlimit:10;" d="M 85.039031 -0.00107875 C 85.039031 3.131734 82.499969 5.670796 79.371063 5.670796 C 76.23825 5.670796 73.699188 3.131734 73.699188 -0.00107875 C 73.699188 -3.129985 76.23825 -5.669048 79.371063 -5.669048 C 82.499969 -5.669048 85.039031 -3.129985 85.039031 -0.00107875 Z M 85.039031 -0.00107875 " transform="matrix(1,0,0,-1,6.793,26.54189)"/>
</g>
<path style="fill:none;stroke-width:0.3985;stroke-linecap:butt;stroke-linejoin:miter;stroke:rgb(0%,0%,0%);stroke-opacity:1;stroke-miterlimit:10;" d="M 79.371063 9.819234 C 79.371063 12.952046 76.832 15.487202 73.699188 15.487202 C 70.570281 15.487202 68.031219 12.952046 68.031219 9.819234 C 68.031219 6.690327 70.570281 4.151265 73.699188 4.151265 C 76.832 4.151265 79.371063 6.690327 79.371063 9.819234 Z M 79.371063 9.819234 " transform="matrix(1,0,0,-1,6.793,26.54189)"/>
<g clip-path="url(#clip7)" clip-rule="nonzero">
<path style="fill:none;stroke-width:0.3985;stroke-linecap:butt;stroke-linejoin:miter;stroke:rgb(0%,0%,0%);stroke-opacity:1;stroke-miterlimit:10;" d="M 119.054656 -0.00107875 C 119.054656 3.131734 116.515594 5.670796 113.386688 5.670796 C 110.253875 5.670796 107.714813 3.131734 107.714813 -0.00107875 C 107.714813 -3.129985 110.253875 -5.669048 113.386688 -5.669048 C 116.515594 -5.669048 119.054656 -3.129985 119.054656 -0.00107875 Z M 119.054656 -0.00107875 " transform="matrix(1,0,0,-1,6.793,26.54189)"/>
</g>
<g clip-path="url(#clip8)" clip-rule="nonzero">
<path style="fill:none;stroke-width:0.3985;stroke-linecap:butt;stroke-linejoin:miter;stroke:rgb(0%,0%,0%);stroke-opacity:1;stroke-miterlimit:10;" d="M 130.3945 -0.00107875 C 130.3945 3.131734 127.855438 5.670796 124.722625 5.670796 C 121.593719 5.670796 119.054656 3.131734 119.054656 -0.00107875 C 119.054656 -3.129985 121.593719 -5.669048 124.722625 -5.669048 C 127.855438 -5.669048 130.3945 -3.129985 130.3945 -0.00107875 Z M 130.3945 -0.00107875 " transform="matrix(1,0,0,-1,6.793,26.54189)"/>
</g>
<g clip-path="url(#clip9)" clip-rule="nonzero">
<path style="fill:none;stroke-width:0.3985;stroke-linecap:butt;stroke-linejoin:miter;stroke:rgb(0%,0%,0%);stroke-opacity:1;stroke-miterlimit:10;" d="M 141.730437 -0.00107875 C 141.730437 3.131734 139.195281 5.670796 136.062469 5.670796 C 132.929656 5.670796 130.3945 3.131734 130.3945 -0.00107875 C 130.3945 -3.129985 132.929656 -5.669048 136.062469 -5.669048 C 139.195281 -5.669048 141.730437 -3.129985 141.730437 -0.00107875 Z M 141.730437 -0.00107875 " transform="matrix(1,0,0,-1,6.793,26.54189)"/>
</g>
<path style="fill:none;stroke-width:0.3985;stroke-linecap:butt;stroke-linejoin:miter;stroke:rgb(0%,0%,0%);stroke-opacity:1;stroke-miterlimit:10;" d="M 124.722625 9.819234 C 124.722625 12.952046 122.187469 15.487202 119.054656 15.487202 C 115.921844 15.487202 113.386688 12.952046 113.386688 9.819234 C 113.386688 6.690327 115.921844 4.151265 119.054656 4.151265 C 122.187469 4.151265 124.722625 6.690327 124.722625 9.819234 Z M 124.722625 9.819234 " transform="matrix(1,0,0,-1,6.793,26.54189)"/>
<g clip-path="url(#clip10)" clip-rule="nonzero">
<path style="fill:none;stroke-width:0.3985;stroke-linecap:butt;stroke-linejoin:miter;stroke:rgb(0%,0%,0%);stroke-opacity:1;stroke-miterlimit:10;" d="M 175.746062 -0.00107875 C 175.746062 3.131734 173.210906 5.670796 170.078094 5.670796 C 166.945281 5.670796 164.410125 3.131734 164.410125 -0.00107875 C 164.410125 -3.129985 166.945281 -5.669048 170.078094 -5.669048 C 173.210906 -5.669048 175.746062 -3.129985 175.746062 -0.00107875 Z M 175.746062 -0.00107875 " transform="matrix(1,0,0,-1,6.793,26.54189)"/>
</g>
<g clip-path="url(#clip11)" clip-rule="nonzero">
<path style="fill:none;stroke-width:0.3985;stroke-linecap:butt;stroke-linejoin:miter;stroke:rgb(0%,0%,0%);stroke-opacity:1;stroke-miterlimit:10;" d="M 187.085906 -0.00107875 C 187.085906 3.131734 184.546844 5.670796 181.417937 5.670796 C 178.285125 5.670796 175.746062 3.131734 175.746062 -0.00107875 C 175.746062 -3.129985 178.285125 -5.669048 181.417937 -5.669048 C 184.546844 -5.669048 187.085906 -3.129985 187.085906 -0.00107875 Z M 187.085906 -0.00107875 " transform="matrix(1,0,0,-1,6.793,26.54189)"/>
</g>
<g clip-path="url(#clip12)" clip-rule="nonzero">
<path style="fill:none;stroke-width:0.3985;stroke-linecap:butt;stroke-linejoin:miter;stroke:rgb(0%,0%,0%);stroke-opacity:1;stroke-miterlimit:10;" d="M 198.42575 -0.00107875 C 198.42575 3.131734 195.886687 5.670796 192.753875 5.670796 C 189.624969 5.670796 187.085906 3.131734 187.085906 -0.00107875 C 187.085906 -3.129985 189.624969 -5.669048 192.753875 -5.669048 C 195.886687 -5.669048 198.42575 -3.129985 198.42575 -0.00107875 Z M 198.42575 -0.00107875 " transform="matrix(1,0,0,-1,6.793,26.54189)"/>
</g>
<path style="fill:none;stroke-width:0.3985;stroke-linecap:butt;stroke-linejoin:miter;stroke:rgb(0%,0%,0%);stroke-opacity:1;stroke-miterlimit:10;" d="M 181.417937 9.819234 C 181.417937 12.952046 178.878875 15.487202 175.746062 15.487202 C 172.617156 15.487202 170.078094 12.952046 170.078094 9.819234 C 170.078094 6.690327 172.617156 4.151265 175.746062 4.151265 C 178.878875 4.151265 181.417937 6.690327 181.417937 9.819234 Z M 181.417937 9.819234 " transform="matrix(1,0,0,-1,6.793,26.54189)"/>
<path style="fill:none;stroke-width:0.3985;stroke-linecap:butt;stroke-linejoin:miter;stroke:rgb(0%,0%,0%);stroke-opacity:1;stroke-miterlimit:10;" d="M 192.753875 9.819234 C 192.753875 12.952046 190.218719 15.487202 187.085906 15.487202 C 183.953094 15.487202 181.417937 12.952046 181.417937 9.819234 C 181.417937 6.690327 183.953094 4.151265 187.085906 4.151265 C 190.218719 4.151265 192.753875 6.690327 192.753875 9.819234 Z M 192.753875 9.819234 " transform="matrix(1,0,0,-1,6.793,26.54189)"/>
<g clip-path="url(#clip13)" clip-rule="nonzero">
<path style="fill:none;stroke-width:0.3985;stroke-linecap:butt;stroke-linejoin:miter;stroke:rgb(0%,0%,0%);stroke-opacity:1;stroke-miterlimit:10;" d="M 232.441375 -0.00107875 C 232.441375 3.131734 229.902312 5.670796 226.7695 5.670796 C 223.640594 5.670796 221.101531 3.131734 221.101531 -0.00107875 C 221.101531 -3.129985 223.640594 -5.669048 226.7695 -5.669048 C 229.902312 -5.669048 232.441375 -3.129985 232.441375 -0.00107875 Z M 232.441375 -0.00107875 " transform="matrix(1,0,0,-1,6.793,26.54189)"/>
</g>
<g clip-path="url(#clip14)" clip-rule="nonzero">
<path style="fill:none;stroke-width:0.3985;stroke-linecap:butt;stroke-linejoin:miter;stroke:rgb(0%,0%,0%);stroke-opacity:1;stroke-miterlimit:10;" d="M 243.777312 -0.00107875 C 243.777312 3.131734 241.242156 5.670796 238.109344 5.670796 C 234.976531 5.670796 232.441375 3.131734 232.441375 -0.00107875 C 232.441375 -3.129985 234.976531 -5.669048 238.109344 -5.669048 C 241.242156 -5.669048 243.777312 -3.129985 243.777312 -0.00107875 Z M 243.777312 -0.00107875 " transform="matrix(1,0,0,-1,6.793,26.54189)"/>
</g>
<g clip-path="url(#clip15)" clip-rule="nonzero">
<path style="fill:none;stroke-width:0.3985;stroke-linecap:butt;stroke-linejoin:miter;stroke:rgb(0%,0%,0%);stroke-opacity:1;stroke-miterlimit:10;" d="M 255.117156 -0.00107875 C 255.117156 3.131734 252.578094 5.670796 249.449187 5.670796 C 246.316375 5.670796 243.777312 3.131734 243.777312 -0.00107875 C 243.777312 -3.129985 246.316375 -5.669048 249.449187 -5.669048 C 252.578094 -5.669048 255.117156 -3.129985 255.117156 -0.00107875 Z M 255.117156 -0.00107875 " transform="matrix(1,0,0,-1,6.793,26.54189)"/>
</g>
<path style="fill:none;stroke-width:0.3985;stroke-linecap:butt;stroke-linejoin:miter;stroke:rgb(0%,0%,0%);stroke-opacity:1;stroke-miterlimit:10;" d="M 238.109344 9.819234 C 238.109344 12.952046 235.570281 15.487202 232.441375 15.487202 C 229.308562 15.487202 226.7695 12.952046 226.7695 9.819234 C 226.7695 6.690327 229.308562 4.151265 232.441375 4.151265 C 235.570281 4.151265 238.109344 6.690327 238.109344 9.819234 Z M 238.109344 9.819234 " transform="matrix(1,0,0,-1,6.793,26.54189)"/>
<path style="fill:none;stroke-width:0.3985;stroke-linecap:butt;stroke-linejoin:miter;stroke:rgb(0%,0%,0%);stroke-opacity:1;stroke-miterlimit:10;" d="M 249.449187 9.819234 C 249.449187 12.952046 246.910125 15.487202 243.777312 15.487202 C 240.648406 15.487202 238.109344 12.952046 238.109344 9.819234 C 238.109344 6.690327 240.648406 4.151265 243.777312 4.151265 C 246.910125 4.151265 249.449187 6.690327 249.449187 9.819234 Z M 249.449187 9.819234 " transform="matrix(1,0,0,-1,6.793,26.54189)"/>
<path style="fill:none;stroke-width:0.3985;stroke-linecap:butt;stroke-linejoin:miter;stroke:rgb(0%,0%,0%);stroke-opacity:1;stroke-miterlimit:10;" d="M 243.777312 19.639546 C 243.777312 22.768452 241.242156 25.307515 238.109344 25.307515 C 234.976531 25.307515 232.441375 22.768452 232.441375 19.639546 C 232.441375 16.506734 234.976531 13.971577 238.109344 13.971577 C 241.242156 13.971577 243.777312 16.506734 243.777312 19.639546 Z M 243.777312 19.639546 " transform="matrix(1,0,0,-1,6.793,26.54189)"/>
</g>
</svg>
