<?xml version="1.0" encoding="UTF-8"?>
<svg xmlns="http://www.w3.org/2000/svg" xmlns:xlink="http://www.w3.org/1999/xlink" width="90.8pt" height="21.18837pt" viewBox="0 0 90.8 21.18837" version="1.1">
<defs>
<clipPath id="clip1">
  <path d="M 0 5 L 16 5 L 16 21.1875 L 0 21.1875 Z M 0 5 "/>
</clipPath>
<clipPath id="clip2">
  <path d="M 35 5 L 56 5 L 56 21.1875 L 35 21.1875 Z M 35 5 "/>
</clipPath>
<clipPath id="clip3">
  <path d="M 45 5 L 66 5 L 66 21.1875 L 45 21.1875 Z M 45 5 "/>
</clipPath>
<clipPath id="clip4">
  <path d="M 65 5 L 86 5 L 86 21.1875 L 65 21.1875 Z M 65 5 "/>
</clipPath>
<clipPath id="clip5">
  <path d="M 75 5 L 90.800781 5 L 90.800781 21.1875 L 75 21.1875 Z M 75 5 "/>
</clipPath>
<clipPath id="clip6">
  <path d="M 70 0 L 90.800781 0 L 90.800781 16 L 70 16 Z M 70 0 "/>
</clipPath>
</defs>
<g id="surface1">
<path style=" stroke:none;fill-rule:nonzero;fill:rgb(0%,0%,0%);fill-opacity:1;" d="M 10.34375 15.621094 C 10.34375 13.152344 8.34375 11.15625 5.878906 11.15625 C 3.414062 11.15625 1.414062 13.152344 1.414062 15.621094 C 1.414062 18.085938 3.414062 20.085938 5.878906 20.085938 C 8.34375 20.085938 10.34375 18.085938 10.34375 15.621094 Z M 10.34375 15.621094 "/>
<g clip-path="url(#clip1)" clip-rule="nonzero">
<path style="fill:none;stroke-width:0.3985;stroke-linecap:butt;stroke-linejoin:miter;stroke:rgb(0%,0%,0%);stroke-opacity:1;stroke-miterlimit:10;" d="M 4.46475 -0.00120375 C 4.46475 2.467546 2.46475 4.46364 -0.00009375 4.46364 C -2.464937 4.46364 -4.464937 2.467546 -4.464937 -0.00120375 C -4.464937 -2.466048 -2.464937 -4.466048 -0.00009375 -4.466048 C 2.46475 -4.466048 4.46475 -2.466048 4.46475 -0.00120375 Z M 4.46475 -0.00120375 " transform="matrix(1,0,0,-1,5.879,15.61989)"/>
</g>
<path style=" stroke:none;fill-rule:nonzero;fill:rgb(0%,0%,0%);fill-opacity:1;" d="M 50.03125 15.621094 C 50.03125 13.152344 48.03125 11.15625 45.566406 11.15625 C 43.097656 11.15625 41.101562 13.152344 41.101562 15.621094 C 41.101562 18.085938 43.097656 20.085938 45.566406 20.085938 C 48.03125 20.085938 50.03125 18.085938 50.03125 15.621094 Z M 50.03125 15.621094 "/>
<g clip-path="url(#clip2)" clip-rule="nonzero">
<path style="fill:none;stroke-width:0.3985;stroke-linecap:butt;stroke-linejoin:miter;stroke:rgb(0%,0%,0%);stroke-opacity:1;stroke-miterlimit:10;" d="M 44.15225 -0.00120375 C 44.15225 2.467546 42.15225 4.46364 39.687406 4.46364 C 37.218656 4.46364 35.222563 2.467546 35.222563 -0.00120375 C 35.222563 -2.466048 37.218656 -4.466048 39.687406 -4.466048 C 42.15225 -4.466048 44.15225 -2.466048 44.15225 -0.00120375 Z M 44.15225 -0.00120375 " transform="matrix(1,0,0,-1,5.879,15.61989)"/>
</g>
<path style=" stroke:none;fill-rule:nonzero;fill:rgb(0%,0%,0%);fill-opacity:1;" d="M 59.953125 15.621094 C 59.953125 13.152344 57.953125 11.15625 55.488281 11.15625 C 53.019531 11.15625 51.023438 13.152344 51.023438 15.621094 C 51.023438 18.085938 53.019531 20.085938 55.488281 20.085938 C 57.953125 20.085938 59.953125 18.085938 59.953125 15.621094 Z M 59.953125 15.621094 "/>
<g clip-path="url(#clip3)" clip-rule="nonzero">
<path style="fill:none;stroke-width:0.3985;stroke-linecap:butt;stroke-linejoin:miter;stroke:rgb(0%,0%,0%);stroke-opacity:1;stroke-miterlimit:10;" d="M 54.074125 -0.00120375 C 54.074125 2.467546 52.074125 4.46364 49.609281 4.46364 C 47.140531 4.46364 45.144438 2.467546 45.144438 -0.00120375 C 45.144438 -2.466048 47.140531 -4.466048 49.609281 -4.466048 C 52.074125 -4.466048 54.074125 -2.466048 54.074125 -0.00120375 Z M 54.074125 -0.00120375 " transform="matrix(1,0,0,-1,5.879,15.61989)"/>
</g>
<path style=" stroke:none;fill-rule:nonzero;fill:rgb(0%,0%,0%);fill-opacity:1;" d="M 79.792969 15.621094 C 79.792969 13.152344 77.796875 11.15625 75.328125 11.15625 C 72.863281 11.15625 70.867188 13.152344 70.867188 15.621094 C 70.867188 18.085938 72.863281 20.085938 75.328125 20.085938 C 77.796875 20.085938 79.792969 18.085938 79.792969 15.621094 Z M 79.792969 15.621094 "/>
<g clip-path="url(#clip4)" clip-rule="nonzero">
<path style="fill:none;stroke-width:0.3985;stroke-linecap:butt;stroke-linejoin:miter;stroke:rgb(0%,0%,0%);stroke-opacity:1;stroke-miterlimit:10;" d="M 73.913969 -0.00120375 C 73.913969 2.467546 71.917875 4.46364 69.449125 4.46364 C 66.984281 4.46364 64.988188 2.467546 64.988188 -0.00120375 C 64.988188 -2.466048 66.984281 -4.466048 69.449125 -4.466048 C 71.917875 -4.466048 73.913969 -2.466048 73.913969 -0.00120375 Z M 73.913969 -0.00120375 " transform="matrix(1,0,0,-1,5.879,15.61989)"/>
</g>
<path style=" stroke:none;fill-rule:nonzero;fill:rgb(0%,0%,0%);fill-opacity:1;" d="M 89.714844 15.621094 C 89.714844 13.152344 87.71875 11.15625 85.25 11.15625 C 82.785156 11.15625 80.785156 13.152344 80.785156 15.621094 C 80.785156 18.085938 82.785156 20.085938 85.25 20.085938 C 87.71875 20.085938 89.714844 18.085938 89.714844 15.621094 Z M 89.714844 15.621094 "/>
<g clip-path="url(#clip5)" clip-rule="nonzero">
<path style="fill:none;stroke-width:0.3985;stroke-linecap:butt;stroke-linejoin:miter;stroke:rgb(0%,0%,0%);stroke-opacity:1;stroke-miterlimit:10;" d="M 83.835844 -0.00120375 C 83.835844 2.467546 81.83975 4.46364 79.371 4.46364 C 76.906156 4.46364 74.906156 2.467546 74.906156 -0.00120375 C 74.906156 -2.466048 76.906156 -4.466048 79.371 -4.466048 C 81.83975 -4.466048 83.835844 -2.466048 83.835844 -0.00120375 Z M 83.835844 -0.00120375 " transform="matrix(1,0,0,-1,5.879,15.61989)"/>
</g>
<path style=" stroke:none;fill-rule:nonzero;fill:rgb(0%,0%,0%);fill-opacity:1;" d="M 84.753906 5.699219 C 84.753906 3.234375 82.757812 1.234375 80.289062 1.234375 C 77.824219 1.234375 75.824219 3.234375 75.824219 5.699219 C 75.824219 8.164062 77.824219 10.164062 80.289062 10.164062 C 82.757812 10.164062 84.753906 8.164062 84.753906 5.699219 Z M 84.753906 5.699219 "/>
<g clip-path="url(#clip6)" clip-rule="nonzero">
<path style="fill:none;stroke-width:0.3985;stroke-linecap:butt;stroke-linejoin:miter;stroke:rgb(0%,0%,0%);stroke-opacity:1;stroke-miterlimit:10;" d="M 78.874906 9.920671 C 78.874906 12.385515 76.878813 14.385515 74.410063 14.385515 C 71.945219 14.385515 69.945219 12.385515 69.945219 9.920671 C 69.945219 7.455827 71.945219 5.455827 74.410063 5.455827 C 76.878813 5.455827 78.874906 7.455827 78.874906 9.920671 Z M 78.874906 9.920671 " transform="matrix(1,0,0,-1,5.879,15.61989)"/>
</g>
</g>
</svg>
