<?xml version="1.0" encoding="UTF-8"?>
<svg xmlns="http://www.w3.org/2000/svg" xmlns:xlink="http://www.w3.org/1999/xlink" width="138.8pt" height="104.65779pt" viewBox="0 0 138.8 104.65779" version="1.1">
<defs>
<clipPath id="clip1">
  <path d="M 86 0 L 138.800781 0 L 138.800781 104.65625 L 86 104.65625 Z M 86 0 "/>
</clipPath>
</defs>
<g id="surface1">
<path style="fill:none;stroke-width:0.3985;stroke-linecap:butt;stroke-linejoin:miter;stroke:rgb(0%,0%,0%);stroke-opacity:1;stroke-miterlimit:10;" d="M 22.678531 0.0000775 C 22.678531 21.918046 12.526188 39.687577 -0.00115625 39.687577 C -12.524594 39.687577 -22.676937 21.918046 -22.676937 0.0000775 C -22.676937 -21.917891 -12.524594 -39.687423 -0.00115625 -39.687423 C 12.526188 -39.687423 22.678531 -21.917891 22.678531 0.0000775 Z M 22.678531 0.0000775 " transform="matrix(1,0,0,-1,24.091,52.25789)"/>
<path style="fill:none;stroke-width:0.3985;stroke-linecap:butt;stroke-linejoin:miter;stroke:rgb(0%,0%,0%);stroke-opacity:1;stroke-miterlimit:10;" d="M 5.635563 22.675859 C 5.635563 25.78914 3.112125 28.312577 -0.00115625 28.312577 C -3.114437 28.312577 -5.633969 25.78914 -5.633969 22.675859 C -5.633969 19.566484 -3.114437 17.043046 -0.00115625 17.043046 C 3.112125 17.043046 5.635563 19.566484 5.635563 22.675859 Z M 5.635563 22.675859 " transform="matrix(1,0,0,-1,24.091,52.25789)"/>
<path style="fill:none;stroke-width:0.3985;stroke-linecap:butt;stroke-linejoin:miter;stroke:rgb(0%,0%,0%);stroke-opacity:1;stroke-miterlimit:10;" d="M 5.635563 0.0000775 C 5.635563 3.113359 3.112125 5.636796 -0.00115625 5.636796 C -3.114437 5.636796 -5.633969 3.113359 -5.633969 0.0000775 C -5.633969 -3.113204 -3.114437 -5.636641 -0.00115625 -5.636641 C 3.112125 -5.636641 5.635563 -3.113204 5.635563 0.0000775 Z M 5.635563 0.0000775 " transform="matrix(1,0,0,-1,24.091,52.25789)"/>
<path style="fill:none;stroke-width:0.3985;stroke-linecap:butt;stroke-linejoin:miter;stroke:rgb(0%,0%,0%);stroke-opacity:1;stroke-miterlimit:10;" d="M 5.635563 -22.675704 C 5.635563 -19.566329 3.112125 -17.042891 -0.00115625 -17.042891 C -3.114437 -17.042891 -5.633969 -19.566329 -5.633969 -22.675704 C -5.633969 -25.788985 -3.114437 -28.312423 -0.00115625 -28.312423 C 3.112125 -28.312423 5.635563 -25.788985 5.635563 -22.675704 Z M 5.635563 -22.675704 " transform="matrix(1,0,0,-1,24.091,52.25789)"/>
<g clip-path="url(#clip1)" clip-rule="nonzero">
<path style="fill:none;stroke-width:0.3985;stroke-linecap:butt;stroke-linejoin:miter;stroke:rgb(0%,0%,0%);stroke-opacity:1;stroke-miterlimit:10;" d="M 113.389469 0.0000775 C 113.389469 28.179765 103.233219 51.023515 90.709781 51.023515 C 78.186344 51.023515 68.034 28.179765 68.034 0.0000775 C 68.034 -28.17961 78.186344 -51.02336 90.709781 -51.02336 C 103.233219 -51.02336 113.389469 -28.17961 113.389469 0.0000775 Z M 113.389469 0.0000775 " transform="matrix(1,0,0,-1,24.091,52.25789)"/>
</g>
<path style="fill:none;stroke-width:0.3985;stroke-linecap:butt;stroke-linejoin:miter;stroke:rgb(0%,0%,0%);stroke-opacity:1;stroke-miterlimit:10;" d="M 96.3465 34.015702 C 96.3465 37.128984 93.823063 39.652421 90.709781 39.652421 C 87.5965 39.652421 85.073063 37.128984 85.073063 34.015702 C 85.073063 30.902421 87.5965 28.378984 90.709781 28.378984 C 93.823063 28.378984 96.3465 30.902421 96.3465 34.015702 Z M 96.3465 34.015702 " transform="matrix(1,0,0,-1,24.091,52.25789)"/>
<path style="fill:none;stroke-width:0.3985;stroke-linecap:butt;stroke-linejoin:miter;stroke:rgb(0%,0%,0%);stroke-opacity:1;stroke-miterlimit:10;" d="M 96.3465 11.339921 C 96.3465 14.453202 93.823063 16.972734 90.709781 16.972734 C 87.5965 16.972734 85.073063 14.453202 85.073063 11.339921 C 85.073063 8.22664 87.5965 5.703202 90.709781 5.703202 C 93.823063 5.703202 96.3465 8.22664 96.3465 11.339921 Z M 96.3465 11.339921 " transform="matrix(1,0,0,-1,24.091,52.25789)"/>
<path style="fill:none;stroke-width:0.3985;stroke-linecap:butt;stroke-linejoin:miter;stroke:rgb(0%,0%,0%);stroke-opacity:1;stroke-miterlimit:10;" d="M 96.3465 -11.339766 C 96.3465 -8.226485 93.823063 -5.703048 90.709781 -5.703048 C 87.5965 -5.703048 85.073063 -8.226485 85.073063 -11.339766 C 85.073063 -14.453048 87.5965 -16.972579 90.709781 -16.972579 C 93.823063 -16.972579 96.3465 -14.453048 96.3465 -11.339766 Z M 96.3465 -11.339766 " transform="matrix(1,0,0,-1,24.091,52.25789)"/>
<path style="fill:none;stroke-width:0.3985;stroke-linecap:butt;stroke-linejoin:miter;stroke:rgb(0%,0%,0%);stroke-opacity:1;stroke-miterlimit:10;" d="M 96.3465 -34.015548 C 96.3465 -30.902266 93.823063 -28.378829 90.709781 -28.378829 C 87.5965 -28.378829 85.073063 -30.902266 85.073063 -34.015548 C 85.073063 -37.128829 87.5965 -39.652266 90.709781 -39.652266 C 93.823063 -39.652266 96.3465 -37.128829 96.3465 -34.015548 Z M 96.3465 -34.015548 " transform="matrix(1,0,0,-1,24.091,52.25789)"/>
<path style="fill:none;stroke-width:1.19553;stroke-linecap:butt;stroke-linejoin:miter;stroke:rgb(0%,0%,0%);stroke-opacity:1;stroke-miterlimit:10;" d="M 5.670719 22.675859 L 80.4715 14.250077 " transform="matrix(1,0,0,-1,24.091,52.25789)"/>
<path style=" stroke:none;fill-rule:nonzero;fill:rgb(0%,0%,0%);fill-opacity:1;" d="M 110.265625 38.652344 C 108.609375 38.144531 105.972656 36.882812 104.195312 35.558594 L 103.660156 40.3125 C 105.6875 39.417969 108.539062 38.777344 110.265625 38.652344 "/>
<path style="fill:none;stroke-width:1.19553;stroke-linecap:butt;stroke-linejoin:miter;stroke:rgb(0%,0%,0%);stroke-opacity:1;stroke-miterlimit:10;" d="M 5.670719 0.0000775 L 80.4715 -8.42961 " transform="matrix(1,0,0,-1,24.091,52.25789)"/>
<path style=" stroke:none;fill-rule:nonzero;fill:rgb(0%,0%,0%);fill-opacity:1;" d="M 110.265625 61.328125 C 108.609375 60.820312 105.972656 59.5625 104.195312 58.238281 L 103.660156 62.992188 C 105.6875 62.097656 108.539062 61.457031 110.265625 61.328125 "/>
<path style="fill:none;stroke-width:1.19553;stroke-linecap:butt;stroke-linejoin:miter;stroke:rgb(0%,0%,0%);stroke-opacity:1;stroke-miterlimit:10;" d="M 5.670719 -22.675704 L 79.358219 -33.203048 " transform="matrix(1,0,0,-1,24.091,52.25789)"/>
<path style=" stroke:none;fill-rule:nonzero;fill:rgb(0%,0%,0%);fill-opacity:1;" d="M 109.132812 86.273438 C 107.492188 85.71875 104.890625 84.378906 103.15625 83.003906 L 102.480469 87.738281 C 104.53125 86.90625 107.402344 86.347656 109.132812 86.273438 "/>
</g>
</svg>
