<?xml version="1.0" encoding="UTF-8"?>
<svg xmlns="http://www.w3.org/2000/svg" xmlns:xlink="http://www.w3.org/1999/xlink" width="155.6pt" height="87.38825pt" viewBox="0 0 155.6 87.38825" version="1.1">
<defs>
<clipPath id="clip1">
  <path d="M 59 0 L 97 0 L 97 87.386719 L 59 87.386719 Z M 59 0 "/>
</clipPath>
<clipPath id="clip2">
  <path d="M 123 0 L 155.601562 0 L 155.601562 71 L 123 71 Z M 123 0 "/>
</clipPath>
</defs>
<g id="surface1">
<path style="fill:none;stroke-width:0.3985;stroke-linecap:butt;stroke-linejoin:miter;stroke:rgb(0%,0%,0%);stroke-opacity:1;stroke-miterlimit:10;" d="M 12.755781 10.629172 C 12.755781 28.242454 7.044844 42.519797 0.001875 42.519797 C -7.045 42.519797 -12.755937 28.242454 -12.755937 10.629172 C -12.755937 -6.984109 -7.045 -21.261453 0.001875 -21.261453 C 7.044844 -21.261453 12.755781 -6.984109 12.755781 10.629172 Z M 12.755781 10.629172 " transform="matrix(1,0,0,-1,14.17,43.77761)"/>
<path style=" stroke:none;fill-rule:nonzero;fill:rgb(0%,0%,0%);fill-opacity:1;" d="M 16.296875 22.515625 C 16.296875 21.34375 15.34375 20.390625 14.171875 20.390625 C 12.996094 20.390625 12.042969 21.34375 12.042969 22.515625 C 12.042969 23.691406 12.996094 24.644531 14.171875 24.644531 C 15.34375 24.644531 16.296875 23.691406 16.296875 22.515625 Z M 16.296875 22.515625 "/>
<path style=" stroke:none;fill-rule:nonzero;fill:rgb(0%,0%,0%);fill-opacity:1;" d="M 16.296875 43.777344 C 16.296875 42.601562 15.34375 41.652344 14.171875 41.652344 C 12.996094 41.652344 12.042969 42.601562 12.042969 43.777344 C 12.042969 44.953125 12.996094 45.902344 14.171875 45.902344 C 15.34375 45.902344 16.296875 44.953125 16.296875 43.777344 Z M 16.296875 43.777344 "/>
<g clip-path="url(#clip1)" clip-rule="nonzero">
<path style="fill:none;stroke-width:0.3985;stroke-linecap:butt;stroke-linejoin:miter;stroke:rgb(0%,0%,0%);stroke-opacity:1;stroke-miterlimit:10;" d="M 76.537031 0.00026625 C 76.537031 23.484641 70.826094 42.519797 63.779219 42.519797 C 56.73625 42.519797 51.025313 23.484641 51.025313 0.00026625 C 51.025313 -23.484109 56.73625 -42.519265 63.779219 -42.519265 C 70.826094 -42.519265 76.537031 -23.484109 76.537031 0.00026625 Z M 76.537031 0.00026625 " transform="matrix(1,0,0,-1,14.17,43.77761)"/>
</g>
<path style=" stroke:none;fill-rule:nonzero;fill:rgb(0%,0%,0%);fill-opacity:1;" d="M 80.078125 22.515625 C 80.078125 21.34375 79.125 20.390625 77.949219 20.390625 C 76.777344 20.390625 75.824219 21.34375 75.824219 22.515625 C 75.824219 23.691406 76.777344 24.644531 77.949219 24.644531 C 79.125 24.644531 80.078125 23.691406 80.078125 22.515625 Z M 80.078125 22.515625 "/>
<path style=" stroke:none;fill-rule:nonzero;fill:rgb(0%,0%,0%);fill-opacity:1;" d="M 80.078125 43.777344 C 80.078125 42.601562 79.125 41.652344 77.949219 41.652344 C 76.777344 41.652344 75.824219 42.601562 75.824219 43.777344 C 75.824219 44.953125 76.777344 45.902344 77.949219 45.902344 C 79.125 45.902344 80.078125 44.953125 80.078125 43.777344 Z M 80.078125 43.777344 "/>
<path style=" stroke:none;fill-rule:nonzero;fill:rgb(0%,0%,0%);fill-opacity:1;" d="M 80.078125 65.039062 C 80.078125 63.863281 79.125 62.910156 77.949219 62.910156 C 76.777344 62.910156 75.824219 63.863281 75.824219 65.039062 C 75.824219 66.210938 76.777344 67.164062 77.949219 67.164062 C 79.125 67.164062 80.078125 66.210938 80.078125 65.039062 Z M 80.078125 65.039062 "/>
<path style="fill:none;stroke-width:0.3985;stroke-linecap:butt;stroke-linejoin:miter;stroke:rgb(0%,0%,0%);stroke-opacity:1;stroke-miterlimit:10;" d="M 0.001875 21.261985 L 55.943281 21.261985 " transform="matrix(1,0,0,-1,14.17,43.77761)"/>
<path style=" stroke:none;fill-rule:nonzero;fill:rgb(0%,0%,0%);fill-opacity:1;" d="M 73.699219 22.515625 C 72.636719 22.316406 70.910156 21.71875 69.714844 21.023438 L 69.714844 24.011719 C 70.910156 23.316406 72.636719 22.714844 73.699219 22.515625 "/>
<path style="fill:none;stroke-width:0.3985;stroke-linecap:butt;stroke-linejoin:miter;stroke:rgb(0%,0%,0%);stroke-opacity:1;stroke-miterlimit:10;" d="M 0.001875 0.00026625 L 55.943281 0.00026625 " transform="matrix(1,0,0,-1,14.17,43.77761)"/>
<path style=" stroke:none;fill-rule:nonzero;fill:rgb(0%,0%,0%);fill-opacity:1;" d="M 73.699219 43.777344 C 72.636719 43.578125 70.910156 42.980469 69.714844 42.285156 L 69.714844 45.273438 C 70.910156 44.574219 72.636719 43.976562 73.699219 43.777344 "/>
<g clip-path="url(#clip2)" clip-rule="nonzero">
<path style="fill:none;stroke-width:0.3985;stroke-linecap:butt;stroke-linejoin:miter;stroke:rgb(0%,0%,0%);stroke-opacity:1;stroke-miterlimit:10;" d="M 140.318281 10.629172 C 140.318281 28.242454 134.607344 42.519797 127.560469 42.519797 C 120.513594 42.519797 114.802656 28.242454 114.802656 10.629172 C 114.802656 -6.984109 120.513594 -21.261453 127.560469 -21.261453 C 134.607344 -21.261453 140.318281 -6.984109 140.318281 10.629172 Z M 140.318281 10.629172 " transform="matrix(1,0,0,-1,14.17,43.77761)"/>
</g>
<path style=" stroke:none;fill-rule:nonzero;fill:rgb(0%,0%,0%);fill-opacity:1;" d="M 143.855469 22.515625 C 143.855469 21.34375 142.90625 20.390625 141.730469 20.390625 C 140.554688 20.390625 139.605469 21.34375 139.605469 22.515625 C 139.605469 23.691406 140.554688 24.644531 141.730469 24.644531 C 142.90625 24.644531 143.855469 23.691406 143.855469 22.515625 Z M 143.855469 22.515625 "/>
<path style=" stroke:none;fill-rule:nonzero;fill:rgb(0%,0%,0%);fill-opacity:1;" d="M 143.855469 43.777344 C 143.855469 42.601562 142.90625 41.652344 141.730469 41.652344 C 140.554688 41.652344 139.605469 42.601562 139.605469 43.777344 C 139.605469 44.953125 140.554688 45.902344 141.730469 45.902344 C 142.90625 45.902344 143.855469 44.953125 143.855469 43.777344 Z M 143.855469 43.777344 "/>
<path style="fill:none;stroke-width:0.3985;stroke-linecap:butt;stroke-linejoin:miter;stroke:rgb(0%,0%,0%);stroke-opacity:1;stroke-miterlimit:10;" d="M 63.779219 21.261985 L 119.720625 21.261985 " transform="matrix(1,0,0,-1,14.17,43.77761)"/>
<path style=" stroke:none;fill-rule:nonzero;fill:rgb(0%,0%,0%);fill-opacity:1;" d="M 137.476562 22.515625 C 136.414062 22.316406 134.6875 21.71875 133.492188 21.023438 L 133.492188 24.011719 C 134.6875 23.316406 136.414062 22.714844 137.476562 22.515625 "/>
<path style="fill:none;stroke-width:0.3985;stroke-linecap:butt;stroke-linejoin:miter;stroke:rgb(0%,0%,0%);stroke-opacity:1;stroke-miterlimit:10;" d="M 63.779219 0.00026625 L 119.720625 0.00026625 " transform="matrix(1,0,0,-1,14.17,43.77761)"/>
<path style=" stroke:none;fill-rule:nonzero;fill:rgb(0%,0%,0%);fill-opacity:1;" d="M 137.476562 43.777344 C 136.414062 43.578125 134.6875 42.980469 133.492188 42.285156 L 133.492188 45.273438 C 134.6875 44.574219 136.414062 43.976562 137.476562 43.777344 "/>
<path style="fill:none;stroke-width:0.3985;stroke-linecap:butt;stroke-linejoin:miter;stroke:rgb(0%,0%,0%);stroke-opacity:1;stroke-miterlimit:10;" d="M 63.779219 -21.261453 L 119.853438 -5.238015 " transform="matrix(1,0,0,-1,14.17,43.77761)"/>
<path style=" stroke:none;fill-rule:nonzero;fill:rgb(0%,0%,0%);fill-opacity:1;" d="M 137.476562 48.03125 C 136.398438 48.128906 134.574219 48.03125 133.230469 47.6875 L 134.050781 50.566406 C 135.011719 49.566406 136.511719 48.515625 137.476562 48.03125 "/>
</g>
</svg>
