<?xml version="1.0" encoding="UTF-8"?>
<svg xmlns="http://www.w3.org/2000/svg" xmlns:xlink="http://www.w3.org/1999/xlink" width="100.88pt" height="31.26227pt" viewBox="0 0 100.88 31.26227" version="1.1">
<defs>
<clipPath id="clip1">
  <path d="M 0 15 L 16 15 L 16 31.261719 L 0 31.261719 Z M 0 15 "/>
</clipPath>
<clipPath id="clip2">
  <path d="M 5 15 L 26 15 L 26 31.261719 L 5 31.261719 Z M 5 15 "/>
</clipPath>
<clipPath id="clip3">
  <path d="M 15 15 L 36 15 L 36 31.261719 L 15 31.261719 Z M 15 15 "/>
</clipPath>
<clipPath id="clip4">
  <path d="M 25 15 L 46 15 L 46 31.261719 L 25 31.261719 Z M 25 15 "/>
</clipPath>
<clipPath id="clip5">
  <path d="M 35 15 L 56 15 L 56 31.261719 L 35 31.261719 Z M 35 15 "/>
</clipPath>
<clipPath id="clip6">
  <path d="M 45 15 L 66 15 L 66 31.261719 L 45 31.261719 Z M 45 15 "/>
</clipPath>
<clipPath id="clip7">
  <path d="M 55 15 L 76 15 L 76 31.261719 L 55 31.261719 Z M 55 15 "/>
</clipPath>
<clipPath id="clip8">
  <path d="M 65 15 L 86 15 L 86 31.261719 L 65 31.261719 Z M 65 15 "/>
</clipPath>
<clipPath id="clip9">
  <path d="M 75 15 L 96 15 L 96 31.261719 L 75 31.261719 Z M 75 15 "/>
</clipPath>
<clipPath id="clip10">
  <path d="M 85 15 L 100.878906 15 L 100.878906 31.261719 L 85 31.261719 Z M 85 15 "/>
</clipPath>
</defs>
<g id="surface1">
<path style=" stroke:none;fill-rule:nonzero;fill:rgb(0%,0%,0%);fill-opacity:1;" d="M 10.34375 25.542969 C 10.34375 23.074219 8.34375 21.078125 5.878906 21.078125 C 3.414062 21.078125 1.414062 23.074219 1.414062 25.542969 C 1.414062 28.007812 3.414062 30.007812 5.878906 30.007812 C 8.34375 30.007812 10.34375 28.007812 10.34375 25.542969 Z M 10.34375 25.542969 "/>
<g clip-path="url(#clip1)" clip-rule="nonzero">
<path style="fill:none;stroke-width:0.3985;stroke-linecap:butt;stroke-linejoin:miter;stroke:rgb(0%,0%,0%);stroke-opacity:1;stroke-miterlimit:10;" d="M 14.38675 -0.00107875 C 14.38675 2.467671 12.38675 4.463765 9.921906 4.463765 C 7.457063 4.463765 5.457063 2.467671 5.457063 -0.00107875 C 5.457063 -2.465923 7.457063 -4.465923 9.921906 -4.465923 C 12.38675 -4.465923 14.38675 -2.465923 14.38675 -0.00107875 Z M 14.38675 -0.00107875 " transform="matrix(1,0,0,-1,-4.043,25.54189)"/>
</g>
<path style=" stroke:none;fill-rule:nonzero;fill:rgb(0%,0%,0%);fill-opacity:1;" d="M 20.265625 25.542969 C 20.265625 23.074219 18.265625 21.078125 15.800781 21.078125 C 13.335938 21.078125 11.335938 23.074219 11.335938 25.542969 C 11.335938 28.007812 13.335938 30.007812 15.800781 30.007812 C 18.265625 30.007812 20.265625 28.007812 20.265625 25.542969 Z M 20.265625 25.542969 "/>
<g clip-path="url(#clip2)" clip-rule="nonzero">
<path style="fill:none;stroke-width:0.3985;stroke-linecap:butt;stroke-linejoin:miter;stroke:rgb(0%,0%,0%);stroke-opacity:1;stroke-miterlimit:10;" d="M 24.308625 -0.00107875 C 24.308625 2.467671 22.308625 4.463765 19.843781 4.463765 C 17.378938 4.463765 15.378938 2.467671 15.378938 -0.00107875 C 15.378938 -2.465923 17.378938 -4.465923 19.843781 -4.465923 C 22.308625 -4.465923 24.308625 -2.465923 24.308625 -0.00107875 Z M 24.308625 -0.00107875 " transform="matrix(1,0,0,-1,-4.043,25.54189)"/>
</g>
<path style=" stroke:none;fill-rule:nonzero;fill:rgb(0%,0%,0%);fill-opacity:1;" d="M 30.1875 25.542969 C 30.1875 23.074219 28.1875 21.078125 25.722656 21.078125 C 23.257812 21.078125 21.257812 23.074219 21.257812 25.542969 C 21.257812 28.007812 23.257812 30.007812 25.722656 30.007812 C 28.1875 30.007812 30.1875 28.007812 30.1875 25.542969 Z M 30.1875 25.542969 "/>
<g clip-path="url(#clip3)" clip-rule="nonzero">
<path style="fill:none;stroke-width:0.3985;stroke-linecap:butt;stroke-linejoin:miter;stroke:rgb(0%,0%,0%);stroke-opacity:1;stroke-miterlimit:10;" d="M 34.2305 -0.00107875 C 34.2305 2.467671 32.2305 4.463765 29.765656 4.463765 C 27.300813 4.463765 25.300813 2.467671 25.300813 -0.00107875 C 25.300813 -2.465923 27.300813 -4.465923 29.765656 -4.465923 C 32.2305 -4.465923 34.2305 -2.465923 34.2305 -0.00107875 Z M 34.2305 -0.00107875 " transform="matrix(1,0,0,-1,-4.043,25.54189)"/>
</g>
<path style=" stroke:none;fill-rule:nonzero;fill:rgb(0%,0%,0%);fill-opacity:1;" d="M 40.109375 25.542969 C 40.109375 23.074219 38.109375 21.078125 35.644531 21.078125 C 33.175781 21.078125 31.179688 23.074219 31.179688 25.542969 C 31.179688 28.007812 33.175781 30.007812 35.644531 30.007812 C 38.109375 30.007812 40.109375 28.007812 40.109375 25.542969 Z M 40.109375 25.542969 "/>
<g clip-path="url(#clip4)" clip-rule="nonzero">
<path style="fill:none;stroke-width:0.3985;stroke-linecap:butt;stroke-linejoin:miter;stroke:rgb(0%,0%,0%);stroke-opacity:1;stroke-miterlimit:10;" d="M 44.152375 -0.00107875 C 44.152375 2.467671 42.152375 4.463765 39.687531 4.463765 C 37.218781 4.463765 35.222688 2.467671 35.222688 -0.00107875 C 35.222688 -2.465923 37.218781 -4.465923 39.687531 -4.465923 C 42.152375 -4.465923 44.152375 -2.465923 44.152375 -0.00107875 Z M 44.152375 -0.00107875 " transform="matrix(1,0,0,-1,-4.043,25.54189)"/>
</g>
<path style=" stroke:none;fill-rule:nonzero;fill:rgb(0%,0%,0%);fill-opacity:1;" d="M 50.03125 25.542969 C 50.03125 23.074219 48.03125 21.078125 45.566406 21.078125 C 43.097656 21.078125 41.101562 23.074219 41.101562 25.542969 C 41.101562 28.007812 43.097656 30.007812 45.566406 30.007812 C 48.03125 30.007812 50.03125 28.007812 50.03125 25.542969 Z M 50.03125 25.542969 "/>
<g clip-path="url(#clip5)" clip-rule="nonzero">
<path style="fill:none;stroke-width:0.3985;stroke-linecap:butt;stroke-linejoin:miter;stroke:rgb(0%,0%,0%);stroke-opacity:1;stroke-miterlimit:10;" d="M 54.07425 -0.00107875 C 54.07425 2.467671 52.07425 4.463765 49.609406 4.463765 C 47.140656 4.463765 45.144563 2.467671 45.144563 -0.00107875 C 45.144563 -2.465923 47.140656 -4.465923 49.609406 -4.465923 C 52.07425 -4.465923 54.07425 -2.465923 54.07425 -0.00107875 Z M 54.07425 -0.00107875 " transform="matrix(1,0,0,-1,-4.043,25.54189)"/>
</g>
<path style=" stroke:none;fill-rule:nonzero;fill:rgb(0%,0%,0%);fill-opacity:1;" d="M 59.949219 25.542969 C 59.949219 23.074219 57.953125 21.078125 55.488281 21.078125 C 53.019531 21.078125 51.023438 23.074219 51.023438 25.542969 C 51.023438 28.007812 53.019531 30.007812 55.488281 30.007812 C 57.953125 30.007812 59.949219 28.007812 59.949219 25.542969 Z M 59.949219 25.542969 "/>
<g clip-path="url(#clip6)" clip-rule="nonzero">
<path style="fill:none;stroke-width:0.3985;stroke-linecap:butt;stroke-linejoin:miter;stroke:rgb(0%,0%,0%);stroke-opacity:1;stroke-miterlimit:10;" d="M 63.992219 -0.00107875 C 63.992219 2.467671 61.996125 4.463765 59.531281 4.463765 C 57.062531 4.463765 55.066438 2.467671 55.066438 -0.00107875 C 55.066438 -2.465923 57.062531 -4.465923 59.531281 -4.465923 C 61.996125 -4.465923 63.992219 -2.465923 63.992219 -0.00107875 Z M 63.992219 -0.00107875 " transform="matrix(1,0,0,-1,-4.043,25.54189)"/>
</g>
<path style=" stroke:none;fill-rule:nonzero;fill:rgb(0%,0%,0%);fill-opacity:1;" d="M 69.871094 25.542969 C 69.871094 23.074219 67.875 21.078125 65.40625 21.078125 C 62.941406 21.078125 60.941406 23.074219 60.941406 25.542969 C 60.941406 28.007812 62.941406 30.007812 65.40625 30.007812 C 67.875 30.007812 69.871094 28.007812 69.871094 25.542969 Z M 69.871094 25.542969 "/>
<g clip-path="url(#clip7)" clip-rule="nonzero">
<path style="fill:none;stroke-width:0.3985;stroke-linecap:butt;stroke-linejoin:miter;stroke:rgb(0%,0%,0%);stroke-opacity:1;stroke-miterlimit:10;" d="M 73.914094 -0.00107875 C 73.914094 2.467671 71.918 4.463765 69.44925 4.463765 C 66.984406 4.463765 64.984406 2.467671 64.984406 -0.00107875 C 64.984406 -2.465923 66.984406 -4.465923 69.44925 -4.465923 C 71.918 -4.465923 73.914094 -2.465923 73.914094 -0.00107875 Z M 73.914094 -0.00107875 " transform="matrix(1,0,0,-1,-4.043,25.54189)"/>
</g>
<path style=" stroke:none;fill-rule:nonzero;fill:rgb(0%,0%,0%);fill-opacity:1;" d="M 79.792969 25.542969 C 79.792969 23.074219 77.796875 21.078125 75.328125 21.078125 C 72.863281 21.078125 70.863281 23.074219 70.863281 25.542969 C 70.863281 28.007812 72.863281 30.007812 75.328125 30.007812 C 77.796875 30.007812 79.792969 28.007812 79.792969 25.542969 Z M 79.792969 25.542969 "/>
<g clip-path="url(#clip8)" clip-rule="nonzero">
<path style="fill:none;stroke-width:0.3985;stroke-linecap:butt;stroke-linejoin:miter;stroke:rgb(0%,0%,0%);stroke-opacity:1;stroke-miterlimit:10;" d="M 83.835969 -0.00107875 C 83.835969 2.467671 81.839875 4.463765 79.371125 4.463765 C 76.906281 4.463765 74.906281 2.467671 74.906281 -0.00107875 C 74.906281 -2.465923 76.906281 -4.465923 79.371125 -4.465923 C 81.839875 -4.465923 83.835969 -2.465923 83.835969 -0.00107875 Z M 83.835969 -0.00107875 " transform="matrix(1,0,0,-1,-4.043,25.54189)"/>
</g>
<path style=" stroke:none;fill-rule:nonzero;fill:rgb(0%,0%,0%);fill-opacity:1;" d="M 89.714844 25.542969 C 89.714844 23.074219 87.714844 21.078125 85.25 21.078125 C 82.785156 21.078125 80.785156 23.074219 80.785156 25.542969 C 80.785156 28.007812 82.785156 30.007812 85.25 30.007812 C 87.714844 30.007812 89.714844 28.007812 89.714844 25.542969 Z M 89.714844 25.542969 "/>
<g clip-path="url(#clip9)" clip-rule="nonzero">
<path style="fill:none;stroke-width:0.3985;stroke-linecap:butt;stroke-linejoin:miter;stroke:rgb(0%,0%,0%);stroke-opacity:1;stroke-miterlimit:10;" d="M 93.757844 -0.00107875 C 93.757844 2.467671 91.757844 4.463765 89.293 4.463765 C 86.828156 4.463765 84.828156 2.467671 84.828156 -0.00107875 C 84.828156 -2.465923 86.828156 -4.465923 89.293 -4.465923 C 91.757844 -4.465923 93.757844 -2.465923 93.757844 -0.00107875 Z M 93.757844 -0.00107875 " transform="matrix(1,0,0,-1,-4.043,25.54189)"/>
</g>
<path style=" stroke:none;fill-rule:nonzero;fill:rgb(0%,0%,0%);fill-opacity:1;" d="M 99.636719 25.542969 C 99.636719 23.074219 97.636719 21.078125 95.171875 21.078125 C 92.707031 21.078125 90.707031 23.074219 90.707031 25.542969 C 90.707031 28.007812 92.707031 30.007812 95.171875 30.007812 C 97.636719 30.007812 99.636719 28.007812 99.636719 25.542969 Z M 99.636719 25.542969 "/>
<g clip-path="url(#clip10)" clip-rule="nonzero">
<path style="fill:none;stroke-width:0.3985;stroke-linecap:butt;stroke-linejoin:miter;stroke:rgb(0%,0%,0%);stroke-opacity:1;stroke-miterlimit:10;" d="M 103.679719 -0.00107875 C 103.679719 2.467671 101.679719 4.463765 99.214875 4.463765 C 96.750031 4.463765 94.750031 2.467671 94.750031 -0.00107875 C 94.750031 -2.465923 96.750031 -4.465923 99.214875 -4.465923 C 101.679719 -4.465923 103.679719 -2.465923 103.679719 -0.00107875 Z M 103.679719 -0.00107875 " transform="matrix(1,0,0,-1,-4.043,25.54189)"/>
</g>
<path style="fill-rule:nonzero;fill:rgb(0%,0%,0%);fill-opacity:1;stroke-width:0.3985;stroke-linecap:butt;stroke-linejoin:miter;stroke:rgb(0%,0%,0%);stroke-opacity:1;stroke-miterlimit:10;" d="M 29.269563 9.920796 C 29.269563 12.38564 27.269563 14.38564 24.804719 14.38564 C 22.339875 14.38564 20.339875 12.38564 20.339875 9.920796 C 20.339875 7.455952 22.339875 5.455952 24.804719 5.455952 C 27.269563 5.455952 29.269563 7.455952 29.269563 9.920796 Z M 29.269563 9.920796 " transform="matrix(1,0,0,-1,-4.043,25.54189)"/>
<path style="fill-rule:nonzero;fill:rgb(0%,0%,0%);fill-opacity:1;stroke-width:0.3985;stroke-linecap:butt;stroke-linejoin:miter;stroke:rgb(0%,0%,0%);stroke-opacity:1;stroke-miterlimit:10;" d="M 39.191438 9.920796 C 39.191438 12.38564 37.191438 14.38564 34.726594 14.38564 C 32.257844 14.38564 30.26175 12.38564 30.26175 9.920796 C 30.26175 7.455952 32.257844 5.455952 34.726594 5.455952 C 37.191438 5.455952 39.191438 7.455952 39.191438 9.920796 Z M 39.191438 9.920796 " transform="matrix(1,0,0,-1,-4.043,25.54189)"/>
<path style="fill-rule:nonzero;fill:rgb(0%,0%,0%);fill-opacity:1;stroke-width:0.3985;stroke-linecap:butt;stroke-linejoin:miter;stroke:rgb(0%,0%,0%);stroke-opacity:1;stroke-miterlimit:10;" d="M 49.113313 9.920796 C 49.113313 12.38564 47.113313 14.38564 44.648469 14.38564 C 42.179719 14.38564 40.183625 12.38564 40.183625 9.920796 C 40.183625 7.455952 42.179719 5.455952 44.648469 5.455952 C 47.113313 5.455952 49.113313 7.455952 49.113313 9.920796 Z M 49.113313 9.920796 " transform="matrix(1,0,0,-1,-4.043,25.54189)"/>
<path style="fill-rule:nonzero;fill:rgb(0%,0%,0%);fill-opacity:1;stroke-width:0.3985;stroke-linecap:butt;stroke-linejoin:miter;stroke:rgb(0%,0%,0%);stroke-opacity:1;stroke-miterlimit:10;" d="M 59.031281 9.920796 C 59.031281 12.38564 57.035188 14.38564 54.570344 14.38564 C 52.101594 14.38564 50.1055 12.38564 50.1055 9.920796 C 50.1055 7.455952 52.101594 5.455952 54.570344 5.455952 C 57.035188 5.455952 59.031281 7.455952 59.031281 9.920796 Z M 59.031281 9.920796 " transform="matrix(1,0,0,-1,-4.043,25.54189)"/>
<path style="fill-rule:nonzero;fill:rgb(0%,0%,0%);fill-opacity:1;stroke-width:0.3985;stroke-linecap:butt;stroke-linejoin:miter;stroke:rgb(0%,0%,0%);stroke-opacity:1;stroke-miterlimit:10;" d="M 68.953156 9.920796 C 68.953156 12.38564 66.957063 14.38564 64.488313 14.38564 C 62.023469 14.38564 60.027375 12.38564 60.027375 9.920796 C 60.027375 7.455952 62.023469 5.455952 64.488313 5.455952 C 66.957063 5.455952 68.953156 7.455952 68.953156 9.920796 Z M 68.953156 9.920796 " transform="matrix(1,0,0,-1,-4.043,25.54189)"/>
<path style="fill-rule:nonzero;fill:rgb(0%,0%,0%);fill-opacity:1;stroke-width:0.3985;stroke-linecap:butt;stroke-linejoin:miter;stroke:rgb(0%,0%,0%);stroke-opacity:1;stroke-miterlimit:10;" d="M 78.875031 9.920796 C 78.875031 12.38564 76.878938 14.38564 74.410188 14.38564 C 71.945344 14.38564 69.945344 12.38564 69.945344 9.920796 C 69.945344 7.455952 71.945344 5.455952 74.410188 5.455952 C 76.878938 5.455952 78.875031 7.455952 78.875031 9.920796 Z M 78.875031 9.920796 " transform="matrix(1,0,0,-1,-4.043,25.54189)"/>
<path style="fill-rule:nonzero;fill:rgb(0%,0%,0%);fill-opacity:1;stroke-width:0.3985;stroke-linecap:butt;stroke-linejoin:miter;stroke:rgb(0%,0%,0%);stroke-opacity:1;stroke-miterlimit:10;" d="M 54.07425 19.842671 C 54.07425 22.307515 52.07425 24.307515 49.609406 24.307515 C 47.140656 24.307515 45.144563 22.307515 45.144563 19.842671 C 45.144563 17.377827 47.140656 15.377827 49.609406 15.377827 C 52.07425 15.377827 54.07425 17.377827 54.07425 19.842671 Z M 54.07425 19.842671 " transform="matrix(1,0,0,-1,-4.043,25.54189)"/>
<path style="fill-rule:nonzero;fill:rgb(0%,0%,0%);fill-opacity:1;stroke-width:0.3985;stroke-linecap:butt;stroke-linejoin:miter;stroke:rgb(0%,0%,0%);stroke-opacity:1;stroke-miterlimit:10;" d="M 63.992219 19.842671 C 63.992219 22.307515 61.996125 24.307515 59.531281 24.307515 C 57.062531 24.307515 55.066438 22.307515 55.066438 19.842671 C 55.066438 17.377827 57.062531 15.377827 59.531281 15.377827 C 61.996125 15.377827 63.992219 17.377827 63.992219 19.842671 Z M 63.992219 19.842671 " transform="matrix(1,0,0,-1,-4.043,25.54189)"/>
</g>
</svg>
