<?xml version="1.0" encoding="UTF-8"?>
<svg xmlns="http://www.w3.org/2000/svg" xmlns:xlink="http://www.w3.org/1999/xlink" width="406.16pt" height="41.33616pt" viewBox="0 0 406.16 41.33616" version="1.1">
<defs>
<clipPath id="clip1">
  <path d="M 231 0 L 296 0 L 296 41.335938 L 231 41.335938 Z M 231 0 "/>
</clipPath>
<clipPath id="clip2">
  <path d="M 259 0 L 333 0 L 333 41.335938 L 259 41.335938 Z M 259 0 "/>
</clipPath>
<clipPath id="clip3">
  <path d="M 250 0 L 343 0 L 343 41.335938 L 250 41.335938 Z M 250 0 "/>
</clipPath>
<clipPath id="clip4">
  <path d="M 315 0 L 389 0 L 389 41.335938 L 315 41.335938 Z M 315 0 "/>
</clipPath>
<clipPath id="clip5">
  <path d="M 362 0 L 406.160156 0 L 406.160156 41.335938 L 362 41.335938 Z M 362 0 "/>
</clipPath>
<clipPath id="clip6">
  <path d="M 334 0 L 406.160156 0 L 406.160156 41.335938 L 334 41.335938 Z M 334 0 "/>
</clipPath>
</defs>
<g id="surface1">
<path style="fill:none;stroke-width:0.3985;stroke-linecap:butt;stroke-linejoin:miter;stroke:rgb(0%,0%,0%);stroke-opacity:1;stroke-miterlimit:10;" d="M 0.0000625 -0.00011 L 0.0000625 37.417859 " transform="matrix(1,0,0,-1,1.414,39.24989)"/>
<path style="fill:none;stroke-width:0.3985;stroke-linecap:butt;stroke-linejoin:miter;stroke:rgb(0%,0%,0%);stroke-opacity:1;stroke-miterlimit:10;" d="M 9.355531 -0.00011 L 9.355531 37.417859 " transform="matrix(1,0,0,-1,1.414,39.24989)"/>
<path style="fill:none;stroke-width:0.3985;stroke-linecap:butt;stroke-linejoin:miter;stroke:rgb(0%,0%,0%);stroke-opacity:1;stroke-miterlimit:10;" d="M 18.707094 -0.00011 L 18.707094 37.417859 " transform="matrix(1,0,0,-1,1.414,39.24989)"/>
<path style="fill:none;stroke-width:0.3985;stroke-linecap:butt;stroke-linejoin:miter;stroke:rgb(0%,0%,0%);stroke-opacity:1;stroke-miterlimit:10;" d="M 28.062563 -0.00011 L 28.062563 37.417859 " transform="matrix(1,0,0,-1,1.414,39.24989)"/>
<path style="fill:none;stroke-width:0.3985;stroke-linecap:butt;stroke-linejoin:miter;stroke:rgb(0%,0%,0%);stroke-opacity:1;stroke-miterlimit:10;" d="M 37.418031 -0.00011 L 37.418031 37.417859 " transform="matrix(1,0,0,-1,1.414,39.24989)"/>
<path style="fill:none;stroke-width:0.3985;stroke-linecap:butt;stroke-linejoin:miter;stroke:rgb(0%,0%,0%);stroke-opacity:1;stroke-miterlimit:10;" d="M 46.7735 -0.00011 L 46.7735 37.417859 " transform="matrix(1,0,0,-1,1.414,39.24989)"/>
<path style="fill:none;stroke-width:0.3985;stroke-linecap:butt;stroke-linejoin:miter;stroke:rgb(0%,0%,0%);stroke-opacity:1;stroke-miterlimit:10;" d="M 56.125063 -0.00011 L 56.125063 37.417859 " transform="matrix(1,0,0,-1,1.414,39.24989)"/>
<path style="fill:none;stroke-width:0.3985;stroke-linecap:butt;stroke-linejoin:miter;stroke:rgb(0%,0%,0%);stroke-opacity:1;stroke-miterlimit:10;" d="M 65.480531 -0.00011 L 65.480531 37.417859 " transform="matrix(1,0,0,-1,1.414,39.24989)"/>
<path style="fill:none;stroke-width:0.3985;stroke-linecap:butt;stroke-linejoin:miter;stroke:rgb(0%,0%,0%);stroke-opacity:1;stroke-miterlimit:10;" d="M 0.0000625 -0.00011 L 65.480531 -0.00011 " transform="matrix(1,0,0,-1,1.414,39.24989)"/>
<path style="fill:none;stroke-width:0.3985;stroke-linecap:butt;stroke-linejoin:miter;stroke:rgb(0%,0%,0%);stroke-opacity:1;stroke-miterlimit:10;" d="M 0.0000625 9.355359 L 65.480531 9.355359 " transform="matrix(1,0,0,-1,1.414,39.24989)"/>
<path style="fill:none;stroke-width:0.3985;stroke-linecap:butt;stroke-linejoin:miter;stroke:rgb(0%,0%,0%);stroke-opacity:1;stroke-miterlimit:10;" d="M 0.0000625 18.710827 L 65.480531 18.710827 " transform="matrix(1,0,0,-1,1.414,39.24989)"/>
<path style="fill:none;stroke-width:0.3985;stroke-linecap:butt;stroke-linejoin:miter;stroke:rgb(0%,0%,0%);stroke-opacity:1;stroke-miterlimit:10;" d="M 0.0000625 28.06239 L 65.480531 28.06239 " transform="matrix(1,0,0,-1,1.414,39.24989)"/>
<path style="fill:none;stroke-width:0.3985;stroke-linecap:butt;stroke-linejoin:miter;stroke:rgb(0%,0%,0%);stroke-opacity:1;stroke-miterlimit:10;" d="M 0.0000625 37.417859 L 65.480531 37.417859 " transform="matrix(1,0,0,-1,1.414,39.24989)"/>
<path style="fill:none;stroke-width:0.3985;stroke-linecap:butt;stroke-linejoin:miter;stroke:rgb(0%,0%,0%);stroke-opacity:1;stroke-miterlimit:10;" d="M 84.191469 -0.00011 L 84.191469 37.417859 " transform="matrix(1,0,0,-1,1.414,39.24989)"/>
<path style="fill:none;stroke-width:0.3985;stroke-linecap:butt;stroke-linejoin:miter;stroke:rgb(0%,0%,0%);stroke-opacity:1;stroke-miterlimit:10;" d="M 93.543031 -0.00011 L 93.543031 37.417859 " transform="matrix(1,0,0,-1,1.414,39.24989)"/>
<path style="fill:none;stroke-width:0.3985;stroke-linecap:butt;stroke-linejoin:miter;stroke:rgb(0%,0%,0%);stroke-opacity:1;stroke-miterlimit:10;" d="M 102.8985 -0.00011 L 102.8985 37.417859 " transform="matrix(1,0,0,-1,1.414,39.24989)"/>
<path style="fill:none;stroke-width:0.3985;stroke-linecap:butt;stroke-linejoin:miter;stroke:rgb(0%,0%,0%);stroke-opacity:1;stroke-miterlimit:10;" d="M 112.253969 -0.00011 L 112.253969 37.417859 " transform="matrix(1,0,0,-1,1.414,39.24989)"/>
<path style="fill:none;stroke-width:0.3985;stroke-linecap:butt;stroke-linejoin:miter;stroke:rgb(0%,0%,0%);stroke-opacity:1;stroke-miterlimit:10;" d="M 121.609438 -0.00011 L 121.609438 37.417859 " transform="matrix(1,0,0,-1,1.414,39.24989)"/>
<path style="fill:none;stroke-width:0.3985;stroke-linecap:butt;stroke-linejoin:miter;stroke:rgb(0%,0%,0%);stroke-opacity:1;stroke-miterlimit:10;" d="M 130.964906 -0.00011 L 130.964906 37.417859 " transform="matrix(1,0,0,-1,1.414,39.24989)"/>
<path style="fill:none;stroke-width:0.3985;stroke-linecap:butt;stroke-linejoin:miter;stroke:rgb(0%,0%,0%);stroke-opacity:1;stroke-miterlimit:10;" d="M 140.316469 -0.00011 L 140.316469 37.417859 " transform="matrix(1,0,0,-1,1.414,39.24989)"/>
<path style="fill:none;stroke-width:0.3985;stroke-linecap:butt;stroke-linejoin:miter;stroke:rgb(0%,0%,0%);stroke-opacity:1;stroke-miterlimit:10;" d="M 149.671938 -0.00011 L 149.671938 37.417859 " transform="matrix(1,0,0,-1,1.414,39.24989)"/>
<path style="fill:none;stroke-width:0.3985;stroke-linecap:butt;stroke-linejoin:miter;stroke:rgb(0%,0%,0%);stroke-opacity:1;stroke-miterlimit:10;" d="M 84.191469 -0.00011 L 149.671938 -0.00011 " transform="matrix(1,0,0,-1,1.414,39.24989)"/>
<path style="fill:none;stroke-width:1.59404;stroke-linecap:butt;stroke-linejoin:miter;stroke:rgb(0%,0%,0%);stroke-opacity:1;stroke-miterlimit:10;" d="M 84.191469 37.417859 L 112.253969 37.417859 L 112.253969 28.06239 L 84.191469 28.06239 Z M 84.191469 37.417859 " transform="matrix(1,0,0,-1,1.414,39.24989)"/>
<path style="fill:none;stroke-width:1.59404;stroke-linecap:butt;stroke-linejoin:miter;stroke:rgb(0%,0%,0%);stroke-opacity:1;stroke-miterlimit:10;" d="M 130.964906 28.06239 L 149.671938 28.06239 L 149.671938 9.355359 L 130.964906 9.355359 Z M 130.964906 28.06239 " transform="matrix(1,0,0,-1,1.414,39.24989)"/>
<path style="fill:none;stroke-width:1.59404;stroke-linecap:butt;stroke-linejoin:miter;stroke:rgb(0%,0%,0%);stroke-opacity:1;stroke-miterlimit:10;" d="M 93.543031 18.710827 L 121.609438 18.710827 L 121.609438 -0.00011 L 93.543031 -0.00011 Z M 93.543031 18.710827 " transform="matrix(1,0,0,-1,1.414,39.24989)"/>
<path style="fill:none;stroke-width:0.3985;stroke-linecap:butt;stroke-linejoin:miter;stroke:rgb(0%,0%,0%);stroke-opacity:1;stroke-miterlimit:10;" d="M 84.191469 9.355359 L 149.671938 9.355359 " transform="matrix(1,0,0,-1,1.414,39.24989)"/>
<path style="fill:none;stroke-width:1.59404;stroke-linecap:butt;stroke-linejoin:miter;stroke:rgb(0%,0%,0%);stroke-opacity:1;stroke-miterlimit:10;" d="M 84.191469 37.417859 L 112.253969 37.417859 L 112.253969 28.06239 L 84.191469 28.06239 Z M 84.191469 37.417859 " transform="matrix(1,0,0,-1,1.414,39.24989)"/>
<path style="fill:none;stroke-width:1.59404;stroke-linecap:butt;stroke-linejoin:miter;stroke:rgb(0%,0%,0%);stroke-opacity:1;stroke-miterlimit:10;" d="M 130.964906 28.06239 L 149.671938 28.06239 L 149.671938 9.355359 L 130.964906 9.355359 Z M 130.964906 28.06239 " transform="matrix(1,0,0,-1,1.414,39.24989)"/>
<path style="fill:none;stroke-width:1.59404;stroke-linecap:butt;stroke-linejoin:miter;stroke:rgb(0%,0%,0%);stroke-opacity:1;stroke-miterlimit:10;" d="M 93.543031 18.710827 L 121.609438 18.710827 L 121.609438 -0.00011 L 93.543031 -0.00011 Z M 93.543031 18.710827 " transform="matrix(1,0,0,-1,1.414,39.24989)"/>
<path style="fill:none;stroke-width:0.3985;stroke-linecap:butt;stroke-linejoin:miter;stroke:rgb(0%,0%,0%);stroke-opacity:1;stroke-miterlimit:10;" d="M 84.191469 18.710827 L 149.671938 18.710827 " transform="matrix(1,0,0,-1,1.414,39.24989)"/>
<path style="fill:none;stroke-width:1.59404;stroke-linecap:butt;stroke-linejoin:miter;stroke:rgb(0%,0%,0%);stroke-opacity:1;stroke-miterlimit:10;" d="M 84.191469 37.417859 L 112.253969 37.417859 L 112.253969 28.06239 L 84.191469 28.06239 Z M 84.191469 37.417859 " transform="matrix(1,0,0,-1,1.414,39.24989)"/>
<path style="fill:none;stroke-width:1.59404;stroke-linecap:butt;stroke-linejoin:miter;stroke:rgb(0%,0%,0%);stroke-opacity:1;stroke-miterlimit:10;" d="M 130.964906 28.06239 L 149.671938 28.06239 L 149.671938 9.355359 L 130.964906 9.355359 Z M 130.964906 28.06239 " transform="matrix(1,0,0,-1,1.414,39.24989)"/>
<path style="fill:none;stroke-width:1.59404;stroke-linecap:butt;stroke-linejoin:miter;stroke:rgb(0%,0%,0%);stroke-opacity:1;stroke-miterlimit:10;" d="M 93.543031 18.710827 L 121.609438 18.710827 L 121.609438 -0.00011 L 93.543031 -0.00011 Z M 93.543031 18.710827 " transform="matrix(1,0,0,-1,1.414,39.24989)"/>
<path style="fill:none;stroke-width:0.3985;stroke-linecap:butt;stroke-linejoin:miter;stroke:rgb(0%,0%,0%);stroke-opacity:1;stroke-miterlimit:10;" d="M 84.191469 28.06239 L 149.671938 28.06239 " transform="matrix(1,0,0,-1,1.414,39.24989)"/>
<path style="fill:none;stroke-width:1.59404;stroke-linecap:butt;stroke-linejoin:miter;stroke:rgb(0%,0%,0%);stroke-opacity:1;stroke-miterlimit:10;" d="M 84.191469 37.417859 L 112.253969 37.417859 L 112.253969 28.06239 L 84.191469 28.06239 Z M 84.191469 37.417859 " transform="matrix(1,0,0,-1,1.414,39.24989)"/>
<path style="fill:none;stroke-width:1.59404;stroke-linecap:butt;stroke-linejoin:miter;stroke:rgb(0%,0%,0%);stroke-opacity:1;stroke-miterlimit:10;" d="M 130.964906 28.06239 L 149.671938 28.06239 L 149.671938 9.355359 L 130.964906 9.355359 Z M 130.964906 28.06239 " transform="matrix(1,0,0,-1,1.414,39.24989)"/>
<path style="fill:none;stroke-width:1.59404;stroke-linecap:butt;stroke-linejoin:miter;stroke:rgb(0%,0%,0%);stroke-opacity:1;stroke-miterlimit:10;" d="M 93.543031 18.710827 L 121.609438 18.710827 L 121.609438 -0.00011 L 93.543031 -0.00011 Z M 93.543031 18.710827 " transform="matrix(1,0,0,-1,1.414,39.24989)"/>
<path style="fill:none;stroke-width:0.3985;stroke-linecap:butt;stroke-linejoin:miter;stroke:rgb(0%,0%,0%);stroke-opacity:1;stroke-miterlimit:10;" d="M 84.191469 37.417859 L 149.671938 37.417859 " transform="matrix(1,0,0,-1,1.414,39.24989)"/>
<path style="fill:none;stroke-width:1.59404;stroke-linecap:butt;stroke-linejoin:miter;stroke:rgb(0%,0%,0%);stroke-opacity:1;stroke-miterlimit:10;" d="M 84.191469 37.417859 L 112.253969 37.417859 L 112.253969 28.06239 L 84.191469 28.06239 Z M 84.191469 37.417859 " transform="matrix(1,0,0,-1,1.414,39.24989)"/>
<path style="fill:none;stroke-width:1.59404;stroke-linecap:butt;stroke-linejoin:miter;stroke:rgb(0%,0%,0%);stroke-opacity:1;stroke-miterlimit:10;" d="M 130.964906 28.06239 L 149.671938 28.06239 L 149.671938 9.355359 L 130.964906 9.355359 Z M 130.964906 28.06239 " transform="matrix(1,0,0,-1,1.414,39.24989)"/>
<path style="fill:none;stroke-width:1.59404;stroke-linecap:butt;stroke-linejoin:miter;stroke:rgb(0%,0%,0%);stroke-opacity:1;stroke-miterlimit:10;" d="M 93.543031 18.710827 L 121.609438 18.710827 L 121.609438 -0.00011 L 93.543031 -0.00011 Z M 93.543031 18.710827 " transform="matrix(1,0,0,-1,1.414,39.24989)"/>
<path style="fill:none;stroke-width:0.3985;stroke-linecap:butt;stroke-linejoin:miter;stroke:rgb(0%,0%,0%);stroke-opacity:1;stroke-miterlimit:10;" d="M 168.382875 -0.00011 L 168.382875 37.417859 " transform="matrix(1,0,0,-1,1.414,39.24989)"/>
<path style="fill:none;stroke-width:0.3985;stroke-linecap:butt;stroke-linejoin:miter;stroke:rgb(0%,0%,0%);stroke-opacity:1;stroke-miterlimit:10;" d="M 177.734438 -0.00011 L 177.734438 37.417859 " transform="matrix(1,0,0,-1,1.414,39.24989)"/>
<path style="fill:none;stroke-width:0.3985;stroke-linecap:butt;stroke-linejoin:miter;stroke:rgb(0%,0%,0%);stroke-opacity:1;stroke-miterlimit:10;" d="M 187.089906 -0.00011 L 187.089906 37.417859 " transform="matrix(1,0,0,-1,1.414,39.24989)"/>
<path style="fill:none;stroke-width:0.3985;stroke-linecap:butt;stroke-linejoin:miter;stroke:rgb(0%,0%,0%);stroke-opacity:1;stroke-miterlimit:10;" d="M 196.445375 -0.00011 L 196.445375 37.417859 " transform="matrix(1,0,0,-1,1.414,39.24989)"/>
<path style="fill:none;stroke-width:0.3985;stroke-linecap:butt;stroke-linejoin:miter;stroke:rgb(0%,0%,0%);stroke-opacity:1;stroke-miterlimit:10;" d="M 205.800844 -0.00011 L 205.800844 37.417859 " transform="matrix(1,0,0,-1,1.414,39.24989)"/>
<path style="fill:none;stroke-width:0.3985;stroke-linecap:butt;stroke-linejoin:miter;stroke:rgb(0%,0%,0%);stroke-opacity:1;stroke-miterlimit:10;" d="M 215.152406 -0.00011 L 215.152406 37.417859 " transform="matrix(1,0,0,-1,1.414,39.24989)"/>
<path style="fill:none;stroke-width:0.3985;stroke-linecap:butt;stroke-linejoin:miter;stroke:rgb(0%,0%,0%);stroke-opacity:1;stroke-miterlimit:10;" d="M 224.507875 -0.00011 L 224.507875 37.417859 " transform="matrix(1,0,0,-1,1.414,39.24989)"/>
<path style="fill:none;stroke-width:0.3985;stroke-linecap:butt;stroke-linejoin:miter;stroke:rgb(0%,0%,0%);stroke-opacity:1;stroke-miterlimit:10;" d="M 233.863344 -0.00011 L 233.863344 37.417859 " transform="matrix(1,0,0,-1,1.414,39.24989)"/>
<path style="fill:none;stroke-width:0.3985;stroke-linecap:butt;stroke-linejoin:miter;stroke:rgb(0%,0%,0%);stroke-opacity:1;stroke-miterlimit:10;" d="M 168.382875 -0.00011 L 233.863344 -0.00011 " transform="matrix(1,0,0,-1,1.414,39.24989)"/>
<path style="fill:none;stroke-width:0.3985;stroke-linecap:butt;stroke-linejoin:miter;stroke:rgb(0%,0%,0%);stroke-opacity:1;stroke-miterlimit:10;" d="M 168.382875 9.355359 L 233.863344 9.355359 " transform="matrix(1,0,0,-1,1.414,39.24989)"/>
<path style="fill:none;stroke-width:0.3985;stroke-linecap:butt;stroke-linejoin:miter;stroke:rgb(0%,0%,0%);stroke-opacity:1;stroke-miterlimit:10;" d="M 168.382875 18.710827 L 233.863344 18.710827 " transform="matrix(1,0,0,-1,1.414,39.24989)"/>
<path style="fill:none;stroke-width:0.3985;stroke-linecap:butt;stroke-linejoin:miter;stroke:rgb(0%,0%,0%);stroke-opacity:1;stroke-miterlimit:10;" d="M 168.382875 28.06239 L 233.863344 28.06239 " transform="matrix(1,0,0,-1,1.414,39.24989)"/>
<path style="fill:none;stroke-width:0.3985;stroke-linecap:butt;stroke-linejoin:miter;stroke:rgb(0%,0%,0%);stroke-opacity:1;stroke-miterlimit:10;" d="M 168.382875 37.417859 L 233.863344 37.417859 " transform="matrix(1,0,0,-1,1.414,39.24989)"/>
<path style="fill:none;stroke-width:1.59404;stroke-linecap:butt;stroke-linejoin:miter;stroke:rgb(0%,0%,0%);stroke-opacity:1;stroke-miterlimit:10;" d="M 168.382875 -0.00011 L 233.863344 -0.00011 L 233.863344 9.355359 L 168.382875 9.355359 Z M 168.382875 -0.00011 " transform="matrix(1,0,0,-1,1.414,39.24989)"/>
<path style="fill:none;stroke-width:1.59404;stroke-linecap:butt;stroke-linejoin:miter;stroke:rgb(0%,0%,0%);stroke-opacity:1;stroke-miterlimit:10;" d="M 177.734438 28.06239 L 177.734438 18.710827 L 187.089906 18.710827 L 187.089906 28.06239 Z M 177.734438 28.06239 " transform="matrix(1,0,0,-1,1.414,39.24989)"/>
<path style="fill:none;stroke-width:1.59404;stroke-linecap:butt;stroke-linejoin:miter;stroke:rgb(0%,0%,0%);stroke-opacity:1;stroke-miterlimit:10;" d="M 196.445375 18.710827 L 233.863344 18.710827 L 233.863344 37.417859 L 196.445375 37.417859 Z M 196.445375 18.710827 " transform="matrix(1,0,0,-1,1.414,39.24989)"/>
<path style="fill:none;stroke-width:0.3985;stroke-linecap:butt;stroke-linejoin:miter;stroke:rgb(0%,0%,0%);stroke-opacity:1;stroke-miterlimit:10;" d="M 252.570375 -0.00011 L 252.570375 37.417859 " transform="matrix(1,0,0,-1,1.414,39.24989)"/>
<path style="fill:none;stroke-width:0.3985;stroke-linecap:butt;stroke-linejoin:miter;stroke:rgb(0%,0%,0%);stroke-opacity:1;stroke-miterlimit:10;" d="M 261.925844 -0.00011 L 261.925844 37.417859 " transform="matrix(1,0,0,-1,1.414,39.24989)"/>
<path style="fill:none;stroke-width:0.3985;stroke-linecap:butt;stroke-linejoin:miter;stroke:rgb(0%,0%,0%);stroke-opacity:1;stroke-miterlimit:10;" d="M 271.281313 -0.00011 L 271.281313 37.417859 " transform="matrix(1,0,0,-1,1.414,39.24989)"/>
<path style="fill:none;stroke-width:0.3985;stroke-linecap:butt;stroke-linejoin:miter;stroke:rgb(0%,0%,0%);stroke-opacity:1;stroke-miterlimit:10;" d="M 280.636781 -0.00011 L 280.636781 37.417859 " transform="matrix(1,0,0,-1,1.414,39.24989)"/>
<path style="fill:none;stroke-width:0.3985;stroke-linecap:butt;stroke-linejoin:miter;stroke:rgb(0%,0%,0%);stroke-opacity:1;stroke-miterlimit:10;" d="M 289.988344 -0.00011 L 289.988344 37.417859 " transform="matrix(1,0,0,-1,1.414,39.24989)"/>
<path style="fill:none;stroke-width:0.3985;stroke-linecap:butt;stroke-linejoin:miter;stroke:rgb(0%,0%,0%);stroke-opacity:1;stroke-miterlimit:10;" d="M 299.343813 -0.00011 L 299.343813 37.417859 " transform="matrix(1,0,0,-1,1.414,39.24989)"/>
<path style="fill:none;stroke-width:0.3985;stroke-linecap:butt;stroke-linejoin:miter;stroke:rgb(0%,0%,0%);stroke-opacity:1;stroke-miterlimit:10;" d="M 308.699281 -0.00011 L 308.699281 37.417859 " transform="matrix(1,0,0,-1,1.414,39.24989)"/>
<path style="fill:none;stroke-width:0.3985;stroke-linecap:butt;stroke-linejoin:miter;stroke:rgb(0%,0%,0%);stroke-opacity:1;stroke-miterlimit:10;" d="M 318.05475 -0.00011 L 318.05475 37.417859 " transform="matrix(1,0,0,-1,1.414,39.24989)"/>
<path style="fill:none;stroke-width:0.3985;stroke-linecap:butt;stroke-linejoin:miter;stroke:rgb(0%,0%,0%);stroke-opacity:1;stroke-miterlimit:10;" d="M 252.570375 -0.00011 L 318.05475 -0.00011 " transform="matrix(1,0,0,-1,1.414,39.24989)"/>
<path style="fill:none;stroke-width:0.3985;stroke-linecap:butt;stroke-linejoin:miter;stroke:rgb(0%,0%,0%);stroke-opacity:1;stroke-miterlimit:10;" d="M 252.570375 9.355359 L 318.05475 9.355359 " transform="matrix(1,0,0,-1,1.414,39.24989)"/>
<path style="fill:none;stroke-width:0.3985;stroke-linecap:butt;stroke-linejoin:miter;stroke:rgb(0%,0%,0%);stroke-opacity:1;stroke-miterlimit:10;" d="M 252.570375 18.710827 L 318.05475 18.710827 " transform="matrix(1,0,0,-1,1.414,39.24989)"/>
<path style="fill:none;stroke-width:0.3985;stroke-linecap:butt;stroke-linejoin:miter;stroke:rgb(0%,0%,0%);stroke-opacity:1;stroke-miterlimit:10;" d="M 252.570375 28.06239 L 318.05475 28.06239 " transform="matrix(1,0,0,-1,1.414,39.24989)"/>
<path style="fill:none;stroke-width:0.3985;stroke-linecap:butt;stroke-linejoin:miter;stroke:rgb(0%,0%,0%);stroke-opacity:1;stroke-miterlimit:10;" d="M 252.570375 37.417859 L 318.05475 37.417859 " transform="matrix(1,0,0,-1,1.414,39.24989)"/>
<g clip-path="url(#clip1)" clip-rule="nonzero">
<path style="fill:none;stroke-width:1.59404;stroke-linecap:butt;stroke-linejoin:miter;stroke:rgb(0%,0%,0%);stroke-opacity:1;stroke-miterlimit:10;" d="M 252.570375 9.355359 L 261.925844 28.06239 L 271.281313 9.355359 Z M 252.570375 9.355359 " transform="matrix(1,0,0,-1,1.414,39.24989)"/>
</g>
<g clip-path="url(#clip2)" clip-rule="nonzero">
<path style="fill:none;stroke-width:1.59404;stroke-linecap:butt;stroke-linejoin:miter;stroke:rgb(0%,0%,0%);stroke-opacity:1;stroke-miterlimit:10;" d="M 280.636781 37.417859 L 308.699281 37.417859 L 299.343813 18.710827 Z M 280.636781 37.417859 " transform="matrix(1,0,0,-1,1.414,39.24989)"/>
</g>
<g clip-path="url(#clip3)" clip-rule="nonzero">
<path style="fill:none;stroke-width:1.59404;stroke-linecap:butt;stroke-linejoin:miter;stroke:rgb(0%,0%,0%);stroke-opacity:1;stroke-miterlimit:10;" d="M 271.281313 -0.00011 L 318.05475 -0.00011 L 289.988344 18.710827 Z M 271.281313 -0.00011 " transform="matrix(1,0,0,-1,1.414,39.24989)"/>
</g>
<path style="fill:none;stroke-width:0.3985;stroke-linecap:butt;stroke-linejoin:miter;stroke:rgb(0%,0%,0%);stroke-opacity:1;stroke-miterlimit:10;" d="M 336.761781 -0.00011 L 336.761781 37.417859 " transform="matrix(1,0,0,-1,1.414,39.24989)"/>
<path style="fill:none;stroke-width:0.3985;stroke-linecap:butt;stroke-linejoin:miter;stroke:rgb(0%,0%,0%);stroke-opacity:1;stroke-miterlimit:10;" d="M 346.11725 -0.00011 L 346.11725 37.417859 " transform="matrix(1,0,0,-1,1.414,39.24989)"/>
<path style="fill:none;stroke-width:0.3985;stroke-linecap:butt;stroke-linejoin:miter;stroke:rgb(0%,0%,0%);stroke-opacity:1;stroke-miterlimit:10;" d="M 355.472719 -0.00011 L 355.472719 37.417859 " transform="matrix(1,0,0,-1,1.414,39.24989)"/>
<path style="fill:none;stroke-width:0.3985;stroke-linecap:butt;stroke-linejoin:miter;stroke:rgb(0%,0%,0%);stroke-opacity:1;stroke-miterlimit:10;" d="M 364.824281 -0.00011 L 364.824281 37.417859 " transform="matrix(1,0,0,-1,1.414,39.24989)"/>
<path style="fill:none;stroke-width:0.3985;stroke-linecap:butt;stroke-linejoin:miter;stroke:rgb(0%,0%,0%);stroke-opacity:1;stroke-miterlimit:10;" d="M 374.17975 -0.00011 L 374.17975 37.417859 " transform="matrix(1,0,0,-1,1.414,39.24989)"/>
<path style="fill:none;stroke-width:0.3985;stroke-linecap:butt;stroke-linejoin:miter;stroke:rgb(0%,0%,0%);stroke-opacity:1;stroke-miterlimit:10;" d="M 383.535219 -0.00011 L 383.535219 37.417859 " transform="matrix(1,0,0,-1,1.414,39.24989)"/>
<path style="fill:none;stroke-width:0.3985;stroke-linecap:butt;stroke-linejoin:miter;stroke:rgb(0%,0%,0%);stroke-opacity:1;stroke-miterlimit:10;" d="M 392.890688 -0.00011 L 392.890688 37.417859 " transform="matrix(1,0,0,-1,1.414,39.24989)"/>
<path style="fill:none;stroke-width:0.3985;stroke-linecap:butt;stroke-linejoin:miter;stroke:rgb(0%,0%,0%);stroke-opacity:1;stroke-miterlimit:10;" d="M 402.24225 -0.00011 L 402.24225 37.417859 " transform="matrix(1,0,0,-1,1.414,39.24989)"/>
<path style="fill:none;stroke-width:0.3985;stroke-linecap:butt;stroke-linejoin:miter;stroke:rgb(0%,0%,0%);stroke-opacity:1;stroke-miterlimit:10;" d="M 336.761781 -0.00011 L 402.24225 -0.00011 " transform="matrix(1,0,0,-1,1.414,39.24989)"/>
<path style="fill:none;stroke-width:0.3985;stroke-linecap:butt;stroke-linejoin:miter;stroke:rgb(0%,0%,0%);stroke-opacity:1;stroke-miterlimit:10;" d="M 336.761781 9.355359 L 402.24225 9.355359 " transform="matrix(1,0,0,-1,1.414,39.24989)"/>
<path style="fill:none;stroke-width:0.3985;stroke-linecap:butt;stroke-linejoin:miter;stroke:rgb(0%,0%,0%);stroke-opacity:1;stroke-miterlimit:10;" d="M 336.761781 18.710827 L 402.24225 18.710827 " transform="matrix(1,0,0,-1,1.414,39.24989)"/>
<path style="fill:none;stroke-width:0.3985;stroke-linecap:butt;stroke-linejoin:miter;stroke:rgb(0%,0%,0%);stroke-opacity:1;stroke-miterlimit:10;" d="M 336.761781 28.06239 L 402.24225 28.06239 " transform="matrix(1,0,0,-1,1.414,39.24989)"/>
<path style="fill:none;stroke-width:0.3985;stroke-linecap:butt;stroke-linejoin:miter;stroke:rgb(0%,0%,0%);stroke-opacity:1;stroke-miterlimit:10;" d="M 336.761781 37.417859 L 402.24225 37.417859 " transform="matrix(1,0,0,-1,1.414,39.24989)"/>
<g clip-path="url(#clip4)" clip-rule="nonzero">
<path style="fill:none;stroke-width:1.59404;stroke-linecap:butt;stroke-linejoin:miter;stroke:rgb(0%,0%,0%);stroke-opacity:1;stroke-miterlimit:10;" d="M 336.761781 28.06239 L 346.11725 18.710827 L 364.824281 28.06239 Z M 336.761781 28.06239 " transform="matrix(1,0,0,-1,1.414,39.24989)"/>
</g>
<g clip-path="url(#clip5)" clip-rule="nonzero">
<path style="fill:none;stroke-width:1.59404;stroke-linecap:butt;stroke-linejoin:miter;stroke:rgb(0%,0%,0%);stroke-opacity:1;stroke-miterlimit:10;" d="M 392.890688 18.710827 L 402.24225 37.417859 L 383.535219 37.417859 Z M 392.890688 18.710827 " transform="matrix(1,0,0,-1,1.414,39.24989)"/>
</g>
<g clip-path="url(#clip6)" clip-rule="nonzero">
<path style="fill:none;stroke-width:1.59404;stroke-linecap:butt;stroke-linejoin:miter;stroke:rgb(0%,0%,0%);stroke-opacity:1;stroke-miterlimit:10;" d="M 355.472719 9.355359 L 374.17975 28.06239 L 392.890688 9.355359 Z M 355.472719 9.355359 " transform="matrix(1,0,0,-1,1.414,39.24989)"/>
</g>
</g>
</svg>
