<?xml version="1.0" encoding="UTF-8"?>
<svg xmlns="http://www.w3.org/2000/svg" xmlns:xlink="http://www.w3.org/1999/xlink" width="204.56pt" height="28.38401pt" viewBox="0 0 204.56 28.38401" version="1.1">
<defs>
<clipPath id="clip1">
  <path d="M 0 0 L 26 0 L 26 28.382812 L 0 28.382812 Z M 0 0 "/>
</clipPath>
<clipPath id="clip2">
  <path d="M 31 2 L 77 2 L 77 28.382812 L 31 28.382812 Z M 31 2 "/>
</clipPath>
<clipPath id="clip3">
  <path d="M 86 16 L 101 16 L 101 28.382812 L 86 28.382812 Z M 86 16 "/>
</clipPath>
<clipPath id="clip4">
  <path d="M 76 0 L 122 0 L 122 28.382812 L 76 28.382812 Z M 76 0 "/>
</clipPath>
<clipPath id="clip5">
  <path d="M 137 18 L 152 18 L 152 28.382812 L 137 28.382812 Z M 137 18 "/>
</clipPath>
<clipPath id="clip6">
  <path d="M 122 0 L 168 0 L 168 28.382812 L 122 28.382812 Z M 122 0 "/>
</clipPath>
<clipPath id="clip7">
  <path d="M 194 6 L 204.558594 6 L 204.558594 22 L 194 22 Z M 194 6 "/>
</clipPath>
<clipPath id="clip8">
  <path d="M 173 13 L 189 13 L 189 28.382812 L 173 28.382812 Z M 173 13 "/>
</clipPath>
<clipPath id="clip9">
  <path d="M 186 17 L 201 17 L 201 28.382812 L 186 28.382812 Z M 186 17 "/>
</clipPath>
<clipPath id="clip10">
  <path d="M 167 0 L 204.558594 0 L 204.558594 28.382812 L 167 28.382812 Z M 167 0 "/>
</clipPath>
</defs>
<g id="surface1">
<g clip-path="url(#clip1)" clip-rule="nonzero">
<path style="fill:none;stroke-width:0.79701;stroke-linecap:butt;stroke-linejoin:miter;stroke:rgb(0%,0%,0%);stroke-opacity:1;stroke-miterlimit:10;" d="M 5.670656 -0.00107875 C 5.670656 3.131734 3.131594 5.670796 -0.00121875 5.670796 C -3.130125 5.670796 -5.669187 3.131734 -5.669187 -0.00107875 C -5.669187 -3.129985 -3.130125 -5.669048 -0.00121875 -5.669048 C 3.131594 -5.669048 5.670656 -3.129985 5.670656 -0.00107875 Z M 5.670656 -0.00107875 " transform="matrix(1,0,0,-1,8.677,14.16689)"/>
</g>
<path style="fill-rule:nonzero;fill:rgb(0%,0%,0%);fill-opacity:1;stroke-width:0.3985;stroke-linecap:butt;stroke-linejoin:miter;stroke:rgb(0%,0%,0%);stroke-opacity:1;stroke-miterlimit:10;" d="M -4.075437 -0.00107875 C -4.075437 0.881734 -4.790281 1.592671 -5.669187 1.592671 C -6.548094 1.592671 -7.262937 0.881734 -7.262937 -0.00107875 C -7.262937 -0.879985 -6.548094 -1.594829 -5.669187 -1.594829 C -4.790281 -1.594829 -4.075437 -0.879985 -4.075437 -0.00107875 Z M -4.075437 -0.00107875 " transform="matrix(1,0,0,-1,8.677,14.16689)"/>
<path style="fill:none;stroke-width:0.79701;stroke-linecap:butt;stroke-linejoin:miter;stroke:rgb(0%,0%,0%);stroke-opacity:1;stroke-miterlimit:10;" d="M 34.014406 -0.00107875 C 41.674563 4.420796 49.033938 4.420796 56.694094 -0.00107875 " transform="matrix(1,0,0,-1,8.677,14.16689)"/>
<g clip-path="url(#clip2)" clip-rule="nonzero">
<path style="fill:none;stroke-width:0.79701;stroke-linecap:butt;stroke-linejoin:miter;stroke:rgb(0%,0%,0%);stroke-opacity:1;stroke-miterlimit:10;" d="M 56.694094 -0.00107875 C 49.033938 -4.422954 41.674563 -4.422954 34.014406 -0.00107875 " transform="matrix(1,0,0,-1,8.677,14.16689)"/>
</g>
<path style="fill-rule:nonzero;fill:rgb(0%,0%,0%);fill-opacity:1;stroke-width:0.3985;stroke-linecap:butt;stroke-linejoin:miter;stroke:rgb(0%,0%,0%);stroke-opacity:1;stroke-miterlimit:10;" d="M 35.612063 -0.00107875 C 35.612063 0.881734 34.897219 1.592671 34.014406 1.592671 C 33.1355 1.592671 32.420656 0.881734 32.420656 -0.00107875 C 32.420656 -0.879985 33.1355 -1.594829 34.014406 -1.594829 C 34.897219 -1.594829 35.612063 -0.879985 35.612063 -0.00107875 Z M 35.612063 -0.00107875 " transform="matrix(1,0,0,-1,8.677,14.16689)"/>
<path style="fill-rule:nonzero;fill:rgb(0%,0%,0%);fill-opacity:1;stroke-width:0.3985;stroke-linecap:butt;stroke-linejoin:miter;stroke:rgb(0%,0%,0%);stroke-opacity:1;stroke-miterlimit:10;" d="M 58.287844 -0.00107875 C 58.287844 0.881734 57.573 1.592671 56.694094 1.592671 C 55.815188 1.592671 55.100344 0.881734 55.100344 -0.00107875 C 55.100344 -0.879985 55.815188 -1.594829 56.694094 -1.594829 C 57.573 -1.594829 58.287844 -0.879985 58.287844 -0.00107875 Z M 58.287844 -0.00107875 " transform="matrix(1,0,0,-1,8.677,14.16689)"/>
<path style="fill-rule:nonzero;fill:rgb(0%,0%,0%);fill-opacity:1;stroke-width:0.3985;stroke-linecap:butt;stroke-linejoin:miter;stroke:rgb(0%,0%,0%);stroke-opacity:1;stroke-miterlimit:10;" d="M 103.643313 -0.00107875 C 103.643313 0.881734 102.928469 1.592671 102.049563 1.592671 C 101.16675 1.592671 100.455813 0.881734 100.455813 -0.00107875 C 100.455813 -0.879985 101.16675 -1.594829 102.049563 -1.594829 C 102.928469 -1.594829 103.643313 -0.879985 103.643313 -0.00107875 Z M 103.643313 -0.00107875 " transform="matrix(1,0,0,-1,8.677,14.16689)"/>
<path style="fill-rule:nonzero;fill:rgb(0%,0%,0%);fill-opacity:1;stroke-width:0.3985;stroke-linecap:butt;stroke-linejoin:miter;stroke:rgb(0%,0%,0%);stroke-opacity:1;stroke-miterlimit:10;" d="M 86.6355 9.819234 C 86.6355 10.69814 85.920656 11.412984 85.04175 11.412984 C 84.158938 11.412984 83.448 10.69814 83.448 9.819234 C 83.448 8.940327 84.158938 8.225484 85.04175 8.225484 C 85.920656 8.225484 86.6355 8.940327 86.6355 9.819234 Z M 86.6355 9.819234 " transform="matrix(1,0,0,-1,8.677,14.16689)"/>
<path style=" stroke:none;fill-rule:nonzero;fill:rgb(0%,0%,0%);fill-opacity:1;" d="M 95.3125 23.988281 C 95.3125 23.105469 94.597656 22.390625 93.71875 22.390625 C 92.835938 22.390625 92.125 23.105469 92.125 23.988281 C 92.125 24.867188 92.835938 25.582031 93.71875 25.582031 C 94.597656 25.582031 95.3125 24.867188 95.3125 23.988281 Z M 95.3125 23.988281 "/>
<g clip-path="url(#clip3)" clip-rule="nonzero">
<path style="fill:none;stroke-width:0.3985;stroke-linecap:butt;stroke-linejoin:miter;stroke:rgb(0%,0%,0%);stroke-opacity:1;stroke-miterlimit:10;" d="M 86.6355 -9.821391 C 86.6355 -8.938579 85.920656 -8.223735 85.04175 -8.223735 C 84.158938 -8.223735 83.448 -8.938579 83.448 -9.821391 C 83.448 -10.700298 84.158938 -11.415141 85.04175 -11.415141 C 85.920656 -11.415141 86.6355 -10.700298 86.6355 -9.821391 Z M 86.6355 -9.821391 " transform="matrix(1,0,0,-1,8.677,14.16689)"/>
</g>
<g clip-path="url(#clip4)" clip-rule="nonzero">
<path style="fill:none;stroke-width:0.79701;stroke-linecap:butt;stroke-linejoin:miter;stroke:rgb(0%,0%,0%);stroke-opacity:1;stroke-miterlimit:10;" d="M 102.049563 -0.00107875 C 102.049563 6.26064 96.971438 11.338765 90.709719 11.338765 C 84.448 11.338765 79.369875 6.26064 79.369875 -0.00107875 C 79.369875 -6.262798 84.448 -11.337016 90.709719 -11.337016 C 96.971438 -11.337016 102.049563 -6.262798 102.049563 -0.00107875 Z M 102.049563 -0.00107875 " transform="matrix(1,0,0,-1,8.677,14.16689)"/>
</g>
<path style="fill-rule:nonzero;fill:rgb(0%,0%,0%);fill-opacity:1;stroke-width:0.3985;stroke-linecap:butt;stroke-linejoin:miter;stroke:rgb(0%,0%,0%);stroke-opacity:1;stroke-miterlimit:10;" d="M 148.998781 -0.00107875 C 148.998781 0.881734 148.283938 1.592671 147.405031 1.592671 C 146.522219 1.592671 145.811281 0.881734 145.811281 -0.00107875 C 145.811281 -0.879985 146.522219 -1.594829 147.405031 -1.594829 C 148.283938 -1.594829 148.998781 -0.879985 148.998781 -0.00107875 Z M 148.998781 -0.00107875 " transform="matrix(1,0,0,-1,8.677,14.16689)"/>
<path style="fill-rule:nonzero;fill:rgb(0%,0%,0%);fill-opacity:1;stroke-width:0.3985;stroke-linecap:butt;stroke-linejoin:miter;stroke:rgb(0%,0%,0%);stroke-opacity:1;stroke-miterlimit:10;" d="M 137.658938 11.338765 C 137.658938 12.217671 136.944094 12.932515 136.065188 12.932515 C 135.186281 12.932515 134.471438 12.217671 134.471438 11.338765 C 134.471438 10.459859 135.186281 9.745015 136.065188 9.745015 C 136.944094 9.745015 137.658938 10.459859 137.658938 11.338765 Z M 137.658938 11.338765 " transform="matrix(1,0,0,-1,8.677,14.16689)"/>
<path style="fill-rule:nonzero;fill:rgb(0%,0%,0%);fill-opacity:1;stroke-width:0.3985;stroke-linecap:butt;stroke-linejoin:miter;stroke:rgb(0%,0%,0%);stroke-opacity:1;stroke-miterlimit:10;" d="M 126.319094 -0.00107875 C 126.319094 0.881734 125.608156 1.592671 124.725344 1.592671 C 123.846438 1.592671 123.131594 0.881734 123.131594 -0.00107875 C 123.131594 -0.879985 123.846438 -1.594829 124.725344 -1.594829 C 125.608156 -1.594829 126.319094 -0.879985 126.319094 -0.00107875 Z M 126.319094 -0.00107875 " transform="matrix(1,0,0,-1,8.677,14.16689)"/>
<path style=" stroke:none;fill-rule:nonzero;fill:rgb(0%,0%,0%);fill-opacity:1;" d="M 146.335938 25.503906 C 146.335938 24.625 145.621094 23.910156 144.742188 23.910156 C 143.863281 23.910156 143.148438 24.625 143.148438 25.503906 C 143.148438 26.386719 143.863281 27.101562 144.742188 27.101562 C 145.621094 27.101562 146.335938 26.386719 146.335938 25.503906 Z M 146.335938 25.503906 "/>
<g clip-path="url(#clip5)" clip-rule="nonzero">
<path style="fill:none;stroke-width:0.3985;stroke-linecap:butt;stroke-linejoin:miter;stroke:rgb(0%,0%,0%);stroke-opacity:1;stroke-miterlimit:10;" d="M 137.658938 -11.337016 C 137.658938 -10.45811 136.944094 -9.743266 136.065188 -9.743266 C 135.186281 -9.743266 134.471438 -10.45811 134.471438 -11.337016 C 134.471438 -12.219829 135.186281 -12.934673 136.065188 -12.934673 C 136.944094 -12.934673 137.658938 -12.219829 137.658938 -11.337016 Z M 137.658938 -11.337016 " transform="matrix(1,0,0,-1,8.677,14.16689)"/>
</g>
<g clip-path="url(#clip6)" clip-rule="nonzero">
<path style="fill:none;stroke-width:0.79701;stroke-linecap:butt;stroke-linejoin:miter;stroke:rgb(0%,0%,0%);stroke-opacity:1;stroke-miterlimit:10;" d="M 147.405031 -0.00107875 C 147.405031 6.26064 142.326906 11.338765 136.065188 11.338765 C 129.803469 11.338765 124.725344 6.26064 124.725344 -0.00107875 C 124.725344 -6.262798 129.803469 -11.337016 136.065188 -11.337016 C 142.326906 -11.337016 147.405031 -6.262798 147.405031 -0.00107875 Z M 147.405031 -0.00107875 " transform="matrix(1,0,0,-1,8.677,14.16689)"/>
</g>
<path style=" stroke:none;fill-rule:nonzero;fill:rgb(0%,0%,0%);fill-opacity:1;" d="M 203.03125 14.167969 C 203.03125 13.285156 202.316406 12.574219 201.4375 12.574219 C 200.554688 12.574219 199.84375 13.285156 199.84375 14.167969 C 199.84375 15.046875 200.554688 15.761719 201.4375 15.761719 C 202.316406 15.761719 203.03125 15.046875 203.03125 14.167969 Z M 203.03125 14.167969 "/>
<g clip-path="url(#clip7)" clip-rule="nonzero">
<path style="fill:none;stroke-width:0.3985;stroke-linecap:butt;stroke-linejoin:miter;stroke:rgb(0%,0%,0%);stroke-opacity:1;stroke-miterlimit:10;" d="M 194.35425 -0.00107875 C 194.35425 0.881734 193.639406 1.592671 192.7605 1.592671 C 191.877688 1.592671 191.16675 0.881734 191.16675 -0.00107875 C 191.16675 -0.879985 191.877688 -1.594829 192.7605 -1.594829 C 193.639406 -1.594829 194.35425 -0.879985 194.35425 -0.00107875 Z M 194.35425 -0.00107875 " transform="matrix(1,0,0,-1,8.677,14.16689)"/>
</g>
<path style="fill-rule:nonzero;fill:rgb(0%,0%,0%);fill-opacity:1;stroke-width:0.3985;stroke-linecap:butt;stroke-linejoin:miter;stroke:rgb(0%,0%,0%);stroke-opacity:1;stroke-miterlimit:10;" d="M 186.518313 10.784077 C 186.518313 11.662984 185.803469 12.377827 184.924563 12.377827 C 184.045656 12.377827 183.330813 11.662984 183.330813 10.784077 C 183.330813 9.905171 184.045656 9.190327 184.924563 9.190327 C 185.803469 9.190327 186.518313 9.905171 186.518313 10.784077 Z M 186.518313 10.784077 " transform="matrix(1,0,0,-1,8.677,14.16689)"/>
<path style="fill-rule:nonzero;fill:rgb(0%,0%,0%);fill-opacity:1;stroke-width:0.3985;stroke-linecap:butt;stroke-linejoin:miter;stroke:rgb(0%,0%,0%);stroke-opacity:1;stroke-miterlimit:10;" d="M 173.842531 6.662984 C 173.842531 7.545796 173.127688 8.256734 172.248781 8.256734 C 171.365969 8.256734 170.651125 7.545796 170.651125 6.662984 C 170.651125 5.784077 171.365969 5.069234 172.248781 5.069234 C 173.127688 5.069234 173.842531 5.784077 173.842531 6.662984 Z M 173.842531 6.662984 " transform="matrix(1,0,0,-1,8.677,14.16689)"/>
<path style=" stroke:none;fill-rule:nonzero;fill:rgb(0%,0%,0%);fill-opacity:1;" d="M 182.519531 20.832031 C 182.519531 19.949219 181.804688 19.238281 180.925781 19.238281 C 180.042969 19.238281 179.328125 19.949219 179.328125 20.832031 C 179.328125 21.710938 180.042969 22.425781 180.925781 22.425781 C 181.804688 22.425781 182.519531 21.710938 182.519531 20.832031 Z M 182.519531 20.832031 "/>
<g clip-path="url(#clip8)" clip-rule="nonzero">
<path style="fill:none;stroke-width:0.3985;stroke-linecap:butt;stroke-linejoin:miter;stroke:rgb(0%,0%,0%);stroke-opacity:1;stroke-miterlimit:10;" d="M 173.842531 -6.665141 C 173.842531 -5.782329 173.127688 -5.071391 172.248781 -5.071391 C 171.365969 -5.071391 170.651125 -5.782329 170.651125 -6.665141 C 170.651125 -7.544048 171.365969 -8.258891 172.248781 -8.258891 C 173.127688 -8.258891 173.842531 -7.544048 173.842531 -6.665141 Z M 173.842531 -6.665141 " transform="matrix(1,0,0,-1,8.677,14.16689)"/>
</g>
<path style=" stroke:none;fill-rule:nonzero;fill:rgb(0%,0%,0%);fill-opacity:1;" d="M 195.195312 24.949219 C 195.195312 24.070312 194.480469 23.355469 193.601562 23.355469 C 192.722656 23.355469 192.007812 24.070312 192.007812 24.949219 C 192.007812 25.832031 192.722656 26.542969 193.601562 26.542969 C 194.480469 26.542969 195.195312 25.832031 195.195312 24.949219 Z M 195.195312 24.949219 "/>
<g clip-path="url(#clip9)" clip-rule="nonzero">
<path style="fill:none;stroke-width:0.3985;stroke-linecap:butt;stroke-linejoin:miter;stroke:rgb(0%,0%,0%);stroke-opacity:1;stroke-miterlimit:10;" d="M 186.518313 -10.782329 C 186.518313 -9.903423 185.803469 -9.188579 184.924563 -9.188579 C 184.045656 -9.188579 183.330813 -9.903423 183.330813 -10.782329 C 183.330813 -11.665141 184.045656 -12.376079 184.924563 -12.376079 C 185.803469 -12.376079 186.518313 -11.665141 186.518313 -10.782329 Z M 186.518313 -10.782329 " transform="matrix(1,0,0,-1,8.677,14.16689)"/>
</g>
<g clip-path="url(#clip10)" clip-rule="nonzero">
<path style="fill:none;stroke-width:0.79701;stroke-linecap:butt;stroke-linejoin:miter;stroke:rgb(0%,0%,0%);stroke-opacity:1;stroke-miterlimit:10;" d="M 192.7605 -0.00107875 C 192.7605 6.26064 187.682375 11.338765 181.420656 11.338765 C 175.158938 11.338765 170.080813 6.26064 170.080813 -0.00107875 C 170.080813 -6.262798 175.158938 -11.337016 181.420656 -11.337016 C 187.682375 -11.337016 192.7605 -6.262798 192.7605 -0.00107875 Z M 192.7605 -0.00107875 " transform="matrix(1,0,0,-1,8.677,14.16689)"/>
</g>
</g>
</svg>
