<?xml version="1.0" encoding="UTF-8"?>
<svg xmlns="http://www.w3.org/2000/svg" xmlns:xlink="http://www.w3.org/1999/xlink" width="426.8pt" height="58.12599pt" viewBox="0 0 426.8 58.12599" version="1.1">
<g id="surface1">
<path style="fill:none;stroke-width:0.79701;stroke-linecap:butt;stroke-linejoin:miter;stroke:rgb(0%,0%,0%);stroke-opacity:1;stroke-miterlimit:10;" d="M 0.00028125 0.00185875 L 18.426063 0.00185875 L 18.426063 18.423734 L 36.851844 18.423734 L 36.851844 36.849515 L 55.277625 36.849515 L 55.277625 55.275296 L 0.00028125 55.275296 L 0.00028125 0.00185875 " transform="matrix(1,0,0,-1,1.613,56.70889)"/>
<path style="fill:none;stroke-width:0.79701;stroke-linecap:butt;stroke-linejoin:miter;stroke:rgb(0%,0%,0%);stroke-opacity:1;stroke-miterlimit:10;" d="M 0.00028125 18.423734 L 18.426063 18.423734 M 0.00028125 36.849515 L 36.851844 36.849515 " transform="matrix(1,0,0,-1,1.613,56.70889)"/>
<path style="fill:none;stroke-width:0.79701;stroke-linecap:butt;stroke-linejoin:miter;stroke:rgb(0%,0%,0%);stroke-opacity:1;stroke-miterlimit:10;" d="M 92.125281 0.00185875 L 110.551063 0.00185875 L 110.551063 18.423734 L 128.976844 18.423734 L 128.976844 36.849515 L 147.402625 36.849515 L 147.402625 55.275296 L 92.125281 55.275296 L 92.125281 0.00185875 " transform="matrix(1,0,0,-1,1.613,56.70889)"/>
<path style="fill:none;stroke-width:0.79701;stroke-linecap:butt;stroke-linejoin:miter;stroke:rgb(0%,0%,0%);stroke-opacity:1;stroke-miterlimit:10;" d="M 92.125281 36.849515 L 128.976844 36.849515 M 110.551063 36.849515 L 110.551063 18.423734 " transform="matrix(1,0,0,-1,1.613,56.70889)"/>
<path style="fill:none;stroke-width:0.79701;stroke-linecap:butt;stroke-linejoin:miter;stroke:rgb(0%,0%,0%);stroke-opacity:1;stroke-miterlimit:10;" d="M 184.254188 0.00185875 L 202.676063 0.00185875 L 202.676063 18.423734 L 221.101844 18.423734 L 221.101844 36.849515 L 239.527625 36.849515 L 239.527625 55.275296 L 184.254188 55.275296 L 184.254188 0.00185875 " transform="matrix(1,0,0,-1,1.613,56.70889)"/>
<path style="fill:none;stroke-width:0.79701;stroke-linecap:butt;stroke-linejoin:miter;stroke:rgb(0%,0%,0%);stroke-opacity:1;stroke-miterlimit:10;" d="M 184.254188 18.423734 L 202.676063 18.423734 M 221.101844 55.275296 L 221.101844 36.849515 " transform="matrix(1,0,0,-1,1.613,56.70889)"/>
<path style="fill:none;stroke-width:0.79701;stroke-linecap:butt;stroke-linejoin:miter;stroke:rgb(0%,0%,0%);stroke-opacity:1;stroke-miterlimit:10;" d="M 276.379188 0.00185875 L 294.804969 0.00185875 L 294.804969 18.423734 L 313.23075 18.423734 L 313.23075 36.849515 L 331.652625 36.849515 L 331.652625 55.275296 L 276.379188 55.275296 L 276.379188 0.00185875 " transform="matrix(1,0,0,-1,1.613,56.70889)"/>
<path style="fill:none;stroke-width:0.79701;stroke-linecap:butt;stroke-linejoin:miter;stroke:rgb(0%,0%,0%);stroke-opacity:1;stroke-miterlimit:10;" d="M 294.804969 55.275296 L 294.804969 18.423734 M 294.804969 36.849515 L 313.23075 36.849515 " transform="matrix(1,0,0,-1,1.613,56.70889)"/>
<path style="fill:none;stroke-width:0.79701;stroke-linecap:butt;stroke-linejoin:miter;stroke:rgb(0%,0%,0%);stroke-opacity:1;stroke-miterlimit:10;" d="M 368.504188 0.00185875 L 386.929969 0.00185875 L 386.929969 18.423734 L 405.35575 18.423734 L 405.35575 36.849515 L 423.781531 36.849515 L 423.781531 55.275296 L 368.504188 55.275296 L 368.504188 0.00185875 " transform="matrix(1,0,0,-1,1.613,56.70889)"/>
<path style="fill:none;stroke-width:0.79701;stroke-linecap:butt;stroke-linejoin:miter;stroke:rgb(0%,0%,0%);stroke-opacity:1;stroke-miterlimit:10;" d="M 386.929969 55.275296 L 386.929969 18.423734 M 405.35575 55.275296 L 405.35575 36.849515 " transform="matrix(1,0,0,-1,1.613,56.70889)"/>
</g>
</svg>
