<?xml version="1.0" encoding="UTF-8"?>
<svg xmlns="http://www.w3.org/2000/svg" xmlns:xlink="http://www.w3.org/1999/xlink" width="87.44pt" height="60.04482pt" viewBox="0 0 87.44 60.04482" version="1.1">
<defs>
<clipPath id="clip1">
  <path d="M 0 0 L 87.441406 0 L 87.441406 60 L 0 60 Z M 0 0 "/>
</clipPath>
</defs>
<g id="surface1">
<path style="fill:none;stroke-width:0.3985;stroke-linecap:butt;stroke-linejoin:miter;stroke:rgb(0%,0%,0%);stroke-opacity:1;stroke-miterlimit:10;" d="M -0.00034375 -0.00054875 L -0.00034375 56.694764 " transform="matrix(1,0,0,-1,1.223,58.35492)"/>
<path style="fill:none;stroke-width:0.3985;stroke-linecap:butt;stroke-linejoin:miter;stroke:rgb(0%,0%,0%);stroke-opacity:1;stroke-miterlimit:10;" d="M 14.171531 -0.00054875 L 14.171531 56.694764 " transform="matrix(1,0,0,-1,1.223,58.35492)"/>
<path style="fill:none;stroke-width:0.3985;stroke-linecap:butt;stroke-linejoin:miter;stroke:rgb(0%,0%,0%);stroke-opacity:1;stroke-miterlimit:10;" d="M 28.347313 -0.00054875 L 28.347313 56.694764 " transform="matrix(1,0,0,-1,1.223,58.35492)"/>
<path style="fill:none;stroke-width:0.3985;stroke-linecap:butt;stroke-linejoin:miter;stroke:rgb(0%,0%,0%);stroke-opacity:1;stroke-miterlimit:10;" d="M 42.519188 -0.00054875 L 42.519188 56.694764 " transform="matrix(1,0,0,-1,1.223,58.35492)"/>
<path style="fill:none;stroke-width:0.3985;stroke-linecap:butt;stroke-linejoin:miter;stroke:rgb(0%,0%,0%);stroke-opacity:1;stroke-miterlimit:10;" d="M 56.694969 -0.00054875 L 56.694969 56.694764 " transform="matrix(1,0,0,-1,1.223,58.35492)"/>
<path style="fill:none;stroke-width:0.3985;stroke-linecap:butt;stroke-linejoin:miter;stroke:rgb(0%,0%,0%);stroke-opacity:1;stroke-miterlimit:10;" d="M 70.866844 -0.00054875 L 70.866844 56.694764 " transform="matrix(1,0,0,-1,1.223,58.35492)"/>
<path style="fill:none;stroke-width:0.3985;stroke-linecap:butt;stroke-linejoin:miter;stroke:rgb(0%,0%,0%);stroke-opacity:1;stroke-miterlimit:10;" d="M 85.038719 -0.00054875 L 85.038719 56.694764 " transform="matrix(1,0,0,-1,1.223,58.35492)"/>
<path style="fill:none;stroke-width:0.3985;stroke-linecap:butt;stroke-linejoin:miter;stroke:rgb(0%,0%,0%);stroke-opacity:1;stroke-miterlimit:10;" d="M -0.00034375 -0.00054875 L 85.038719 -0.00054875 " transform="matrix(1,0,0,-1,1.223,58.35492)"/>
<path style="fill:none;stroke-width:0.3985;stroke-linecap:butt;stroke-linejoin:miter;stroke:rgb(0%,0%,0%);stroke-opacity:1;stroke-miterlimit:10;" d="M -0.00034375 14.175232 L 85.038719 14.175232 " transform="matrix(1,0,0,-1,1.223,58.35492)"/>
<path style="fill:none;stroke-width:0.3985;stroke-linecap:butt;stroke-linejoin:miter;stroke:rgb(0%,0%,0%);stroke-opacity:1;stroke-miterlimit:10;" d="M -0.00034375 28.347107 L 85.038719 28.347107 " transform="matrix(1,0,0,-1,1.223,58.35492)"/>
<path style="fill:none;stroke-width:0.3985;stroke-linecap:butt;stroke-linejoin:miter;stroke:rgb(0%,0%,0%);stroke-opacity:1;stroke-miterlimit:10;" d="M -0.00034375 42.518982 L 85.038719 42.518982 " transform="matrix(1,0,0,-1,1.223,58.35492)"/>
<path style="fill:none;stroke-width:0.3985;stroke-linecap:butt;stroke-linejoin:miter;stroke:rgb(0%,0%,0%);stroke-opacity:1;stroke-miterlimit:10;" d="M -0.00034375 56.694764 L 85.038719 56.694764 " transform="matrix(1,0,0,-1,1.223,58.35492)"/>
<g clip-path="url(#clip1)" clip-rule="nonzero">
<path style="fill:none;stroke-width:1.59404;stroke-linecap:butt;stroke-linejoin:miter;stroke:rgb(0%,0%,0%);stroke-opacity:1;stroke-miterlimit:10;" d="M -0.00034375 -0.00054875 L 14.171531 -0.00054875 L 14.171531 14.175232 L 28.347313 14.175232 L 28.347313 28.347107 L 56.694969 28.347107 L 56.694969 42.518982 L 70.866844 42.518982 L 70.866844 56.694764 L 85.038719 56.694764 " transform="matrix(1,0,0,-1,1.223,58.35492)"/>
</g>
</g>
</svg>
