<?xml version="1.0" encoding="UTF-8"?>
<svg xmlns="http://www.w3.org/2000/svg" xmlns:xlink="http://www.w3.org/1999/xlink" width="398.48pt" height="10.63476pt" viewBox="0 0 398.48 10.63476" version="1.1">
<defs>
<clipPath id="clip1">
  <path d="M 0 0 L 63 0 L 63 10.632812 L 0 10.632812 Z M 0 0 "/>
</clipPath>
<clipPath id="clip2">
  <path d="M 0 0 L 67 0 L 67 10.632812 L 0 10.632812 Z M 0 0 "/>
</clipPath>
<clipPath id="clip3">
  <path d="M 80 0 L 148 0 L 148 10.632812 L 80 10.632812 Z M 80 0 "/>
</clipPath>
<clipPath id="clip4">
  <path d="M 76 0 L 152 0 L 152 10.632812 L 76 10.632812 Z M 76 0 "/>
</clipPath>
<clipPath id="clip5">
  <path d="M 165 0 L 233 0 L 233 10.632812 L 165 10.632812 Z M 165 0 "/>
</clipPath>
<clipPath id="clip6">
  <path d="M 161 0 L 237 0 L 237 10.632812 L 161 10.632812 Z M 161 0 "/>
</clipPath>
<clipPath id="clip7">
  <path d="M 250 0 L 318 0 L 318 10.632812 L 250 10.632812 Z M 250 0 "/>
</clipPath>
<clipPath id="clip8">
  <path d="M 246 0 L 322 0 L 322 10.632812 L 246 10.632812 Z M 246 0 "/>
</clipPath>
<clipPath id="clip9">
  <path d="M 335 0 L 398.480469 0 L 398.480469 10.632812 L 335 10.632812 Z M 335 0 "/>
</clipPath>
<clipPath id="clip10">
  <path d="M 331 0 L 398.480469 0 L 398.480469 10.632812 L 331 10.632812 Z M 331 0 "/>
</clipPath>
</defs>
<g id="surface1">
<path style=" stroke:none;fill-rule:nonzero;fill:rgb(50%,50%,50%);fill-opacity:1;" d="M 3.921875 7.746094 C 3.921875 6.921875 3.253906 6.25 2.429688 6.25 C 1.605469 6.25 0.933594 6.921875 0.933594 7.746094 C 0.933594 8.570312 1.605469 9.238281 2.429688 9.238281 C 3.253906 9.238281 3.921875 8.570312 3.921875 7.746094 Z M 14.554688 7.746094 C 14.554688 6.921875 13.882812 6.25 13.058594 6.25 C 12.234375 6.25 11.566406 6.921875 11.566406 7.746094 C 11.566406 8.570312 12.234375 9.238281 13.058594 9.238281 C 13.882812 9.238281 14.554688 8.570312 14.554688 7.746094 Z M 25.183594 7.746094 C 25.183594 6.921875 24.515625 6.25 23.6875 6.25 C 22.863281 6.25 22.195312 6.921875 22.195312 7.746094 C 22.195312 8.570312 22.863281 9.238281 23.6875 9.238281 C 24.515625 9.238281 25.183594 8.570312 25.183594 7.746094 Z M 35.8125 7.746094 C 35.8125 6.921875 35.144531 6.25 34.320312 6.25 C 33.492188 6.25 32.824219 6.921875 32.824219 7.746094 C 32.824219 8.570312 33.492188 9.238281 34.320312 9.238281 C 35.144531 9.238281 35.8125 8.570312 35.8125 7.746094 Z M 46.445312 7.746094 C 46.445312 6.921875 45.773438 6.25 44.949219 6.25 C 44.125 6.25 43.453125 6.921875 43.453125 7.746094 C 43.453125 8.570312 44.125 9.238281 44.949219 9.238281 C 45.773438 9.238281 46.445312 8.570312 46.445312 7.746094 Z M 57.074219 7.746094 C 57.074219 6.921875 56.40625 6.25 55.578125 6.25 C 54.753906 6.25 54.085938 6.921875 54.085938 7.746094 C 54.085938 8.570312 54.753906 9.238281 55.578125 9.238281 C 56.40625 9.238281 57.074219 8.570312 57.074219 7.746094 Z M 57.074219 7.746094 "/>
<g clip-path="url(#clip1)" clip-rule="nonzero">
<path style="fill:none;stroke-width:0.3985;stroke-linecap:butt;stroke-linejoin:miter;stroke:rgb(50%,50%,50%);stroke-opacity:1;stroke-miterlimit:10;" d="M 1.492875 -0.00059375 C 1.492875 0.823625 0.824906 1.4955 0.0006875 1.4955 C -0.823531 1.4955 -1.495406 0.823625 -1.495406 -0.00059375 C -1.495406 -0.824813 -0.823531 -1.492781 0.0006875 -1.492781 C 0.824906 -1.492781 1.492875 -0.824813 1.492875 -0.00059375 Z M 12.125688 -0.00059375 C 12.125688 0.823625 11.453813 1.4955 10.629594 1.4955 C 9.805375 1.4955 9.137406 0.823625 9.137406 -0.00059375 C 9.137406 -0.824813 9.805375 -1.492781 10.629594 -1.492781 C 11.453813 -1.492781 12.125688 -0.824813 12.125688 -0.00059375 Z M 22.754594 -0.00059375 C 22.754594 0.823625 22.086625 1.4955 21.2585 1.4955 C 20.434281 1.4955 19.766313 0.823625 19.766313 -0.00059375 C 19.766313 -0.824813 20.434281 -1.492781 21.2585 -1.492781 C 22.086625 -1.492781 22.754594 -0.824813 22.754594 -0.00059375 Z M 33.3835 -0.00059375 C 33.3835 0.823625 32.715531 1.4955 31.891313 1.4955 C 31.063188 1.4955 30.395219 0.823625 30.395219 -0.00059375 C 30.395219 -0.824813 31.063188 -1.492781 31.891313 -1.492781 C 32.715531 -1.492781 33.3835 -0.824813 33.3835 -0.00059375 Z M 44.016313 -0.00059375 C 44.016313 0.823625 43.344438 1.4955 42.520219 1.4955 C 41.696 1.4955 41.024125 0.823625 41.024125 -0.00059375 C 41.024125 -0.824813 41.696 -1.492781 42.520219 -1.492781 C 43.344438 -1.492781 44.016313 -0.824813 44.016313 -0.00059375 Z M 54.645219 -0.00059375 C 54.645219 0.823625 53.97725 1.4955 53.149125 1.4955 C 52.324906 1.4955 51.656938 0.823625 51.656938 -0.00059375 C 51.656938 -0.824813 52.324906 -1.492781 53.149125 -1.492781 C 53.97725 -1.492781 54.645219 -0.824813 54.645219 -0.00059375 Z M 54.645219 -0.00059375 " transform="matrix(1,0,0,-1,2.429,7.7455)"/>
</g>
<g clip-path="url(#clip2)" clip-rule="nonzero">
<path style="fill:none;stroke-width:0.79701;stroke-linecap:butt;stroke-linejoin:miter;stroke:rgb(0%,0%,0%);stroke-opacity:1;stroke-miterlimit:10;" d="M 0.0006875 -0.00059375 C 2.125688 7.015031 8.504594 7.015031 10.629594 -0.00059375 M 21.2585 -0.00059375 C 23.387406 7.015031 29.762406 7.015031 31.891313 -0.00059375 M 42.520219 -0.00059375 C 44.645219 7.015031 51.024125 7.015031 53.149125 -0.00059375 " transform="matrix(1,0,0,-1,2.429,7.7455)"/>
</g>
<path style=" stroke:none;fill-rule:nonzero;fill:rgb(50%,50%,50%);fill-opacity:1;" d="M 88.964844 7.746094 C 88.964844 6.921875 88.292969 6.25 87.46875 6.25 C 86.644531 6.25 85.976562 6.921875 85.976562 7.746094 C 85.976562 8.570312 86.644531 9.238281 87.46875 9.238281 C 88.292969 9.238281 88.964844 8.570312 88.964844 7.746094 Z M 99.59375 7.746094 C 99.59375 6.921875 98.925781 6.25 98.097656 6.25 C 97.273438 6.25 96.605469 6.921875 96.605469 7.746094 C 96.605469 8.570312 97.273438 9.238281 98.097656 9.238281 C 98.925781 9.238281 99.59375 8.570312 99.59375 7.746094 Z M 110.222656 7.746094 C 110.222656 6.921875 109.554688 6.25 108.730469 6.25 C 107.902344 6.25 107.234375 6.921875 107.234375 7.746094 C 107.234375 8.570312 107.902344 9.238281 108.730469 9.238281 C 109.554688 9.238281 110.222656 8.570312 110.222656 7.746094 Z M 120.855469 7.746094 C 120.855469 6.921875 120.183594 6.25 119.359375 6.25 C 118.535156 6.25 117.863281 6.921875 117.863281 7.746094 C 117.863281 8.570312 118.535156 9.238281 119.359375 9.238281 C 120.183594 9.238281 120.855469 8.570312 120.855469 7.746094 Z M 131.484375 7.746094 C 131.484375 6.921875 130.816406 6.25 129.988281 6.25 C 129.164062 6.25 128.496094 6.921875 128.496094 7.746094 C 128.496094 8.570312 129.164062 9.238281 129.988281 9.238281 C 130.816406 9.238281 131.484375 8.570312 131.484375 7.746094 Z M 142.113281 7.746094 C 142.113281 6.921875 141.445312 6.25 140.621094 6.25 C 139.792969 6.25 139.125 6.921875 139.125 7.746094 C 139.125 8.570312 139.792969 9.238281 140.621094 9.238281 C 141.445312 9.238281 142.113281 8.570312 142.113281 7.746094 Z M 142.113281 7.746094 "/>
<g clip-path="url(#clip3)" clip-rule="nonzero">
<path style="fill:none;stroke-width:0.3985;stroke-linecap:butt;stroke-linejoin:miter;stroke:rgb(50%,50%,50%);stroke-opacity:1;stroke-miterlimit:10;" d="M 86.535844 -0.00059375 C 86.535844 0.823625 85.863969 1.4955 85.03975 1.4955 C 84.215531 1.4955 83.547563 0.823625 83.547563 -0.00059375 C 83.547563 -0.824813 84.215531 -1.492781 85.03975 -1.492781 C 85.863969 -1.492781 86.535844 -0.824813 86.535844 -0.00059375 Z M 97.16475 -0.00059375 C 97.16475 0.823625 96.496781 1.4955 95.668656 1.4955 C 94.844438 1.4955 94.176469 0.823625 94.176469 -0.00059375 C 94.176469 -0.824813 94.844438 -1.492781 95.668656 -1.492781 C 96.496781 -1.492781 97.16475 -0.824813 97.16475 -0.00059375 Z M 107.793656 -0.00059375 C 107.793656 0.823625 107.125688 1.4955 106.301469 1.4955 C 105.473344 1.4955 104.805375 0.823625 104.805375 -0.00059375 C 104.805375 -0.824813 105.473344 -1.492781 106.301469 -1.492781 C 107.125688 -1.492781 107.793656 -0.824813 107.793656 -0.00059375 Z M 118.426469 -0.00059375 C 118.426469 0.823625 117.754594 1.4955 116.930375 1.4955 C 116.106156 1.4955 115.434281 0.823625 115.434281 -0.00059375 C 115.434281 -0.824813 116.106156 -1.492781 116.930375 -1.492781 C 117.754594 -1.492781 118.426469 -0.824813 118.426469 -0.00059375 Z M 129.055375 -0.00059375 C 129.055375 0.823625 128.387406 1.4955 127.559281 1.4955 C 126.735063 1.4955 126.067094 0.823625 126.067094 -0.00059375 C 126.067094 -0.824813 126.735063 -1.492781 127.559281 -1.492781 C 128.387406 -1.492781 129.055375 -0.824813 129.055375 -0.00059375 Z M 139.684281 -0.00059375 C 139.684281 0.823625 139.016313 1.4955 138.192094 1.4955 C 137.363969 1.4955 136.696 0.823625 136.696 -0.00059375 C 136.696 -0.824813 137.363969 -1.492781 138.192094 -1.492781 C 139.016313 -1.492781 139.684281 -0.824813 139.684281 -0.00059375 Z M 139.684281 -0.00059375 " transform="matrix(1,0,0,-1,2.429,7.7455)"/>
</g>
<g clip-path="url(#clip4)" clip-rule="nonzero">
<path style="fill:none;stroke-width:0.79701;stroke-linecap:butt;stroke-linejoin:miter;stroke:rgb(0%,0%,0%);stroke-opacity:1;stroke-miterlimit:10;" d="M 85.03975 -0.00059375 C 89.293656 5.315812 97.797563 10.628312 106.301469 -0.00059375 M 95.668656 -0.00059375 C 99.922563 5.315812 112.680375 10.628312 116.930375 -0.00059375 M 127.559281 -0.00059375 C 129.688188 7.015031 136.063188 7.015031 138.192094 -0.00059375 " transform="matrix(1,0,0,-1,2.429,7.7455)"/>
</g>
<path style=" stroke:none;fill-rule:nonzero;fill:rgb(50%,50%,50%);fill-opacity:1;" d="M 174.003906 7.746094 C 174.003906 6.921875 173.335938 6.25 172.511719 6.25 C 171.683594 6.25 171.015625 6.921875 171.015625 7.746094 C 171.015625 8.570312 171.683594 9.238281 172.511719 9.238281 C 173.335938 9.238281 174.003906 8.570312 174.003906 7.746094 Z M 184.632812 7.746094 C 184.632812 6.921875 183.964844 6.25 183.140625 6.25 C 182.316406 6.25 181.644531 6.921875 181.644531 7.746094 C 181.644531 8.570312 182.316406 9.238281 183.140625 9.238281 C 183.964844 9.238281 184.632812 8.570312 184.632812 7.746094 Z M 195.265625 7.746094 C 195.265625 6.921875 194.59375 6.25 193.769531 6.25 C 192.945312 6.25 192.277344 6.921875 192.277344 7.746094 C 192.277344 8.570312 192.945312 9.238281 193.769531 9.238281 C 194.59375 9.238281 195.265625 8.570312 195.265625 7.746094 Z M 205.894531 7.746094 C 205.894531 6.921875 205.226562 6.25 204.398438 6.25 C 203.574219 6.25 202.90625 6.921875 202.90625 7.746094 C 202.90625 8.570312 203.574219 9.238281 204.398438 9.238281 C 205.226562 9.238281 205.894531 8.570312 205.894531 7.746094 Z M 216.523438 7.746094 C 216.523438 6.921875 215.855469 6.25 215.03125 6.25 C 214.203125 6.25 213.535156 6.921875 213.535156 7.746094 C 213.535156 8.570312 214.203125 9.238281 215.03125 9.238281 C 215.855469 9.238281 216.523438 8.570312 216.523438 7.746094 Z M 227.15625 7.746094 C 227.15625 6.921875 226.484375 6.25 225.660156 6.25 C 224.835938 6.25 224.164062 6.921875 224.164062 7.746094 C 224.164062 8.570312 224.835938 9.238281 225.660156 9.238281 C 226.484375 9.238281 227.15625 8.570312 227.15625 7.746094 Z M 227.15625 7.746094 "/>
<g clip-path="url(#clip5)" clip-rule="nonzero">
<path style="fill:none;stroke-width:0.3985;stroke-linecap:butt;stroke-linejoin:miter;stroke:rgb(50%,50%,50%);stroke-opacity:1;stroke-miterlimit:10;" d="M 171.574906 -0.00059375 C 171.574906 0.823625 170.906938 1.4955 170.082719 1.4955 C 169.254594 1.4955 168.586625 0.823625 168.586625 -0.00059375 C 168.586625 -0.824813 169.254594 -1.492781 170.082719 -1.492781 C 170.906938 -1.492781 171.574906 -0.824813 171.574906 -0.00059375 Z M 182.203813 -0.00059375 C 182.203813 0.823625 181.535844 1.4955 180.711625 1.4955 C 179.887406 1.4955 179.215531 0.823625 179.215531 -0.00059375 C 179.215531 -0.824813 179.887406 -1.492781 180.711625 -1.492781 C 181.535844 -1.492781 182.203813 -0.824813 182.203813 -0.00059375 Z M 192.836625 -0.00059375 C 192.836625 0.823625 192.16475 1.4955 191.340531 1.4955 C 190.516313 1.4955 189.848344 0.823625 189.848344 -0.00059375 C 189.848344 -0.824813 190.516313 -1.492781 191.340531 -1.492781 C 192.16475 -1.492781 192.836625 -0.824813 192.836625 -0.00059375 Z M 203.465531 -0.00059375 C 203.465531 0.823625 202.797563 1.4955 201.969438 1.4955 C 201.145219 1.4955 200.47725 0.823625 200.47725 -0.00059375 C 200.47725 -0.824813 201.145219 -1.492781 201.969438 -1.492781 C 202.797563 -1.492781 203.465531 -0.824813 203.465531 -0.00059375 Z M 214.094438 -0.00059375 C 214.094438 0.823625 213.426469 1.4955 212.60225 1.4955 C 211.774125 1.4955 211.106156 0.823625 211.106156 -0.00059375 C 211.106156 -0.824813 211.774125 -1.492781 212.60225 -1.492781 C 213.426469 -1.492781 214.094438 -0.824813 214.094438 -0.00059375 Z M 224.72725 -0.00059375 C 224.72725 0.823625 224.055375 1.4955 223.231156 1.4955 C 222.406938 1.4955 221.735063 0.823625 221.735063 -0.00059375 C 221.735063 -0.824813 222.406938 -1.492781 223.231156 -1.492781 C 224.055375 -1.492781 224.72725 -0.824813 224.72725 -0.00059375 Z M 224.72725 -0.00059375 " transform="matrix(1,0,0,-1,2.429,7.7455)"/>
</g>
<g clip-path="url(#clip6)" clip-rule="nonzero">
<path style="fill:none;stroke-width:0.79701;stroke-linecap:butt;stroke-linejoin:miter;stroke:rgb(0%,0%,0%);stroke-opacity:1;stroke-miterlimit:10;" d="M 170.082719 -0.00059375 C 172.207719 7.015031 178.586625 7.015031 180.711625 -0.00059375 M 191.340531 -0.00059375 C 199.844438 7.015031 204.098344 7.015031 212.60225 -0.00059375 M 201.969438 -0.00059375 C 210.473344 7.015031 214.72725 7.015031 223.231156 -0.00059375 " transform="matrix(1,0,0,-1,2.429,7.7455)"/>
</g>
<path style=" stroke:none;fill-rule:nonzero;fill:rgb(50%,50%,50%);fill-opacity:1;" d="M 259.042969 7.746094 C 259.042969 6.921875 258.375 6.25 257.550781 6.25 C 256.726562 6.25 256.054688 6.921875 256.054688 7.746094 C 256.054688 8.570312 256.726562 9.238281 257.550781 9.238281 C 258.375 9.238281 259.042969 8.570312 259.042969 7.746094 Z M 269.675781 7.746094 C 269.675781 6.921875 269.003906 6.25 268.179688 6.25 C 267.355469 6.25 266.6875 6.921875 266.6875 7.746094 C 266.6875 8.570312 267.355469 9.238281 268.179688 9.238281 C 269.003906 9.238281 269.675781 8.570312 269.675781 7.746094 Z M 280.304688 7.746094 C 280.304688 6.921875 279.636719 6.25 278.808594 6.25 C 277.984375 6.25 277.316406 6.921875 277.316406 7.746094 C 277.316406 8.570312 277.984375 9.238281 278.808594 9.238281 C 279.636719 9.238281 280.304688 8.570312 280.304688 7.746094 Z M 290.933594 7.746094 C 290.933594 6.921875 290.265625 6.25 289.441406 6.25 C 288.613281 6.25 287.945312 6.921875 287.945312 7.746094 C 287.945312 8.570312 288.613281 9.238281 289.441406 9.238281 C 290.265625 9.238281 290.933594 8.570312 290.933594 7.746094 Z M 301.566406 7.746094 C 301.566406 6.921875 300.894531 6.25 300.070312 6.25 C 299.246094 6.25 298.574219 6.921875 298.574219 7.746094 C 298.574219 8.570312 299.246094 9.238281 300.070312 9.238281 C 300.894531 9.238281 301.566406 8.570312 301.566406 7.746094 Z M 312.195312 7.746094 C 312.195312 6.921875 311.527344 6.25 310.699219 6.25 C 309.875 6.25 309.207031 6.921875 309.207031 7.746094 C 309.207031 8.570312 309.875 9.238281 310.699219 9.238281 C 311.527344 9.238281 312.195312 8.570312 312.195312 7.746094 Z M 312.195312 7.746094 "/>
<g clip-path="url(#clip7)" clip-rule="nonzero">
<path style="fill:none;stroke-width:0.3985;stroke-linecap:butt;stroke-linejoin:miter;stroke:rgb(50%,50%,50%);stroke-opacity:1;stroke-miterlimit:10;" d="M 256.613969 -0.00059375 C 256.613969 0.823625 255.946 1.4955 255.121781 1.4955 C 254.297563 1.4955 253.625688 0.823625 253.625688 -0.00059375 C 253.625688 -0.824813 254.297563 -1.492781 255.121781 -1.492781 C 255.946 -1.492781 256.613969 -0.824813 256.613969 -0.00059375 Z M 267.246781 -0.00059375 C 267.246781 0.823625 266.574906 1.4955 265.750688 1.4955 C 264.926469 1.4955 264.2585 0.823625 264.2585 -0.00059375 C 264.2585 -0.824813 264.926469 -1.492781 265.750688 -1.492781 C 266.574906 -1.492781 267.246781 -0.824813 267.246781 -0.00059375 Z M 277.875688 -0.00059375 C 277.875688 0.823625 277.207719 1.4955 276.379594 1.4955 C 275.555375 1.4955 274.887406 0.823625 274.887406 -0.00059375 C 274.887406 -0.824813 275.555375 -1.492781 276.379594 -1.492781 C 277.207719 -1.492781 277.875688 -0.824813 277.875688 -0.00059375 Z M 288.504594 -0.00059375 C 288.504594 0.823625 287.836625 1.4955 287.012406 1.4955 C 286.184281 1.4955 285.516313 0.823625 285.516313 -0.00059375 C 285.516313 -0.824813 286.184281 -1.492781 287.012406 -1.492781 C 287.836625 -1.492781 288.504594 -0.824813 288.504594 -0.00059375 Z M 299.137406 -0.00059375 C 299.137406 0.823625 298.465531 1.4955 297.641313 1.4955 C 296.817094 1.4955 296.145219 0.823625 296.145219 -0.00059375 C 296.145219 -0.824813 296.817094 -1.492781 297.641313 -1.492781 C 298.465531 -1.492781 299.137406 -0.824813 299.137406 -0.00059375 Z M 309.766313 -0.00059375 C 309.766313 0.823625 309.098344 1.4955 308.270219 1.4955 C 307.446 1.4955 306.778031 0.823625 306.778031 -0.00059375 C 306.778031 -0.824813 307.446 -1.492781 308.270219 -1.492781 C 309.098344 -1.492781 309.766313 -0.824813 309.766313 -0.00059375 Z M 309.766313 -0.00059375 " transform="matrix(1,0,0,-1,2.429,7.7455)"/>
</g>
<g clip-path="url(#clip8)" clip-rule="nonzero">
<path style="fill:none;stroke-width:0.79701;stroke-linecap:butt;stroke-linejoin:miter;stroke:rgb(0%,0%,0%);stroke-opacity:1;stroke-miterlimit:10;" d="M 255.121781 -0.00059375 C 265.750688 5.315812 276.379594 10.628312 287.012406 -0.00059375 M 265.750688 -0.00059375 C 276.379594 5.315812 287.012406 10.628312 297.641313 -0.00059375 M 276.379594 -0.00059375 C 287.012406 7.015031 306.145219 7.015031 308.270219 -0.00059375 " transform="matrix(1,0,0,-1,2.429,7.7455)"/>
</g>
<path style=" stroke:none;fill-rule:nonzero;fill:rgb(50%,50%,50%);fill-opacity:1;" d="M 344.085938 7.746094 C 344.085938 6.921875 343.417969 6.25 342.589844 6.25 C 341.765625 6.25 341.097656 6.921875 341.097656 7.746094 C 341.097656 8.570312 341.765625 9.238281 342.589844 9.238281 C 343.417969 9.238281 344.085938 8.570312 344.085938 7.746094 Z M 354.714844 7.746094 C 354.714844 6.921875 354.046875 6.25 353.222656 6.25 C 352.394531 6.25 351.726562 6.921875 351.726562 7.746094 C 351.726562 8.570312 352.394531 9.238281 353.222656 9.238281 C 354.046875 9.238281 354.714844 8.570312 354.714844 7.746094 Z M 365.34375 7.746094 C 365.34375 6.921875 364.675781 6.25 363.851562 6.25 C 363.027344 6.25 362.355469 6.921875 362.355469 7.746094 C 362.355469 8.570312 363.027344 9.238281 363.851562 9.238281 C 364.675781 9.238281 365.34375 8.570312 365.34375 7.746094 Z M 375.976562 7.746094 C 375.976562 6.921875 375.304688 6.25 374.480469 6.25 C 373.65625 6.25 372.988281 6.921875 372.988281 7.746094 C 372.988281 8.570312 373.65625 9.238281 374.480469 9.238281 C 375.304688 9.238281 375.976562 8.570312 375.976562 7.746094 Z M 386.605469 7.746094 C 386.605469 6.921875 385.9375 6.25 385.109375 6.25 C 384.285156 6.25 383.617188 6.921875 383.617188 7.746094 C 383.617188 8.570312 384.285156 9.238281 385.109375 9.238281 C 385.9375 9.238281 386.605469 8.570312 386.605469 7.746094 Z M 397.234375 7.746094 C 397.234375 6.921875 396.566406 6.25 395.742188 6.25 C 394.914062 6.25 394.246094 6.921875 394.246094 7.746094 C 394.246094 8.570312 394.914062 9.238281 395.742188 9.238281 C 396.566406 9.238281 397.234375 8.570312 397.234375 7.746094 Z M 397.234375 7.746094 "/>
<g clip-path="url(#clip9)" clip-rule="nonzero">
<path style="fill:none;stroke-width:0.3985;stroke-linecap:butt;stroke-linejoin:miter;stroke:rgb(50%,50%,50%);stroke-opacity:1;stroke-miterlimit:10;" d="M 341.656938 -0.00059375 C 341.656938 0.823625 340.988969 1.4955 340.160844 1.4955 C 339.336625 1.4955 338.668656 0.823625 338.668656 -0.00059375 C 338.668656 -0.824813 339.336625 -1.492781 340.160844 -1.492781 C 340.988969 -1.492781 341.656938 -0.824813 341.656938 -0.00059375 Z M 352.285844 -0.00059375 C 352.285844 0.823625 351.617875 1.4955 350.793656 1.4955 C 349.965531 1.4955 349.297563 0.823625 349.297563 -0.00059375 C 349.297563 -0.824813 349.965531 -1.492781 350.793656 -1.492781 C 351.617875 -1.492781 352.285844 -0.824813 352.285844 -0.00059375 Z M 362.91475 -0.00059375 C 362.91475 0.823625 362.246781 1.4955 361.422563 1.4955 C 360.598344 1.4955 359.926469 0.823625 359.926469 -0.00059375 C 359.926469 -0.824813 360.598344 -1.492781 361.422563 -1.492781 C 362.246781 -1.492781 362.91475 -0.824813 362.91475 -0.00059375 Z M 373.547563 -0.00059375 C 373.547563 0.823625 372.875688 1.4955 372.051469 1.4955 C 371.22725 1.4955 370.559281 0.823625 370.559281 -0.00059375 C 370.559281 -0.824813 371.22725 -1.492781 372.051469 -1.492781 C 372.875688 -1.492781 373.547563 -0.824813 373.547563 -0.00059375 Z M 384.176469 -0.00059375 C 384.176469 0.823625 383.5085 1.4955 382.680375 1.4955 C 381.856156 1.4955 381.188188 0.823625 381.188188 -0.00059375 C 381.188188 -0.824813 381.856156 -1.492781 382.680375 -1.492781 C 383.5085 -1.492781 384.176469 -0.824813 384.176469 -0.00059375 Z M 394.805375 -0.00059375 C 394.805375 0.823625 394.137406 1.4955 393.313188 1.4955 C 392.485063 1.4955 391.817094 0.823625 391.817094 -0.00059375 C 391.817094 -0.824813 392.485063 -1.492781 393.313188 -1.492781 C 394.137406 -1.492781 394.805375 -0.824813 394.805375 -0.00059375 Z M 394.805375 -0.00059375 " transform="matrix(1,0,0,-1,2.429,7.7455)"/>
</g>
<g clip-path="url(#clip10)" clip-rule="nonzero">
<path style="fill:none;stroke-width:0.79701;stroke-linecap:butt;stroke-linejoin:miter;stroke:rgb(0%,0%,0%);stroke-opacity:1;stroke-miterlimit:10;" d="M 340.160844 -0.00059375 C 348.66475 7.015031 352.918656 7.015031 361.422563 -0.00059375 M 350.793656 -0.00059375 C 361.422563 5.315812 372.051469 10.628312 382.680375 -0.00059375 M 372.051469 -0.00059375 C 375.453813 7.015031 389.696 7.015031 393.313188 -0.00059375 " transform="matrix(1,0,0,-1,2.429,7.7455)"/>
</g>
</g>
</svg>
